<svg xmlns="http://www.w3.org/2000/svg">
<defs>
<font id="PragmataPro">
<font-face  font-family="PragmataPro" units-per-em="2048" ascent="1580" descent="-365" font-style="normal" font-weight="400" font-stretch="normal" cap-height="1580" x-height="1172" underline-position="-305" underline-thickness="60" />

<glyph glyph-name="null" horiz-adv-x="1060" d="" />
<glyph glyph-name="nonmarkingreturn" unicode="&#xd;" horiz-adv-x="1060" d="" />
<glyph glyph-name="space" unicode="&#x20;" horiz-adv-x="1060" d="" />
<glyph glyph-name="exclam" unicode="&#x21;" horiz-adv-x="1060" d="M618 509 L441 509 L441 1580 L618 1580 L618 509 Z M665 114 Q665 58 625 19 Q585 -20 529 -20 Q473 -20 433.5 19 Q394 58 394 114 Q394 171 433.5 210 Q473 249 529 249 Q585 249 625 210 Q665 171 665 114 Z " />
<glyph glyph-name="quotedbl" unicode="&#x22;" horiz-adv-x="1060" d="M837 988 L660 988 L660 1580 L837 1580 L837 988 Z M399 988 L222 988 L222 1580 L399 1580 L399 988 Z " />
<glyph glyph-name="numbersign" unicode="&#x23;" horiz-adv-x="1060" d="M968 632 L739 632 L668 300 L491 300 L562 632 L363 632 L292 300 L115 300 L186 632 L10 632 L10 788 L219 788 L284 1092 L88 1092 L88 1248 L317 1248 L387 1580 L564 1580 L494 1248 L693 1248 L763 1580 L940 1580 L870 1248 L1046 1248 L1046 1092 L837 1092 L772 788 L968 788 L968 632 Z M595 788 L660 1092 L461 1092 L396 788 L595 788 Z " />
<glyph glyph-name="dollar" unicode="&#x24;" horiz-adv-x="1060" d="M949 369 Q949 218 859.5 115 Q770 12 642 -11 L642 -211 L465 -211 L465 -14 Q240 9 110 240 L240 338 Q343 140 543 140 Q638 140 705 200 Q772 260 772 368 Q772 460 656 569 L317 886 Q175 1019 175 1222 Q175 1363 255.5 1465.5 Q336 1568 465 1591 L465 1792 L642 1792 L642 1593 Q813 1575 950 1386 L815 1280 Q728 1442 567 1442 Q475 1442 413.5 1389 Q352 1336 352 1223 Q352 1105 445 1019 L783 704 Q949 547 949 369 Z " />
<glyph glyph-name="percent" unicode="&#x25;" horiz-adv-x="1060" d="M953 1580 L291 0 L120 0 L783 1580 L953 1580 Z M371 1115 L164 1115 L164 1580 L371 1580 L371 1115 Z M917 0 L710 0 L710 465 L917 465 L917 0 Z " />
<glyph glyph-name="ampersand" unicode="&#x26;" horiz-adv-x="1060" d="M984 735 L984 441 Q984 223 866 101.5 Q748 -20 530 -20 Q312 -20 194 101.5 Q76 223 76 441 Q76 725 319 875 L281 955 Q201 1125 201 1259 Q201 1413 287.5 1507.5 Q374 1602 519 1602 Q664 1602 749.5 1506 Q835 1410 835 1259 Q835 1014 515 817 L777 261 Q807 341 807 440 L807 735 L984 735 Z M378 1259 Q378 1106 449 956 Q658 1085 658 1259 Q658 1445 518 1445 Q378 1445 378 1259 Z M530 136 Q609 136 657 159 L384 736 Q253 654 253 441 Q253 136 530 136 Z " />
<glyph glyph-name="quotesingle" unicode="&#x27;" horiz-adv-x="1060" d="M618 988 L441 988 L441 1580 L618 1580 L618 988 Z " />
<glyph glyph-name="parenleft" unicode="&#x28;" horiz-adv-x="1060" d="M452 730 Q452 408 576 149.5 Q700 -109 897 -255 L808 -375 Q574 -200 428.5 88.5 Q283 377 283 730 Q283 1083 428.5 1371.5 Q574 1660 808 1835 L897 1715 Q700 1569 576 1310.5 Q452 1052 452 730 Z " />
<glyph glyph-name="parenright" unicode="&#x29;" horiz-adv-x="1060" d="M608 730 Q608 1052 484 1310.5 Q360 1569 163 1715 L252 1835 Q486 1660 631.5 1371.5 Q777 1083 777 730 Q777 377 631.5 88.5 Q486 -200 252 -375 L163 -255 Q360 -109 484 149.5 Q608 408 608 730 Z " />
<glyph glyph-name="asterisk" unicode="&#x2a;" horiz-adv-x="1060" d="M932 829 L853 694 L600 850 L607 552 L452 552 L459 850 L206 694 L127 829 L389 971 L127 1114 L206 1248 L459 1093 L452 1390 L607 1390 L600 1093 L853 1248 L932 1114 L670 971 L932 829 Z " />
<glyph glyph-name="plus" unicode="&#x2b;" horiz-adv-x="1060" d="M1000 702 L618 702 L618 321 L442 321 L442 702 L59 702 L59 878 L442 878 L442 1261 L618 1261 L618 878 L1000 878 L1000 702 Z " />
<glyph glyph-name="comma" unicode="&#x2c;" horiz-adv-x="1060" d="M734 155 Q734 -36 532 -365 L356 -365 Q483 -164 526 0 Q439 3 383 57.5 Q327 112 327 193 Q327 283 380.5 340.5 Q434 398 520 398 Q617 398 675.5 331 Q734 264 734 155 Z " />
<glyph glyph-name="hyphen" unicode="&#x2d;" horiz-adv-x="1060" d="M815 698 L244 698 L244 874 L815 874 L815 698 Z " />
<glyph glyph-name="period" unicode="&#x2e;" horiz-adv-x="1060" d="M734 183 Q734 102 675.5 41 Q617 -20 529 -20 Q440 -20 383.5 41 Q327 102 327 183 Q327 263 383.5 325 Q440 387 529 387 Q617 387 675.5 324.5 Q734 262 734 183 Z " />
<glyph glyph-name="slash" unicode="&#x2f;" horiz-adv-x="1060" d="M951 1580 L289 0 L108 0 L770 1580 L951 1580 Z " />
<glyph glyph-name="zero" unicode="0" horiz-adv-x="1060" d="M108 791 Q108 955 213 1335 Q284 1602 525 1602 Q776 1602 847 1335 Q952 955 952 791 Q952 627 847 247 Q776 -20 525 -20 Q284 -20 213 247 Q108 627 108 791 Z M776 791 Q776 957 683 1291 Q646 1440 525 1441 Q414 1440 377 1291 Q284 957 284 791 Q284 625 377 290 Q414 141 525 140 Q646 141 683 290 Q776 625 776 791 Z M628 700 L540 700 L426 930 L515 930 L628 700 Z " />
<glyph glyph-name="one" unicode="1" horiz-adv-x="1060" d="M562 0 L562 1367 L265 1135 L185 1269 L582 1580 L739 1580 L739 0 L562 0 Z " />
<glyph glyph-name="two" unicode="2" horiz-adv-x="1060" d="M916 0 L184 0 L184 150 Q184 394 417 692 L652 993 Q739 1104 739 1213 Q739 1329 683 1385.5 Q627 1442 530 1442 Q362 1442 289 1240 L144 1341 Q279 1602 530 1602 Q690 1602 803 1492 Q916 1382 916 1212 Q916 1046 781 874 L550 578 Q360 334 360 150 L916 150 L916 0 Z " />
<glyph glyph-name="three" unicode="3" horiz-adv-x="1060" d="M100 240 L244 336 Q318 140 517 140 Q620 140 689 212 Q758 284 758 466 Q758 638 676.5 700 Q595 762 487 762 L410 762 L410 912 L487 912 Q579 912 652.5 977.5 Q726 1043 726 1182 Q726 1318 667 1380 Q608 1442 517 1442 Q349 1442 275 1245 L131 1341 Q277 1602 518 1602 Q688 1602 795.5 1487.5 Q903 1373 903 1182 Q903 928 693 837 Q935 769 935 466 Q935 228 817 104 Q699 -20 518 -20 Q246 -20 100 240 Z " />
<glyph glyph-name="four" unicode="4" horiz-adv-x="1060" d="M922 429 L820 429 L820 0 L644 0 L644 429 L88 429 L88 579 L604 1580 L820 1580 L820 579 L922 579 L922 429 Z M644 579 L644 1323 L260 579 L644 579 Z " />
<glyph glyph-name="five" unicode="5" horiz-adv-x="1060" d="M921 493 Q921 248 803 114 Q685 -20 516 -20 Q259 -20 129 224 L273 319 Q347 140 515 140 Q606 140 675 221.5 Q744 303 744 493 Q744 685 676 761.5 Q608 838 454 838 L220 838 L220 1580 L888 1580 L888 1430 L396 1430 L396 998 L485 998 Q681 998 801 880.5 Q921 763 921 493 Z " />
<glyph glyph-name="six" unicode="6" horiz-adv-x="1060" d="M950 475 Q950 239 839 109.5 Q728 -20 555 -20 Q394 -20 276.5 109.5 Q159 239 159 548 L159 1014 Q159 1313 272 1457.5 Q385 1602 574 1602 Q786 1602 922 1386 L778 1286 Q711 1442 576 1442 Q464 1442 400 1350.5 Q336 1259 336 1014 L336 794 Q431 968 608 968 Q762 968 856 842.5 Q950 717 950 475 Z M774 475 Q774 667 719 737 Q664 807 576 807 Q387 807 336 582 Q336 294 398.5 217 Q461 140 556 140 Q647 140 710.5 217 Q774 294 774 475 Z " />
<glyph glyph-name="seven" unicode="7" horiz-adv-x="1060" d="M668 800 Q518 501 509 158 L504 0 L328 0 L333 171 Q343 505 533 886 L675 1172 Q749 1318 749 1430 L141 1430 L141 1580 L925 1580 L925 1507 Q925 1314 810 1086 L668 800 Z " />
<glyph glyph-name="eight" unicode="8" horiz-adv-x="1060" d="M529 -20 Q349 -20 231 94 Q113 208 113 402 Q113 693 383 847 Q155 1006 155 1222 Q155 1393 262.5 1497.5 Q370 1602 529 1602 Q690 1602 797.5 1497.5 Q905 1393 905 1222 Q905 1007 677 847 Q947 693 947 402 Q947 208 829 94 Q711 -20 529 -20 Z M529 1442 Q442 1442 386.5 1385.5 Q331 1329 331 1222 Q331 1048 529 926 Q729 1048 729 1222 Q729 1329 674 1385.5 Q619 1442 529 1442 Z M529 747 Q289 629 289 402 Q289 259 355.5 199.5 Q422 140 529 140 Q638 140 704.5 199.5 Q771 259 771 402 Q771 629 529 747 Z " />
<glyph glyph-name="nine" unicode="9" horiz-adv-x="1060" d="M110 1107 Q110 1343 221 1472.5 Q332 1602 505 1602 Q666 1602 783.5 1472.5 Q901 1343 901 1034 L901 568 Q901 269 788 124.5 Q675 -20 486 -20 Q274 -20 138 196 L282 290 Q349 140 484 140 Q596 140 660.5 231.5 Q725 323 725 568 L725 788 Q636 614 452 614 Q298 614 204 739.5 Q110 865 110 1107 Z M286 1107 Q286 912 341 842 Q396 772 484 772 Q674 772 725 1016 Q725 1288 662 1365 Q599 1442 504 1442 Q413 1442 349.5 1365 Q286 1288 286 1107 Z " />
<glyph glyph-name="colon" unicode="&#x3a;" horiz-adv-x="1060" d="M734 183 Q734 102 675.5 41 Q617 -20 529 -20 Q440 -20 383.5 41 Q327 102 327 183 Q327 263 383.5 325 Q440 387 529 387 Q617 387 675.5 324.5 Q734 262 734 183 Z M734 990 Q734 909 675.5 848 Q617 787 529 787 Q440 787 383.5 848 Q327 909 327 990 Q327 1070 383.5 1132 Q440 1194 529 1194 Q617 1194 675.5 1131.5 Q734 1069 734 990 Z " />
<glyph glyph-name="semicolon" unicode="&#x3b;" horiz-adv-x="1060" d="M734 990 Q734 909 675.5 848 Q617 787 529 787 Q440 787 383.5 848 Q327 909 327 990 Q327 1070 383.5 1132 Q440 1194 529 1194 Q617 1194 675.5 1131.5 Q734 1069 734 990 Z M734 155 Q734 -36 532 -365 L356 -365 Q483 -164 526 0 Q439 3 383 57.5 Q327 112 327 193 Q327 283 380.5 340.5 Q434 398 520 398 Q617 398 675.5 331 Q734 264 734 155 Z " />
<glyph glyph-name="less" unicode="&#x3c;" horiz-adv-x="1060" d="M302 790 L939 452 L939 263 L81 730 L81 850 L939 1317 L939 1128 L302 790 Z " />
<glyph glyph-name="equal" unicode="&#x3d;" horiz-adv-x="1060" d="M1000 905 L59 905 L59 1071 L1000 1071 L1000 905 Z M1000 507 L59 507 L59 673 L1000 673 L1000 507 Z " />
<glyph glyph-name="greater" unicode="&#x3e;" horiz-adv-x="1060" d="M121 1128 L121 1317 L979 850 L979 730 L121 263 L121 452 L758 790 L121 1128 Z " />
<glyph glyph-name="question" unicode="&#x3f;" horiz-adv-x="1060" d="M890 1222 Q890 1093 807 970 L615 690 Q576 632 576 566 L576 509 L399 509 L399 567 Q399 684 469 789 L667 1079 Q713 1147 713 1223 Q713 1309 656.5 1371 Q600 1433 504 1433 Q337 1433 252 1245 L108 1341 Q254 1602 505 1602 Q674 1602 782 1492.5 Q890 1383 890 1222 Z M641 114 Q641 58 601.5 19 Q562 -20 505 -20 Q449 -20 410 19 Q371 58 371 114 Q371 171 410 210 Q449 249 505 249 Q562 249 601.5 210 Q641 171 641 114 Z " />
<glyph glyph-name="at" unicode="&#x40;" horiz-adv-x="1060" d="M560 1172 Q417 1172 326.5 1066.5 Q236 961 236 732 L236 201 Q236 -10 341.5 -115.5 Q447 -221 616 -221 Q848 -221 1001 -64 L1001 -250 Q854 -375 613 -375 Q380 -375 229.5 -224 Q79 -73 79 201 L79 732 Q79 1025 214.5 1175.5 Q350 1326 560 1326 Q748 1326 874.5 1208 Q1001 1090 1001 805 L1001 305 Q1001 153 914.5 66.5 Q828 -20 706 -20 Q585 -20 499 66.5 Q413 153 413 305 L413 521 Q413 896 666 896 Q768 896 844 806 L844 828 Q844 1029 758 1100.5 Q672 1172 560 1172 Z M844 562 Q844 653 804 701.5 Q764 750 696 750 Q573 750 570 551 L570 294 Q570 206 609.5 166 Q649 126 706 126 Q764 126 804 166 Q844 206 844 294 L844 562 Z " />
<glyph glyph-name="A" unicode="A" horiz-adv-x="1060" d="M289 88 L289 0 L113 0 L113 88 Q113 315 248 852 L431 1580 L629 1580 L812 852 Q947 315 947 88 L947 0 L771 0 L771 88 Q771 195 741 370 L318 370 Q289 195 289 88 Z M530 1300 L399 754 Q368 627 346 520 L713 520 Q691 627 661 754 L530 1300 Z " />
<glyph glyph-name="B" unicode="B" horiz-adv-x="1060" d="M935 481 Q935 238 807 119 Q679 0 469 0 L165 0 L165 1580 L486 1580 Q688 1580 790 1476 Q892 1372 892 1199 Q892 948 678 869 Q935 790 935 481 Z M710 1199 Q710 1326 654 1378 Q598 1430 485 1430 L341 1430 L341 924 L465 924 Q567 924 638.5 990 Q710 1056 710 1199 Z M753 481 Q753 647 692 710.5 Q631 774 524 774 L341 774 L341 150 L468 150 Q620 150 686.5 221.5 Q753 293 753 481 Z " />
<glyph glyph-name="C" unicode="C" horiz-adv-x="1060" d="M980 234 Q833 -20 579 -20 Q407 -20 289 95 Q171 210 171 519 L171 1063 Q171 1362 289 1482 Q407 1602 577 1602 Q843 1602 970 1346 L826 1259 Q747 1442 578 1442 Q479 1442 413.5 1370 Q348 1298 348 1063 L348 519 Q348 284 413.5 212 Q479 140 578 140 Q747 140 836 331 L980 234 Z " />
<glyph glyph-name="D" unicode="D" horiz-adv-x="1060" d="M960 648 Q960 339 818.5 169.5 Q677 0 435 0 L174 0 L174 1580 L435 1580 Q677 1580 818.5 1420.5 Q960 1261 960 953 L960 648 Z M778 648 L778 953 Q778 1195 686 1312.5 Q594 1430 435 1430 L349 1430 L349 150 L435 150 Q594 150 686 275.5 Q778 401 778 648 Z " />
<glyph glyph-name="E" unicode="E" horiz-adv-x="1060" d="M924 0 L196 0 L196 1580 L924 1580 L924 1430 L372 1430 L372 918 L780 918 L780 768 L372 768 L372 150 L924 150 L924 0 Z " />
<glyph glyph-name="F" unicode="F" horiz-adv-x="1060" d="M970 1430 L398 1430 L398 918 L858 918 L858 768 L398 768 L398 0 L222 0 L222 1580 L970 1580 L970 1430 Z " />
<glyph glyph-name="G" unicode="G" horiz-adv-x="1060" d="M925 479 Q925 220 812.5 100 Q700 -20 530 -20 Q360 -20 250 100 Q140 220 140 479 L140 1103 Q140 1362 250.5 1482 Q361 1602 541 1602 Q782 1602 909 1346 L765 1259 Q686 1442 542 1442 Q435 1442 375.5 1370 Q316 1298 316 1103 L316 479 Q316 284 373 212 Q430 140 530 140 Q628 140 688.5 212.5 Q749 285 749 479 L749 695 L562 695 L562 845 L925 845 L925 479 Z " />
<glyph glyph-name="H" unicode="H" horiz-adv-x="1060" d="M910 0 L734 0 L734 790 L326 790 L326 0 L150 0 L150 1580 L326 1580 L326 940 L734 940 L734 1580 L910 1580 L910 0 Z " />
<glyph glyph-name="I" unicode="I" horiz-adv-x="1060" d="M867 0 L192 0 L192 150 L441 150 L441 1430 L245 1430 L245 1580 L814 1580 L814 1430 L618 1430 L618 150 L867 150 L867 0 Z " />
<glyph glyph-name="J" unicode="J" horiz-adv-x="1060" d="M873 475 Q873 218 765 99 Q657 -20 498 -20 Q349 -20 236 99 Q123 218 123 475 L123 706 L299 706 L299 474 Q299 284 357.5 212 Q416 140 497 140 Q588 140 642 212 Q696 284 696 474 L696 1580 L873 1580 L873 475 Z " />
<glyph glyph-name="K" unicode="K" horiz-adv-x="1060" d="M376 1580 L376 825 L644 1219 Q787 1428 794 1544 L796 1580 L972 1580 L969 1527 Q960 1394 778 1127 L615 884 L849 487 Q1007 220 1016 70 L1020 0 L844 0 L841 55 Q833 194 710 401 L499 757 L376 574 L376 0 L200 0 L200 1580 L376 1580 Z " />
<glyph glyph-name="L" unicode="L" horiz-adv-x="1060" d="M970 0 L252 0 L252 1580 L428 1580 L428 150 L970 150 L970 0 Z " />
<glyph glyph-name="M" unicode="M" horiz-adv-x="1060" d="M934 0 L758 0 L758 417 L789 1354 L585 700 L475 700 L271 1354 L302 417 L302 0 L126 0 L126 1580 L302 1580 L530 923 L758 1580 L934 1580 L934 0 Z " />
<glyph glyph-name="N" unicode="N" horiz-adv-x="1060" d="M910 0 L748 0 L734 478 L286 1334 L326 527 L326 0 L150 0 L150 1580 L326 1580 L774 724 L734 1531 L734 1580 L910 1580 L910 0 Z " />
<glyph glyph-name="O" unicode="O" horiz-adv-x="1060" d="M142 479 L142 1103 Q142 1362 250 1482 Q358 1602 530 1602 Q702 1602 810 1482 Q918 1362 918 1103 L918 479 Q918 220 810 100 Q702 -20 530 -20 Q358 -19 250 100.5 Q142 220 142 479 Z M319 479 Q319 284 374.5 212 Q430 140 529 140 Q628 140 684.5 212.5 Q741 285 741 479 L741 1103 Q741 1297 684.5 1369.5 Q628 1442 529 1442 Q430 1442 374.5 1370 Q319 1298 319 1103 L319 479 Z " />
<glyph glyph-name="P" unicode="P" horiz-adv-x="1060" d="M376 0 L200 0 L200 1580 L544 1580 Q755 1580 862.5 1465.5 Q970 1351 970 1160 Q970 946 852 831.5 Q734 717 544 717 L376 717 L376 0 Z M376 867 L543 867 Q665 867 726.5 929 Q788 991 788 1160 Q788 1306 731.5 1368 Q675 1430 543 1430 L376 1430 L376 867 Z " />
<glyph glyph-name="Q" unicode="Q" horiz-adv-x="1060" d="M918 479 Q918 122 702 18 L816 -269 L629 -269 L530 -20 Q358 -19 250 100.5 Q142 220 142 479 L142 1103 Q142 1362 250 1482 Q358 1602 530 1602 Q702 1602 810 1482 Q918 1362 918 1103 L918 479 Z M741 488 L741 1102 Q741 1297 684.5 1369.5 Q628 1442 529 1442 Q430 1442 374.5 1369.5 Q319 1297 319 1102 L319 488 Q319 284 374.5 212 Q430 140 530 140 Q628 140 684.5 212.5 Q741 285 741 488 Z " />
<glyph glyph-name="R" unicode="R" horiz-adv-x="1060" d="M550 720 L366 720 L366 0 L190 0 L190 1580 L535 1580 Q745 1580 847.5 1466 Q950 1352 950 1160 Q950 998 884.5 893.5 Q819 789 722 753 L740 724 Q937 417 958 70 L962 0 L786 0 L783 55 Q763 386 576 678 L550 720 Z M366 870 L534 870 Q656 870 712 942 Q768 1014 768 1161 Q768 1306 712 1368 Q656 1430 534 1430 L366 1430 L366 870 Z " />
<glyph glyph-name="S" unicode="S" horiz-adv-x="1060" d="M949 369 Q949 208 842 94 Q735 -20 546 -20 Q247 -20 110 240 L240 339 Q343 140 545 140 Q638 140 705 197.5 Q772 255 772 368 Q772 460 656 569 L317 886 Q175 1020 175 1222 Q175 1383 279.5 1492.5 Q384 1602 566 1602 Q803 1602 950 1386 L815 1280 Q728 1442 567 1442 Q475 1442 413.5 1389 Q352 1336 352 1223 Q352 1105 445 1019 L783 704 Q949 547 949 369 Z " />
<glyph glyph-name="T" unicode="T" horiz-adv-x="1060" d="M943 1430 L618 1430 L618 0 L442 0 L442 1430 L117 1430 L117 1580 L943 1580 L943 1430 Z " />
<glyph glyph-name="U" unicode="U" horiz-adv-x="1060" d="M910 474 Q910 218 799.5 99 Q689 -20 530 -20 Q371 -20 260.5 99 Q150 218 150 474 L150 1580 L326 1580 L326 474 Q326 278 384.5 209 Q443 140 529 140 Q615 140 674 209 Q733 278 733 474 L733 1580 L910 1580 L910 474 Z " />
<glyph glyph-name="V" unicode="V" horiz-adv-x="1060" d="M431 0 L235 728 Q103 1216 103 1492 L103 1580 L279 1580 L279 1492 Q279 1264 379 836 L530 198 L681 836 Q781 1264 781 1492 L781 1580 L957 1580 L957 1492 Q957 1216 825 728 L629 0 L431 0 Z " />
<glyph glyph-name="W" unicode="W" horiz-adv-x="1060" d="M737 95 L764 468 Q779 675 779 937 L779 1580 L955 1580 L955 1199 Q955 810 900 468 L826 0 L660 0 L530 612 L400 0 L234 0 L160 468 Q105 810 105 1199 L105 1580 L281 1580 L281 937 Q281 675 296 468 L323 95 L474 807 L586 807 L737 95 Z " />
<glyph glyph-name="X" unicode="X" horiz-adv-x="1060" d="M88 0 L92 70 Q101 227 251 487 L438 807 L272 1093 Q122 1352 112 1510 L108 1580 L284 1580 L287 1525 Q295 1370 406 1179 L530 965 L654 1179 Q765 1370 773 1525 L776 1580 L952 1580 L948 1510 Q938 1352 788 1093 L622 807 L809 487 Q959 227 968 70 L972 0 L796 0 L793 55 Q785 210 674 401 L530 649 L386 401 Q275 210 267 55 L264 0 L88 0 Z " />
<glyph glyph-name="Y" unicode="Y" horiz-adv-x="1060" d="M618 0 L442 0 L442 673 L272 983 Q98 1300 98 1507 L98 1580 L274 1580 L274 1507 Q274 1329 406 1072 L530 825 L654 1072 Q786 1329 786 1507 L786 1580 L962 1580 L962 1507 Q962 1300 788 983 L618 673 L618 0 Z " />
<glyph glyph-name="Z" unicode="Z" horiz-adv-x="1060" d="M944 0 L155 0 L155 150 L746 1430 L155 1430 L155 1580 L934 1580 L934 1430 L343 150 L944 150 L944 0 Z " />
<glyph glyph-name="bracketleft" unicode="&#x5b;" horiz-adv-x="1060" d="M874 -211 L325 -211 L325 1580 L874 1580 L874 1424 L502 1424 L502 -54 L874 -54 L874 -211 Z " />
<glyph glyph-name="backslash" unicode="&#x5c;" horiz-adv-x="1060" d="M279 1580 L941 0 L780 0 L118 1580 L279 1580 Z " />
<glyph glyph-name="bracketright" unicode="&#x5d;" horiz-adv-x="1060" d="M735 -211 L186 -211 L186 -54 L558 -54 L558 1424 L186 1424 L186 1580 L735 1580 L735 -211 Z " />
<glyph glyph-name="asciicircum" unicode="&#x5e;" horiz-adv-x="1060" d="M954 622 L766 622 L529 1345 L285 622 L105 622 L437 1580 L619 1580 L954 622 Z " />
<glyph glyph-name="underscore" unicode="&#x5f;" horiz-adv-x="1060" d="M1071 -226 L-11 -226 L-11 -70 L1071 -70 L1071 -226 Z " />
<glyph glyph-name="grave" unicode="&#x60;" horiz-adv-x="1060" d="M729 1335 L565 1335 L330 1580 L550 1580 L729 1335 Z " />
<glyph glyph-name="a" unicode="a" horiz-adv-x="1060" d="M884 0 L708 0 L708 132 Q596 -20 425 -20 Q282 -20 193.5 78.5 Q105 177 105 326 Q105 479 215.5 582.5 Q326 686 540 686 L708 686 L708 813 Q708 1034 498 1034 Q343 1034 266 897 L133 997 Q271 1194 499 1194 Q668 1194 776 1097.5 Q884 1001 884 813 L884 0 Z M708 275 L708 544 L540 544 Q414 544 350 485 Q286 426 286 326 Q286 140 469 140 Q613 140 708 275 Z " />
<glyph glyph-name="b" unicode="b" horiz-adv-x="1060" d="M940 505 Q940 225 839.5 102.5 Q739 -20 599 -20 Q419 -20 327 141 L327 0 L151 0 L151 1580 L327 1580 L327 1030 Q419 1194 599 1194 Q739 1194 839.5 1070.5 Q940 947 940 667 L940 505 Z M759 505 L759 667 Q759 872 707 953 Q655 1034 556 1034 Q381 1034 327 800 L327 373 Q382 140 556 140 Q655 140 707 220.5 Q759 301 759 505 Z " />
<glyph glyph-name="c" unicode="c" horiz-adv-x="1060" d="M972 195 Q837 -20 587 -20 Q407 -20 291 108.5 Q175 237 175 514 L175 659 Q175 936 291 1065 Q407 1194 587 1194 Q837 1194 972 977 L829 887 Q742 1034 597 1034 Q485 1034 418.5 959.5 Q352 885 352 659 L352 514 Q352 289 418.5 214.5 Q485 140 597 140 Q742 140 829 286 L972 195 Z " />
<glyph glyph-name="d" unicode="d" horiz-adv-x="1060" d="M120 667 Q120 947 220.5 1070.5 Q321 1194 461 1194 Q641 1194 733 1030 L733 1580 L909 1580 L909 0 L733 0 L733 141 Q641 -20 461 -20 Q321 -20 220.5 102.5 Q120 225 120 505 L120 667 Z M301 505 Q301 301 353 220.5 Q405 140 504 140 Q678 140 733 373 L733 790 Q679 1034 504 1034 Q405 1034 353 953 Q301 872 301 667 L301 505 Z " />
<glyph glyph-name="e" unicode="e" horiz-adv-x="1060" d="M924 551 L311 551 L311 516 Q311 289 377.5 214.5 Q444 140 557 140 Q702 140 788 286 L931 195 Q796 -20 546 -20 Q366 -20 250.5 108.5 Q135 237 135 516 L135 657 Q135 936 250.5 1065 Q366 1194 530 1194 Q704 1194 814 1075 Q924 956 924 687 L924 551 Z M748 706 Q748 885 686.5 959.5 Q625 1034 530 1034 Q439 1034 375 959.5 Q311 885 311 706 L748 706 Z " />
<glyph glyph-name="f" unicode="f" horiz-adv-x="1060" d="M837 1352 Q796 1441 684 1441 Q611 1441 570 1394 Q529 1347 529 1225 L529 1107 L923 1107 L923 957 L529 957 L529 0 L352 0 L352 957 L155 957 L155 1107 L352 1107 L352 1214 Q352 1414 445 1507.5 Q538 1601 673 1601 Q880 1601 970 1459 L837 1352 Z " />
<glyph glyph-name="g" unicode="g" horiz-adv-x="1060" d="M988 1032 L927 1032 L831 1041 Q910 945 910 846 Q910 710 811.5 620 Q713 530 542 530 Q479 530 427 530 Q343 475 343 424 Q343 372 376 346.5 Q409 321 486 321 L583 321 Q802 321 900 228 Q998 135 998 -7 Q998 -167 873 -271 Q748 -375 545 -375 Q331 -375 220.5 -278.5 Q110 -182 110 -45 Q110 135 291 227 Q157 283 157 397 Q157 513 299 594 Q154 692 154 864 Q154 1008 256.5 1098 Q359 1188 543 1188 Q597 1188 805 1172 L988 1172 L988 1032 Z M740 865 Q740 936 688.5 989 Q637 1042 533 1042 Q428 1042 376.5 992 Q325 942 325 862 Q325 771 379 723.5 Q433 676 530 676 Q636 676 688 725 Q740 774 740 865 Z M817 -7 Q817 70 765.5 115.5 Q714 161 583 161 L512 161 Q392 161 341.5 107 Q291 53 291 -32 Q291 -120 357 -168 Q423 -216 532 -216 Q817 -216 817 -7 Z " />
<glyph glyph-name="h" unicode="h" horiz-adv-x="1060" d="M910 0 L734 0 L734 758 Q734 915 686.5 974.5 Q639 1034 556 1034 Q382 1034 326 793 L326 0 L150 0 L150 1580 L326 1580 L326 1032 Q439 1194 599 1194 Q730 1194 820 1097 Q910 1000 910 768 L910 0 Z " />
<glyph glyph-name="i" unicode="i" horiz-adv-x="1060" d="M643 1569 Q643 1513 604 1473.5 Q565 1434 507 1434 Q449 1434 410.5 1473.5 Q372 1513 372 1569 Q372 1625 410.5 1665 Q449 1705 507 1705 Q565 1705 604 1665 Q643 1625 643 1569 Z M909 0 L170 0 L170 150 L451 150 L451 1022 L250 1022 L250 1172 L628 1172 L628 150 L909 150 L909 0 Z " />
<glyph glyph-name="j" unicode="j" horiz-adv-x="1060" d="M756 1569 Q756 1513 717 1473.5 Q678 1434 621 1434 Q562 1434 523.5 1473.5 Q485 1513 485 1569 Q485 1625 523.5 1665 Q562 1705 621 1705 Q678 1705 717 1665 Q756 1625 756 1569 Z M564 90 L564 1022 L363 1022 L363 1172 L741 1172 L741 90 Q741 -128 633 -251.5 Q525 -375 350 -375 Q153 -375 10 -210 L131 -96 Q216 -215 339 -215 Q442 -215 503 -145.5 Q564 -76 564 90 Z " />
<glyph glyph-name="k" unicode="k" horiz-adv-x="1060" d="M970 0 L794 0 Q786 129 667 301 L492 552 L361 392 L361 0 L185 0 L185 1580 L361 1580 L361 609 L620 928 Q749 1087 753 1172 L929 1172 L927 1134 Q921 1041 752 834 L611 661 L793 397 Q960 156 967 41 L970 0 Z " />
<glyph glyph-name="l" unicode="l" horiz-adv-x="1060" d="M900 0 L160 0 L160 150 L442 150 L442 1430 L241 1430 L241 1580 L619 1580 L619 150 L900 150 L900 0 Z " />
<glyph glyph-name="m" unicode="m" horiz-adv-x="1060" d="M959 0 L805 0 L805 885 Q805 1035 729 1035 Q654 1035 607 919 L607 0 L453 0 L453 885 Q451 1035 385 1035 Q308 1035 255 919 L255 0 L101 0 L101 1172 L255 1172 L255 1057 Q333 1194 438 1194 Q547 1194 588 1057 Q664 1194 774 1194 Q959 1194 959 893 L959 0 Z " />
<glyph glyph-name="n" unicode="n" horiz-adv-x="1060" d="M910 0 L734 0 L734 760 Q734 912 686.5 971.5 Q639 1031 556 1031 Q382 1031 326 793 L326 0 L150 0 L150 1172 L326 1172 L326 1022 Q439 1194 599 1194 Q730 1194 820 1097 Q910 1000 910 770 L910 0 Z " />
<glyph glyph-name="o" unicode="o" horiz-adv-x="1060" d="M925 507 Q925 238 814.5 109 Q704 -20 530 -20 Q356 -20 246 109 Q136 238 136 507 L136 667 Q136 936 246 1065 Q356 1194 530 1194 Q704 1194 814.5 1065 Q925 936 925 667 L925 507 Z M749 507 L749 667 Q749 875 687.5 954.5 Q626 1034 530 1034 Q434 1034 373 954.5 Q312 875 312 667 L312 507 Q312 299 373 219.5 Q434 140 530 140 Q626 140 687.5 219.5 Q749 299 749 507 Z " />
<glyph glyph-name="p" unicode="p" horiz-adv-x="1060" d="M940 504 Q940 227 834.5 103.5 Q729 -20 599 -20 Q419 -20 327 144 L327 -365 L151 -365 L151 1172 L327 1172 L327 1033 Q419 1194 599 1194 Q729 1194 834.5 1071.5 Q940 949 940 667 L940 504 Z M759 667 Q759 873 702 953.5 Q645 1034 556 1034 Q382 1034 327 793 L327 382 Q381 140 556 140 Q645 140 702 221 Q759 302 759 504 L759 667 Z " />
<glyph glyph-name="q" unicode="q" horiz-adv-x="1060" d="M120 667 Q120 949 220.5 1071.5 Q321 1194 461 1194 Q641 1194 733 1031 L733 1172 L909 1172 L909 -365 L733 -365 L733 144 Q641 -20 461 -20 Q321 -20 220.5 103.5 Q120 227 120 504 L120 667 Z M301 504 Q301 302 353 221 Q405 140 504 140 Q679 140 733 382 L733 793 Q678 1034 504 1034 Q405 1034 353 953.5 Q301 873 301 667 L301 504 Z " />
<glyph glyph-name="r" unicode="r" horiz-adv-x="1060" d="M984 974 L831 906 Q780 1034 656 1034 Q398 1034 398 553 L398 0 L222 0 L222 1172 L398 1172 L398 984 Q502 1194 684 1194 Q895 1194 984 974 Z " />
<glyph glyph-name="s" unicode="s" horiz-adv-x="1060" d="M534 136 Q644 136 700.5 188 Q757 240 757 315 Q757 417 631 474 L406 578 Q196 677 196 861 Q196 1005 299.5 1099.5 Q403 1194 566 1194 Q801 1194 927 977 L783 890 Q717 1037 566 1037 Q476 1037 424 991.5 Q372 946 372 879 Q372 789 489 733 L702 634 Q933 527 933 306 Q933 176 825 78 Q717 -20 532 -20 Q273 -20 127 219 L272 307 Q358 136 534 136 Z " />
<glyph glyph-name="t" unicode="t" horiz-adv-x="1060" d="M980 164 Q857 -20 651 -20 Q515 -20 422 73 Q329 166 329 347 L329 1022 L132 1022 L132 1172 L329 1172 L329 1580 L505 1580 L505 1172 L901 1172 L901 1022 L505 1022 L505 335 Q505 239 546.5 189.5 Q588 140 661 140 Q784 140 847 261 L980 164 Z " />
<glyph glyph-name="u" unicode="u" horiz-adv-x="1060" d="M910 0 L734 0 L734 152 Q621 -20 461 -20 Q330 -20 240 78.5 Q150 177 150 432 L150 1172 L326 1172 L326 432 Q326 261 373.5 200.5 Q421 140 504 140 Q678 140 734 369 L734 1172 L910 1172 L910 0 Z " />
<glyph glyph-name="v" unicode="v" horiz-adv-x="1060" d="M631 0 L429 0 L226 613 Q121 928 111 1088 L106 1172 L282 1172 L287 1088 Q296 936 387 638 L530 166 L673 638 Q764 936 773 1088 L778 1172 L954 1172 L949 1088 Q939 928 834 613 L631 0 Z " />
<glyph glyph-name="w" unicode="w" horiz-adv-x="1060" d="M726 97 L767 477 Q793 714 793 963 L793 1172 L965 1172 L965 1017 Q965 804 905 477 L818 0 L652 0 L530 528 L408 0 L242 0 L155 477 Q95 804 95 1017 L95 1172 L267 1172 L267 963 Q267 714 293 477 L334 97 L474 700 L586 700 L726 97 Z " />
<glyph glyph-name="x" unicode="x" horiz-adv-x="1060" d="M372 244 Q289 129 281 0 L105 0 L107 40 Q114 156 239 332 L432 605 L266 840 Q141 1015 134 1132 L132 1172 L308 1172 Q316 1044 399 928 L530 743 L661 928 Q744 1044 752 1172 L928 1172 L926 1132 Q919 1015 794 840 L627 605 L821 332 Q946 156 953 40 L955 0 L779 0 Q771 129 688 244 L530 467 L372 244 Z " />
<glyph glyph-name="y" unicode="y" horiz-adv-x="1060" d="M314 -189 L448 160 L205 758 Q118 973 111 1082 L106 1172 L282 1172 L287 1088 Q291 1017 368 808 L530 365 L693 802 Q768 1013 773 1088 L778 1172 L954 1172 L948 1082 Q943 985 855 758 L481 -212 Q462 -261 458 -327 L456 -365 L280 -365 L282 -327 Q286 -261 314 -189 Z " />
<glyph glyph-name="z" unicode="z" horiz-adv-x="1060" d="M940 0 L152 0 L152 150 L718 1022 L161 1022 L161 1172 L918 1172 L918 1022 L352 150 L940 150 L940 0 Z " />
<glyph glyph-name="braceleft" unicode="&#x7b;" horiz-adv-x="1060" d="M902 -351 L737 -351 Q595 -351 494 -250.5 Q393 -150 393 -8 L393 396 Q393 484 332 546 Q271 608 185 608 L157 608 L157 787 L184 787 Q270 787 331.5 849 Q393 911 393 997 L393 1391 Q393 1533 494 1634 Q595 1735 737 1735 L902 1735 L902 1580 L737 1580 Q668 1580 618.5 1530.5 Q569 1481 569 1412 L569 1002 Q569 898 513 813 Q454 722 356 697 Q460 664 517 577 Q569 496 569 394 L569 -29 Q569 -98 618.5 -147.5 Q668 -197 737 -197 L902 -197 L902 -351 Z " />
<glyph glyph-name="bar" unicode="&#x7c;" horiz-adv-x="1060" d="M618 -211 L441 -211 L441 1792 L618 1792 L618 -211 Z " />
<glyph glyph-name="braceright" unicode="&#x7d;" horiz-adv-x="1060" d="M902 608 L873 608 Q788 608 727 546 Q666 484 666 396 L666 -8 Q666 -150 565 -250.5 Q464 -351 322 -351 L157 -351 L157 -197 L322 -197 Q391 -197 440.5 -147.5 Q490 -98 490 -29 L490 394 Q490 496 542 577 Q599 664 703 697 Q605 722 546 813 Q490 898 490 1002 L490 1412 Q490 1481 440.5 1530.5 Q391 1580 322 1580 L157 1580 L157 1735 L322 1735 Q464 1735 565 1634 Q666 1533 666 1391 L666 997 Q666 911 727.5 849 Q789 787 874 787 L902 787 L902 608 Z " />
<glyph glyph-name="asciitilde" unicode="&#x7e;" horiz-adv-x="1060" d="M1009 1048 Q995 599 729 599 Q621 599 550 682 L413 843 Q365 899 323 899 Q198 899 200 597 L50 597 Q64 1046 330 1046 Q437 1046 505 968 L649 799 Q694 746 736 746 Q862 746 859 1048 L1009 1048 Z " />
<glyph glyph-name="nbspace" unicode="&#xa0;" horiz-adv-x="1060" d="" />
<glyph glyph-name="exclamdown" unicode="&#xa1;" horiz-adv-x="1060" d="M665 1111 Q665 1055 625.5 1015.5 Q586 976 530 976 Q474 976 434 1015.5 Q394 1055 394 1111 Q394 1167 434 1207 Q474 1247 530 1247 Q586 1247 625.5 1207 Q665 1167 665 1111 Z M618 -354 L441 -354 L441 717 L618 717 L618 -354 Z " />
<glyph glyph-name="cent" unicode="&#xa2;" horiz-adv-x="1060" d="M972 195 Q855 12 673 -12 L673 -211 L496 -211 L496 -12 Q175 63 175 514 L175 659 Q175 1111 496 1185 L496 1392 L673 1392 L673 1186 Q854 1160 972 977 L829 887 Q742 1034 597 1034 Q485 1034 418.5 959.5 Q352 885 352 659 L352 514 Q352 289 418.5 214.5 Q485 140 597 140 Q742 140 829 286 L972 195 Z " />
<glyph glyph-name="sterling" unicode="&#xa3;" horiz-adv-x="1060" d="M979 0 L79 0 L79 157 Q302 165 278 533 L264 748 L79 748 L79 905 L254 905 L239 1127 Q225 1364 332.5 1483 Q440 1602 598 1602 Q828 1602 965 1386 L831 1293 Q755 1435 599 1435 Q514 1435 459.5 1371.5 Q405 1308 416 1135 L431 905 L732 905 L732 748 L441 748 L454 544 Q474 238 318 157 L979 157 L979 0 Z " />
<glyph glyph-name="currency" unicode="&#xa4;" horiz-adv-x="1060" d="M166 698 Q166 799 218 885 L33 1072 L156 1198 L343 1009 Q428 1061 529 1061 Q630 1061 716 1009 L904 1198 L1027 1072 L840 884 Q892 799 892 698 Q892 597 840 512 L1027 324 L904 198 L716 387 Q630 335 529 335 Q428 335 343 386 L156 198 L33 324 L218 511 Q166 596 166 698 Z M336 698 Q336 606 391.5 550.5 Q447 495 529 495 Q611 495 666.5 550.5 Q722 606 722 698 Q722 790 666.5 845.5 Q611 901 529 901 Q447 901 391.5 845.5 Q336 790 336 698 Z " />
<glyph glyph-name="yen" unicode="&#xa5;" horiz-adv-x="1060" d="M618 0 L442 0 L442 281 L143 281 L143 436 L442 436 L442 625 L143 625 L143 780 L383 780 L272 983 Q98 1300 98 1507 L98 1580 L274 1580 L274 1507 Q274 1329 406 1072 L530 825 L654 1072 Q786 1329 786 1507 L786 1580 L962 1580 L962 1507 Q962 1300 788 983 L676 780 L917 780 L917 625 L618 625 L618 436 L917 436 L917 281 L618 281 L618 0 Z " />
<glyph glyph-name="brokenbar" unicode="&#xa6;" horiz-adv-x="1060" d="M618 922 L441 922 L441 1792 L618 1792 L618 922 Z M618 -211 L441 -211 L441 658 L618 658 L618 -211 Z " />
<glyph glyph-name="section" unicode="&#xa7;" horiz-adv-x="1060" d="M134 -165 L264 -66 Q347 -215 509 -215 Q602 -215 664 -166.5 Q726 -118 726 -26 Q726 55 636 139 L334 423 Q192 557 192 759 Q192 921 299 1024 Q237 1128 237 1262 Q237 1393 331.5 1497.5 Q426 1602 608 1602 Q825 1602 952 1406 L815 1314 Q740 1442 609 1442 Q517 1442 465.5 1394 Q414 1346 414 1263 Q414 1145 507 1059 L799 792 Q965 635 965 457 Q965 292 841 173 Q903 90 903 -26 Q903 -157 801 -266 Q699 -375 510 -375 Q261 -375 134 -165 Z M732 303 Q788 361 788 456 Q788 548 672 657 L410 905 Q369 853 369 760 Q369 642 462 556 L732 303 Z " />
<glyph glyph-name="dieresis" unicode="&#xa8;" horiz-adv-x="1060" d="M838 1466 Q838 1419 804.5 1384.5 Q771 1350 722 1350 Q673 1350 640.5 1384.5 Q608 1419 608 1466 Q608 1512 640.5 1546 Q673 1580 722 1580 Q771 1580 804.5 1546 Q838 1512 838 1466 Z M451 1466 Q451 1419 418 1384.5 Q385 1350 336 1350 Q287 1350 254 1384.5 Q221 1419 221 1466 Q221 1512 254 1546 Q287 1580 336 1580 Q385 1580 418 1546 Q451 1512 451 1466 Z " />
<glyph glyph-name="copyright" unicode="&#xa9;" horiz-adv-x="1060" d="M674 926 L517 926 Q517 1020 477.5 1060 Q438 1100 381 1100 Q323 1100 283 1060 Q243 1020 243 911 L243 662 Q243 553 283 513 Q323 473 381 473 Q438 473 477.5 513 Q517 553 517 642 L674 642 Q674 500 593 418.5 Q512 337 381 337 Q259 337 172.5 423.5 Q86 510 86 662 L86 911 Q86 1063 172.5 1149.5 Q259 1236 381 1236 Q512 1236 593 1154.5 Q674 1073 674 926 Z M86 271 Q239 114 471 114 Q640 114 745.5 219.5 Q851 325 851 533 L851 1048 Q851 1257 745.5 1362.5 Q640 1468 471 1468 Q239 1468 86 1311 L86 1477 Q233 1602 474 1602 Q707 1602 857.5 1451.5 Q1008 1301 1008 1048 L1008 533 Q1008 280 857.5 130 Q707 -20 474 -20 Q233 -20 86 105 L86 271 Z " />
<glyph glyph-name="ordfeminine" unicode="&#xaa;" horiz-adv-x="1060" d="M828 674 L661 674 L661 753 Q589 658 476 658 Q365 658 298.5 734.5 Q232 811 232 941 Q232 1076 315 1155 Q398 1234 589 1234 L661 1234 L661 1293 Q661 1460 529 1460 Q422 1460 370 1342 L240 1430 Q344 1602 529 1602 Q665 1602 746.5 1528.5 Q828 1455 828 1292 L828 674 Z M661 876 L661 1102 L589 1102 Q479 1102 434 1058 Q389 1014 389 941 Q389 800 508 800 Q605 800 661 876 Z M243 417 L833 417 L833 267 L243 267 L243 417 Z " />
<glyph glyph-name="guillemotleft" unicode="&#xab;" horiz-adv-x="1060" d="M989 124 L810 124 L478 602 L810 1080 L989 1080 L666 602 L989 124 Z M582 124 L403 124 L71 602 L403 1080 L582 1080 L259 602 L582 124 Z " />
<glyph glyph-name="logicalnot" unicode="&#xac;" horiz-adv-x="1060" d="M960 368 L784 368 L784 771 L59 771 L59 925 L960 925 L960 368 Z " />
<glyph glyph-name="softhyphen" unicode="&#xad;" horiz-adv-x="1060" d="M815 698 L244 698 L244 874 L815 874 L815 698 Z " />
<glyph glyph-name="registered" unicode="&#xae;" horiz-adv-x="1060" d="M674 920 Q674 752 526 676 L666 358 L496 358 L381 647 L243 647 L243 358 L86 358 L86 1215 L341 1215 Q522 1215 598 1133.5 Q674 1052 674 920 Z M517 920 Q517 999 477.5 1039 Q438 1079 361 1079 L243 1079 L243 772 L361 772 Q438 772 477.5 812 Q517 852 517 920 Z M86 271 Q239 114 471 114 Q640 114 745.5 219.5 Q851 325 851 533 L851 1048 Q851 1257 745.5 1362.5 Q640 1468 471 1468 Q239 1468 86 1311 L86 1477 Q233 1602 474 1602 Q707 1602 857.5 1451.5 Q1008 1301 1008 1048 L1008 533 Q1008 280 857.5 130 Q707 -20 474 -20 Q233 -20 86 105 L86 271 Z " />
<glyph glyph-name="overscore" unicode="&#xaf;" horiz-adv-x="1060" d="M815 1446 L244 1446 L244 1580 L815 1580 L815 1446 Z " />
<glyph glyph-name="degree" unicode="&#xb0;" horiz-adv-x="1060" d="M862 1270 Q862 1132 764.5 1034.5 Q667 937 529 937 Q391 937 294 1034.5 Q197 1132 197 1270 Q197 1408 294 1505 Q391 1602 529 1602 Q667 1602 764.5 1505 Q862 1408 862 1270 Z M696 1270 Q696 1335 650.5 1385.5 Q605 1436 529 1436 Q454 1436 408.5 1385.5 Q363 1335 363 1270 Q363 1204 408.5 1153.5 Q454 1103 529 1103 Q604 1103 650 1154 Q696 1205 696 1270 Z " />
<glyph glyph-name="plusminus" unicode="&#xb1;" horiz-adv-x="1060" d="M1000 929 L618 929 L618 599 L442 599 L442 929 L59 929 L59 1089 L442 1089 L442 1420 L618 1420 L618 1089 L1000 1089 L1000 929 Z M1000 240 L59 240 L59 400 L1000 400 L1000 240 Z " />
<glyph glyph-name="twosuperior" unicode="&#xb2;" horiz-adv-x="1060" d="M795 673 L281 673 L281 726 Q281 885 438 1061 L582 1221 Q646 1290 646 1371 Q646 1416 617 1443.5 Q588 1471 535 1471 Q431 1471 389 1358 L266 1431 Q360 1602 535 1602 Q654 1602 724.5 1535.5 Q795 1469 795 1366 Q795 1249 697 1140 L553 981 Q446 862 438 803 L795 803 L795 673 Z " />
<glyph glyph-name="threesuperior" unicode="&#xb3;" horiz-adv-x="1060" d="M815 941 Q815 826 735.5 743.5 Q656 661 536 661 Q355 661 256 840 L367 917 Q421 791 535 791 Q594 791 630 833.5 Q666 876 666 951 Q666 1027 625.5 1060.5 Q585 1094 535 1094 L462 1094 L462 1225 L535 1225 Q584 1225 615 1254 Q646 1283 646 1350 Q646 1408 615 1439 Q584 1470 535 1470 Q420 1470 372 1353 L261 1429 Q365 1602 536 1602 Q646 1602 720.5 1532 Q795 1462 795 1354 Q795 1212 676 1159 Q815 1105 815 941 Z " />
<glyph glyph-name="acute" unicode="&#xb4;" horiz-adv-x="1060" d="M729 1580 L494 1335 L330 1335 L509 1580 L729 1580 Z " />
<glyph glyph-name="micro" unicode="&#xb5;" horiz-adv-x="1060" d="M915 0 L739 0 L739 132 Q626 -20 486 -20 Q372 -20 321 56 L321 -365 L145 -365 L145 1172 L321 1172 L321 348 Q321 258 368.5 197.5 Q416 137 499 137 Q643 137 739 270 L739 1172 L915 1172 L915 0 Z " />
<glyph glyph-name="paragraph" unicode="&#xb6;" horiz-adv-x="1060" d="M902 0 L779 0 L779 1580 L902 1580 L902 0 Z M645 0 L522 0 L522 727 L483 727 Q324 727 211 841.5 Q98 956 98 1117 L98 1190 Q98 1351 211 1465.5 Q324 1580 483 1580 L645 1580 L645 0 Z " />
<glyph glyph-name="middot" unicode="&#xb7;" horiz-adv-x="1060" d="M734 851 Q734 770 675.5 709 Q617 648 529 648 Q440 648 383.5 709 Q327 770 327 851 Q327 931 383.5 993 Q440 1055 529 1055 Q617 1055 675.5 992.5 Q734 930 734 851 Z " />
<glyph glyph-name="cedilla" unicode="&#xb8;" horiz-adv-x="1060" d="M363 -254 Q537 -269 537 -197 Q537 -137 436 -144 L483 -50 Q697 -58 697 -195 Q697 -279 629.5 -327 Q562 -375 363 -375 L363 -254 Z " />
<glyph glyph-name="onesuperior" unicode="&#xb9;" horiz-adv-x="1060" d="M673 664 L524 664 L524 1402 L322 1239 L249 1350 L536 1580 L673 1580 L673 664 Z " />
<glyph glyph-name="ordmasculine" unicode="&#xba;" horiz-adv-x="1060" d="M824 985 Q824 832 740.5 745 Q657 658 527 658 Q397 658 313 745 Q229 832 229 985 L229 1275 Q229 1428 313 1515 Q397 1602 527 1602 Q657 1602 740.5 1515 Q824 1428 824 1275 L824 985 Z M667 964 L667 1296 Q667 1376 626 1418 Q585 1460 527 1460 Q469 1460 427.5 1417.5 Q386 1375 386 1296 L386 964 Q386 884 427.5 842 Q469 800 527 800 Q585 800 626 841.5 Q667 883 667 964 Z M235 417 L830 417 L830 267 L235 267 L235 417 Z " />
<glyph glyph-name="guillemotright" unicode="&#xbb;" horiz-adv-x="1060" d="M989 602 L657 124 L478 124 L801 602 L478 1080 L657 1080 L989 602 Z M582 602 L250 124 L71 124 L394 602 L71 1080 L250 1080 L582 602 Z " />
<glyph glyph-name="onequarter" unicode="&#xbc;" horiz-adv-x="1060" d="M944 729 L114 729 L114 858 L944 858 L944 729 Z M798 -105 L700 -105 L700 -311 L551 -311 L551 -105 L198 -105 L198 55 L542 561 L700 561 L700 22 L798 22 L798 -105 Z M551 22 L551 368 L316 22 L551 22 Z M638 1000 L489 1000 L489 1694 L308 1547 L235 1658 L501 1872 L638 1872 L638 1000 Z " />
<glyph glyph-name="onehalf" unicode="&#xbd;" horiz-adv-x="1060" d="M944 729 L114 729 L114 858 L944 858 L944 729 Z M638 1000 L489 1000 L489 1694 L308 1547 L235 1658 L501 1872 L638 1872 L638 1000 Z M795 -300 L281 -300 L281 -247 Q281 -88 438 68 L582 210 Q646 273 646 351 Q646 396 617 423.5 Q588 451 535 451 Q431 451 389 338 L266 411 Q360 582 535 582 Q654 582 724.5 515.5 Q795 449 795 346 Q795 224 697 129 L553 -12 Q446 -118 438 -170 L795 -170 L795 -300 Z " />
<glyph glyph-name="threequarters" unicode="&#xbe;" horiz-adv-x="1060" d="M944 729 L114 729 L114 858 L944 858 L944 729 Z M798 -105 L700 -105 L700 -311 L551 -311 L551 -105 L198 -105 L198 55 L542 561 L700 561 L700 22 L798 22 L798 -105 Z M551 22 L551 368 L316 22 L551 22 Z M795 1253 Q795 1148 715.5 1065.5 Q636 983 517 983 Q345 983 246 1162 L357 1239 Q411 1113 516 1113 Q574 1113 610 1150.5 Q646 1188 646 1263 Q646 1322 610.5 1355.5 Q575 1389 516 1389 L452 1389 L452 1520 L516 1520 Q564 1520 595 1549 Q626 1578 626 1635 Q626 1683 595 1714 Q564 1745 516 1745 Q410 1745 362 1628 L251 1704 Q355 1877 517 1877 Q626 1877 700.5 1807 Q775 1737 775 1639 Q775 1517 656 1454 Q795 1390 795 1253 Z " />
<glyph glyph-name="questiondown" unicode="&#xbf;" horiz-adv-x="1060" d="M658 1111 Q658 1055 619 1015.5 Q580 976 524 976 Q467 976 427.5 1015.5 Q388 1055 388 1111 Q388 1167 427.5 1207 Q467 1247 524 1247 Q580 1247 619 1207 Q658 1167 658 1111 Z M921 -114 Q775 -375 524 -375 Q365 -375 252 -260.5 Q139 -146 139 14 Q139 132 205 231 L421 546 Q453 594 453 659 L453 717 L630 717 L630 658 Q630 542 560 437 L348 126 Q316 78 316 13 Q316 -84 377.5 -146 Q439 -208 525 -208 Q692 -208 787 -23 L921 -114 Z " />
<glyph glyph-name="Agrave" unicode="&#xc0;" horiz-adv-x="1060" d="M605 1705 L441 1705 L206 1950 L426 1950 L605 1705 Z M289 88 L289 0 L113 0 L113 88 Q113 315 248 852 L408 1490 L651 1490 L812 852 Q947 315 947 88 L947 0 L771 0 L771 88 Q771 195 741 370 L318 370 Q289 195 289 88 Z M530 1300 L399 754 Q368 627 346 520 L713 520 Q691 627 661 754 L530 1300 Z " />
<glyph glyph-name="Aacute" unicode="&#xc1;" horiz-adv-x="1060" d="M856 1950 L621 1705 L457 1705 L636 1950 L856 1950 Z M289 88 L289 0 L113 0 L113 88 Q113 315 248 852 L408 1490 L651 1490 L812 852 Q947 315 947 88 L947 0 L771 0 L771 88 Q771 195 741 370 L318 370 Q289 195 289 88 Z M530 1300 L399 754 Q368 627 346 520 L713 520 Q691 627 661 754 L530 1300 Z " />
<glyph glyph-name="Acircumflex" unicode="&#xc2;" horiz-adv-x="1060" d="M823 1685 L668 1685 L531 1827 L393 1685 L238 1685 L451 1950 L610 1950 L823 1685 Z M289 88 L289 0 L113 0 L113 88 Q113 315 248 852 L408 1490 L651 1490 L812 852 Q947 315 947 88 L947 0 L771 0 L771 88 Q771 195 741 370 L318 370 Q289 195 289 88 Z M530 1300 L399 754 Q368 627 346 520 L713 520 Q691 627 661 754 L530 1300 Z " />
<glyph glyph-name="Atilde" unicode="&#xc3;" horiz-adv-x="1060" d="M888 1880 Q808 1684 650 1684 Q580 1684 503 1742.5 Q426 1801 388 1801 Q324 1801 242 1690 L155 1763 Q260 1950 398 1950 Q458 1950 533 1890.5 Q608 1831 660 1831 Q724 1831 785 1941 L888 1880 Z M289 88 L289 0 L113 0 L113 88 Q113 315 248 852 L408 1490 L651 1490 L812 852 Q947 315 947 88 L947 0 L771 0 L771 88 Q771 195 741 370 L318 370 Q289 195 289 88 Z M530 1300 L399 754 Q368 627 346 520 L713 520 Q691 627 661 754 L530 1300 Z " />
<glyph glyph-name="Adieresis" unicode="&#xc4;" horiz-adv-x="1060" d="M839 1836 Q839 1789 805.5 1754.5 Q772 1720 723 1720 Q674 1720 641.5 1754.5 Q609 1789 609 1836 Q609 1882 641.5 1916 Q674 1950 723 1950 Q772 1950 805.5 1916 Q839 1882 839 1836 Z M452 1836 Q452 1789 419 1754.5 Q386 1720 337 1720 Q288 1720 255 1754.5 Q222 1789 222 1836 Q222 1882 255 1916 Q288 1950 337 1950 Q386 1950 419 1916 Q452 1882 452 1836 Z M289 88 L289 0 L113 0 L113 88 Q113 315 248 852 L408 1490 L651 1490 L812 852 Q947 315 947 88 L947 0 L771 0 L771 88 Q771 195 741 370 L318 370 Q289 195 289 88 Z M530 1300 L399 754 Q368 627 346 520 L713 520 Q691 627 661 754 L530 1300 Z " />
<glyph glyph-name="Aring" unicode="&#xc5;" horiz-adv-x="1060" d="M752 1770 Q752 1695 700 1642.5 Q648 1590 531 1590 Q414 1590 362 1642.5 Q310 1695 310 1770 Q310 1845 362 1897.5 Q414 1950 531 1950 Q648 1950 700 1897.5 Q752 1845 752 1770 Z M628 1770 Q628 1800 606 1818 Q584 1836 531 1836 Q477 1836 455.5 1818 Q434 1800 434 1770 Q434 1740 455.5 1722 Q477 1704 531 1704 Q584 1704 606 1722 Q628 1740 628 1770 Z M289 88 L289 0 L113 0 L113 88 Q113 315 248 852 L398 1450 L661 1450 L812 852 Q947 315 947 88 L947 0 L771 0 L771 88 Q771 195 741 370 L318 370 Q289 195 289 88 Z M530 1300 L399 754 Q368 627 346 520 L713 520 Q691 627 661 754 L530 1300 Z " />
<glyph glyph-name="AE" unicode="&#xc6;" horiz-adv-x="1060" d="M990 0 L483 0 L483 547 L245 547 L245 0 L69 0 L69 569 L397 1580 L990 1580 L990 1424 L659 1424 L659 905 L949 905 L949 748 L659 748 L659 157 L990 157 L990 0 Z M483 704 L483 1311 L284 704 L483 704 Z " />
<glyph glyph-name="Ccedilla" unicode="&#xc7;" horiz-adv-x="1060" d="M928 234 Q781 -20 527 -20 Q355 -20 237 95 Q119 210 119 519 L119 1063 Q119 1362 237 1482 Q355 1602 525 1602 Q791 1602 918 1346 L774 1259 Q695 1442 526 1442 Q427 1442 361.5 1370 Q296 1298 296 1063 L296 519 Q296 284 361.5 212 Q427 140 526 140 Q695 140 784 331 L928 234 Z M353 -254 Q527 -269 527 -197 Q527 -137 426 -144 L473 -50 Q687 -58 687 -195 Q687 -279 619.5 -327 Q552 -375 353 -375 L353 -254 Z " />
<glyph glyph-name="Egrave" unicode="&#xc8;" horiz-adv-x="1060" d="M600 1705 L436 1705 L201 1950 L421 1950 L600 1705 Z M924 0 L196 0 L196 1490 L924 1490 L924 1340 L372 1340 L372 868 L780 868 L780 718 L372 718 L372 150 L924 150 L924 0 Z " />
<glyph glyph-name="Eacute" unicode="&#xc9;" horiz-adv-x="1060" d="M861 1950 L626 1705 L462 1705 L641 1950 L861 1950 Z M924 0 L196 0 L196 1490 L924 1490 L924 1340 L372 1340 L372 868 L780 868 L780 718 L372 718 L372 150 L924 150 L924 0 Z " />
<glyph glyph-name="Ecircumflex" unicode="&#xca;" horiz-adv-x="1060" d="M823 1685 L668 1685 L531 1827 L393 1685 L238 1685 L451 1950 L610 1950 L823 1685 Z M924 0 L196 0 L196 1490 L924 1490 L924 1340 L372 1340 L372 868 L780 868 L780 718 L372 718 L372 150 L924 150 L924 0 Z " />
<glyph glyph-name="Edieresis" unicode="&#xcb;" horiz-adv-x="1060" d="M839 1836 Q839 1789 805.5 1754.5 Q772 1720 723 1720 Q674 1720 641.5 1754.5 Q609 1789 609 1836 Q609 1882 641.5 1916 Q674 1950 723 1950 Q772 1950 805.5 1916 Q839 1882 839 1836 Z M452 1836 Q452 1789 419 1754.5 Q386 1720 337 1720 Q288 1720 255 1754.5 Q222 1789 222 1836 Q222 1882 255 1916 Q288 1950 337 1950 Q386 1950 419 1916 Q452 1882 452 1836 Z M924 0 L196 0 L196 1490 L924 1490 L924 1340 L372 1340 L372 868 L780 868 L780 718 L372 718 L372 150 L924 150 L924 0 Z " />
<glyph glyph-name="Igrave" unicode="&#xcc;" horiz-adv-x="1060" d="M575 1705 L411 1705 L176 1950 L396 1950 L575 1705 Z M867 0 L192 0 L192 150 L441 150 L441 1340 L245 1340 L245 1490 L814 1490 L814 1340 L618 1340 L618 150 L867 150 L867 0 Z " />
<glyph glyph-name="Iacute" unicode="&#xcd;" horiz-adv-x="1060" d="M876 1950 L641 1705 L477 1705 L656 1950 L876 1950 Z M867 0 L192 0 L192 150 L441 150 L441 1340 L245 1340 L245 1490 L814 1490 L814 1340 L618 1340 L618 150 L867 150 L867 0 Z " />
<glyph glyph-name="Icircumflex" unicode="&#xce;" horiz-adv-x="1060" d="M823 1685 L668 1685 L531 1827 L393 1685 L238 1685 L451 1950 L610 1950 L823 1685 Z M867 0 L192 0 L192 150 L441 150 L441 1340 L245 1340 L245 1490 L814 1490 L814 1340 L618 1340 L618 150 L867 150 L867 0 Z " />
<glyph glyph-name="Idieresis" unicode="&#xcf;" horiz-adv-x="1060" d="M838 1836 Q838 1789 804.5 1754.5 Q771 1720 722 1720 Q673 1720 640.5 1754.5 Q608 1789 608 1836 Q608 1882 640.5 1916 Q673 1950 722 1950 Q771 1950 804.5 1916 Q838 1882 838 1836 Z M451 1836 Q451 1789 418 1754.5 Q385 1720 336 1720 Q287 1720 254 1754.5 Q221 1789 221 1836 Q221 1882 254 1916 Q287 1950 336 1950 Q385 1950 418 1916 Q451 1882 451 1836 Z M867 0 L192 0 L192 150 L441 150 L441 1340 L245 1340 L245 1490 L814 1490 L814 1340 L618 1340 L618 150 L867 150 L867 0 Z " />
<glyph glyph-name="Eth" unicode="&#xd0;" horiz-adv-x="1060" d="M939 648 Q939 339 796.5 169.5 Q654 0 412 0 L181 0 L181 771 L67 771 L67 905 L181 905 L181 1580 L412 1580 Q654 1580 796.5 1420.5 Q939 1261 939 953 L939 648 Z M544 771 L356 771 L356 157 L414 157 Q571 157 664 279 Q757 401 757 648 L757 953 Q757 1200 664 1312 Q571 1424 414 1424 L356 1424 L356 905 L544 905 L544 771 Z " />
<glyph glyph-name="Ntilde" unicode="&#xd1;" horiz-adv-x="1060" d="M897 1880 Q817 1684 659 1684 Q589 1684 512 1742.5 Q435 1801 397 1801 Q333 1801 251 1690 L164 1763 Q269 1950 407 1950 Q467 1950 542 1890.5 Q617 1831 669 1831 Q733 1831 794 1941 L897 1880 Z M910 0 L748 0 L734 388 L286 1244 L326 437 L326 0 L150 0 L150 1490 L326 1490 L774 634 L734 1441 L734 1490 L910 1490 L910 0 Z " />
<glyph glyph-name="Ograve" unicode="&#xd2;" horiz-adv-x="1060" d="M595 1705 L431 1705 L196 1950 L416 1950 L595 1705 Z M142 479 L142 1011 Q142 1270 250 1390 Q358 1510 530 1510 Q702 1510 810 1390 Q918 1270 918 1011 L918 479 Q918 220 810 100 Q702 -20 530 -20 Q358 -19 250 100.5 Q142 220 142 479 Z M319 479 Q319 284 374.5 212 Q430 140 529 140 Q628 140 684.5 212.5 Q741 285 741 479 L741 1011 Q741 1205 684.5 1277.5 Q628 1350 529 1350 Q430 1350 374.5 1278 Q319 1206 319 1011 L319 479 Z " />
<glyph glyph-name="Oacute" unicode="&#xd3;" horiz-adv-x="1060" d="M876 1950 L641 1705 L477 1705 L656 1950 L876 1950 Z M142 479 L142 1011 Q142 1270 250 1390 Q358 1510 530 1510 Q702 1510 810 1390 Q918 1270 918 1011 L918 479 Q918 220 810 100 Q702 -20 530 -20 Q358 -19 250 100.5 Q142 220 142 479 Z M319 479 Q319 284 374.5 212 Q430 140 529 140 Q628 140 684.5 212.5 Q741 285 741 479 L741 1011 Q741 1205 684.5 1277.5 Q628 1350 529 1350 Q430 1350 374.5 1278 Q319 1206 319 1011 L319 479 Z " />
<glyph glyph-name="Ocircumflex" unicode="&#xd4;" horiz-adv-x="1060" d="M822 1685 L667 1685 L530 1827 L392 1685 L237 1685 L450 1950 L609 1950 L822 1685 Z M142 479 L142 1011 Q142 1270 250 1390 Q358 1510 530 1510 Q702 1510 810 1390 Q918 1270 918 1011 L918 479 Q918 220 810 100 Q702 -20 530 -20 Q358 -19 250 100.5 Q142 220 142 479 Z M319 479 Q319 284 374.5 212 Q430 140 529 140 Q628 140 684.5 212.5 Q741 285 741 479 L741 1011 Q741 1205 684.5 1277.5 Q628 1350 529 1350 Q430 1350 374.5 1278 Q319 1206 319 1011 L319 479 Z " />
<glyph glyph-name="Otilde" unicode="&#xd5;" horiz-adv-x="1060" d="M897 1880 Q817 1684 659 1684 Q589 1684 512 1742.5 Q435 1801 397 1801 Q333 1801 251 1690 L164 1763 Q269 1950 407 1950 Q467 1950 542 1890.5 Q617 1831 669 1831 Q733 1831 794 1941 L897 1880 Z M142 479 L142 1011 Q142 1270 250 1390 Q358 1510 530 1510 Q702 1510 810 1390 Q918 1270 918 1011 L918 479 Q918 220 810 100 Q702 -20 530 -20 Q358 -19 250 100.5 Q142 220 142 479 Z M319 479 Q319 284 374.5 212 Q430 140 529 140 Q628 140 684.5 212.5 Q741 285 741 479 L741 1011 Q741 1205 684.5 1277.5 Q628 1350 529 1350 Q430 1350 374.5 1278 Q319 1206 319 1011 L319 479 Z " />
<glyph glyph-name="Odieresis" unicode="&#xd6;" horiz-adv-x="1060" d="M839 1836 Q839 1789 805.5 1754.5 Q772 1720 723 1720 Q674 1720 641.5 1754.5 Q609 1789 609 1836 Q609 1882 641.5 1916 Q674 1950 723 1950 Q772 1950 805.5 1916 Q839 1882 839 1836 Z M452 1836 Q452 1789 419 1754.5 Q386 1720 337 1720 Q288 1720 255 1754.5 Q222 1789 222 1836 Q222 1882 255 1916 Q288 1950 337 1950 Q386 1950 419 1916 Q452 1882 452 1836 Z M142 479 L142 1011 Q142 1270 250 1390 Q358 1510 530 1510 Q702 1510 810 1390 Q918 1270 918 1011 L918 479 Q918 220 810 100 Q702 -20 530 -20 Q358 -19 250 100.5 Q142 220 142 479 Z M319 479 Q319 284 374.5 212 Q430 140 529 140 Q628 140 684.5 212.5 Q741 285 741 479 L741 1011 Q741 1205 684.5 1277.5 Q628 1350 529 1350 Q430 1350 374.5 1278 Q319 1206 319 1011 L319 479 Z " />
<glyph glyph-name="multiply" unicode="&#xd7;" horiz-adv-x="1060" d="M831 356 L531 658 L231 356 L106 482 L407 781 L106 1081 L231 1207 L531 905 L831 1207 L954 1081 L657 781 L954 482 L831 356 Z " />
<glyph glyph-name="Oslash" unicode="&#xd8;" horiz-adv-x="1060" d="M782 1731 L742 1539 Q918 1427 918 1053 L918 548 Q918 239 810 109.5 Q702 -20 530 -20 Q471 -20 419 -3 L383 -180 L274 -156 L317 51 Q142 170 142 548 L142 1053 Q142 1352 250 1477 Q358 1602 530 1602 Q587 1602 639 1587 L674 1755 L782 1731 Z M741 548 L741 1053 Q741 1260 701 1339 L452 153 Q488 137 531 137 Q628 137 684.5 219 Q741 301 741 548 Z M529 1445 Q430 1445 374.5 1368 Q319 1291 319 1053 L319 548 Q319 333 358 247 L606 1431 Q570 1445 529 1445 Z " />
<glyph glyph-name="Ugrave" unicode="&#xd9;" horiz-adv-x="1060" d="M586 1705 L422 1705 L187 1950 L407 1950 L586 1705 Z M910 474 Q910 218 799.5 99 Q689 -20 530 -20 Q371 -20 260.5 99 Q150 218 150 474 L150 1490 L326 1490 L326 474 Q326 278 384.5 209 Q443 140 529 140 Q615 140 674 209 Q733 278 733 474 L733 1490 L910 1490 L910 474 Z " />
<glyph glyph-name="Uacute" unicode="&#xda;" horiz-adv-x="1060" d="M877 1950 L642 1705 L478 1705 L657 1950 L877 1950 Z M910 474 Q910 218 799.5 99 Q689 -20 530 -20 Q371 -20 260.5 99 Q150 218 150 474 L150 1490 L326 1490 L326 474 Q326 278 384.5 209 Q443 140 529 140 Q615 140 674 209 Q733 278 733 474 L733 1490 L910 1490 L910 474 Z " />
<glyph glyph-name="Ucircumflex" unicode="&#xdb;" horiz-adv-x="1060" d="M823 1685 L668 1685 L531 1827 L393 1685 L238 1685 L451 1950 L610 1950 L823 1685 Z M910 474 Q910 218 799.5 99 Q689 -20 530 -20 Q371 -20 260.5 99 Q150 218 150 474 L150 1490 L326 1490 L326 474 Q326 278 384.5 209 Q443 140 529 140 Q615 140 674 209 Q733 278 733 474 L733 1490 L910 1490 L910 474 Z " />
<glyph glyph-name="Udieresis" unicode="&#xdc;" horiz-adv-x="1060" d="M839 1836 Q839 1789 805.5 1754.5 Q772 1720 723 1720 Q674 1720 641.5 1754.5 Q609 1789 609 1836 Q609 1882 641.5 1916 Q674 1950 723 1950 Q772 1950 805.5 1916 Q839 1882 839 1836 Z M452 1836 Q452 1789 419 1754.5 Q386 1720 337 1720 Q288 1720 255 1754.5 Q222 1789 222 1836 Q222 1882 255 1916 Q288 1950 337 1950 Q386 1950 419 1916 Q452 1882 452 1836 Z M910 474 Q910 218 799.5 99 Q689 -20 530 -20 Q371 -20 260.5 99 Q150 218 150 474 L150 1490 L326 1490 L326 474 Q326 278 384.5 209 Q443 140 529 140 Q615 140 674 209 Q733 278 733 474 L733 1490 L910 1490 L910 474 Z " />
<glyph glyph-name="Yacute" unicode="&#xdd;" horiz-adv-x="1060" d="M618 0 L442 0 L442 673 L272 983 Q98 1300 98 1507 L98 1580 L274 1580 L274 1507 Q274 1329 406 1072 L530 825 L654 1072 Q786 1329 786 1507 L786 1580 L962 1580 L962 1507 Q962 1300 788 983 L618 673 L618 0 Z M846 1950 L611 1705 L447 1705 L626 1950 L846 1950 Z " />
<glyph glyph-name="Thorn" unicode="&#xde;" horiz-adv-x="1060" d="M915 772 Q915 590 802 475.5 Q689 361 500 361 L321 361 L321 0 L145 0 L145 1580 L321 1580 L321 1215 L500 1215 Q689 1215 802 1100.5 Q915 986 915 805 L915 772 Z M738 749 L738 827 Q738 934 676.5 996 Q615 1058 499 1058 L321 1058 L321 518 L499 518 Q615 518 676.5 580 Q738 642 738 749 Z " />
<glyph glyph-name="germandbls" unicode="&#xdf;" horiz-adv-x="1060" d="M461 -5 L461 152 L539 152 Q665 152 721.5 201.5 Q778 251 778 338 Q778 444 621.5 590 Q465 736 465 856 Q465 960 576.5 1063.5 Q688 1167 688 1253 Q688 1330 636.5 1382 Q585 1434 509 1434 Q423 1434 372.5 1377.5 Q322 1321 322 1193 L322 0 L145 0 L145 1190 Q145 1371 248 1485.5 Q351 1600 510 1600 Q669 1600 767 1495.5 Q865 1391 865 1253 Q865 1119 763 1024 Q661 929 661 856 Q660 779 807.5 642 Q955 505 955 338 Q955 189 852 92 Q749 -5 540 -5 L461 -5 Z " />
<glyph glyph-name="agrave" unicode="&#xe0;" horiz-adv-x="1060" d="M903 0 L727 0 L727 132 Q615 -20 444 -20 Q301 -20 212.5 78.5 Q124 177 124 326 Q124 479 234.5 582.5 Q345 686 559 686 L727 686 L727 813 Q727 1034 517 1034 Q362 1034 285 897 L152 997 Q290 1194 518 1194 Q687 1194 795 1097.5 Q903 1001 903 813 L903 0 Z M727 275 L727 544 L559 544 Q433 544 369 485 Q305 426 305 326 Q305 140 488 140 Q632 140 727 275 Z M591 1335 L427 1335 L192 1580 L412 1580 L591 1335 Z " />
<glyph glyph-name="aacute" unicode="&#xe1;" horiz-adv-x="1060" d="M903 0 L727 0 L727 132 Q615 -20 444 -20 Q301 -20 212.5 78.5 Q124 177 124 326 Q124 479 234.5 582.5 Q345 686 559 686 L727 686 L727 813 Q727 1034 517 1034 Q362 1034 285 897 L152 997 Q290 1194 518 1194 Q687 1194 795 1097.5 Q903 1001 903 813 L903 0 Z M727 275 L727 544 L559 544 Q433 544 369 485 Q305 426 305 326 Q305 140 488 140 Q632 140 727 275 Z M861 1580 L626 1335 L462 1335 L641 1580 L861 1580 Z " />
<glyph glyph-name="acircumflex" unicode="&#xe2;" horiz-adv-x="1060" d="M901 0 L725 0 L725 132 Q613 -20 442 -20 Q299 -20 210.5 78.5 Q122 177 122 326 Q122 479 232.5 582.5 Q343 686 557 686 L725 686 L725 813 Q725 1034 515 1034 Q360 1034 283 897 L150 997 Q288 1194 516 1194 Q685 1194 793 1097.5 Q901 1001 901 813 L901 0 Z M725 275 L725 544 L557 544 Q431 544 367 485 Q303 426 303 326 Q303 140 486 140 Q630 140 725 275 Z M818 1315 L663 1315 L526 1457 L388 1315 L233 1315 L446 1580 L605 1580 L818 1315 Z " />
<glyph glyph-name="atilde" unicode="&#xe3;" horiz-adv-x="1060" d="M903 0 L727 0 L727 132 Q615 -20 444 -20 Q301 -20 212.5 78.5 Q124 177 124 326 Q124 479 234.5 582.5 Q345 686 559 686 L727 686 L727 813 Q727 1034 517 1034 Q362 1034 285 897 L152 997 Q290 1194 518 1194 Q687 1194 795 1097.5 Q903 1001 903 813 L903 0 Z M727 275 L727 544 L559 544 Q433 544 369 485 Q305 426 305 326 Q305 140 488 140 Q632 140 727 275 Z M897 1530 Q817 1334 659 1334 Q589 1334 512 1392.5 Q435 1451 397 1451 Q333 1451 251 1340 L164 1413 Q269 1600 407 1600 Q467 1600 542 1540.5 Q617 1481 669 1481 Q733 1481 794 1591 L897 1530 Z " />
<glyph glyph-name="adieresis" unicode="&#xe4;" horiz-adv-x="1060" d="M903 0 L727 0 L727 132 Q615 -20 444 -20 Q301 -20 212.5 78.5 Q124 177 124 326 Q124 479 234.5 582.5 Q345 686 559 686 L727 686 L727 813 Q727 1034 517 1034 Q362 1034 285 897 L152 997 Q290 1194 518 1194 Q687 1194 795 1097.5 Q903 1001 903 813 L903 0 Z M727 275 L727 544 L559 544 Q433 544 369 485 Q305 426 305 326 Q305 140 488 140 Q632 140 727 275 Z M839 1466 Q839 1419 805.5 1384.5 Q772 1350 723 1350 Q674 1350 641.5 1384.5 Q609 1419 609 1466 Q609 1512 641.5 1546 Q674 1580 723 1580 Q772 1580 805.5 1546 Q839 1512 839 1466 Z M452 1466 Q452 1419 419 1384.5 Q386 1350 337 1350 Q288 1350 255 1384.5 Q222 1419 222 1466 Q222 1512 255 1546 Q288 1580 337 1580 Q386 1580 419 1546 Q452 1512 452 1466 Z " />
<glyph glyph-name="aring" unicode="&#xe5;" horiz-adv-x="1060" d="M903 0 L727 0 L727 132 Q615 -20 444 -20 Q301 -20 212.5 78.5 Q124 177 124 326 Q124 479 234.5 582.5 Q345 686 559 686 L727 686 L727 813 Q727 1034 517 1034 Q362 1034 285 897 L152 997 Q290 1194 518 1194 Q687 1194 795 1097.5 Q903 1001 903 813 L903 0 Z M727 275 L727 544 L559 544 Q433 544 369 485 Q305 426 305 326 Q305 140 488 140 Q632 140 727 275 Z M752 1420 Q752 1345 700 1292.5 Q648 1240 531 1240 Q414 1240 362 1292.5 Q310 1345 310 1420 Q310 1495 362 1547.5 Q414 1600 531 1600 Q648 1600 700 1547.5 Q752 1495 752 1420 Z M628 1420 Q628 1450 606 1468 Q584 1486 531 1486 Q477 1486 455.5 1468 Q434 1450 434 1420 Q434 1390 455.5 1372 Q477 1354 531 1354 Q584 1354 606 1372 Q628 1390 628 1420 Z " />
<glyph glyph-name="ae" unicode="&#xe6;" horiz-adv-x="1060" d="M1020 568 L614 568 L614 375 Q614 110 749 110 Q833 110 888 242 L1008 174 Q925 -20 749 -20 Q605 -20 534 116 Q462 -20 301 -20 Q182 -20 110.5 75.5 Q39 171 39 342 Q39 515 125.5 602 Q212 689 382 689 L446 689 L446 878 Q446 1063 321 1063 Q227 1063 182 942 L52 999 Q135 1194 321 1194 Q472 1194 534 1063 Q604 1194 749 1194 Q868 1194 944 1098 Q1020 1002 1020 767 L1020 568 Z M853 689 L853 797 Q853 1063 734 1063 Q613 1063 613 797 L613 689 L853 689 Z M446 369 L446 568 L382 568 Q206 568 206 347 Q206 110 326 110 Q446 110 446 369 Z " />
<glyph glyph-name="ccedilla" unicode="&#xe7;" horiz-adv-x="1060" d="M923 195 Q788 -20 538 -20 Q358 -20 242 108.5 Q126 237 126 514 L126 659 Q126 936 242 1065 Q358 1194 538 1194 Q788 1194 923 977 L780 887 Q693 1034 548 1034 Q436 1034 369.5 959.5 Q303 885 303 659 L303 514 Q303 289 369.5 214.5 Q436 140 548 140 Q693 140 780 286 L923 195 Z M351 -254 Q525 -269 525 -197 Q525 -137 424 -144 L471 -50 Q685 -58 685 -195 Q685 -279 617.5 -327 Q550 -375 351 -375 L351 -254 Z " />
<glyph glyph-name="egrave" unicode="&#xe8;" horiz-adv-x="1060" d="M924 551 L311 551 L311 516 Q311 289 377.5 214.5 Q444 140 557 140 Q702 140 788 286 L931 195 Q796 -20 546 -20 Q366 -20 250.5 108.5 Q135 237 135 516 L135 657 Q135 936 250.5 1065 Q366 1194 530 1194 Q704 1194 814 1075 Q924 956 924 687 L924 551 Z M748 706 Q748 885 686.5 959.5 Q625 1034 530 1034 Q439 1034 375 959.5 Q311 885 311 706 L748 706 Z M574 1335 L410 1335 L175 1580 L395 1580 L574 1335 Z " />
<glyph glyph-name="eacute" unicode="&#xe9;" horiz-adv-x="1060" d="M924 551 L311 551 L311 516 Q311 289 377.5 214.5 Q444 140 557 140 Q702 140 788 286 L931 195 Q796 -20 546 -20 Q366 -20 250.5 108.5 Q135 237 135 516 L135 657 Q135 936 250.5 1065 Q366 1194 530 1194 Q704 1194 814 1075 Q924 956 924 687 L924 551 Z M748 706 Q748 885 686.5 959.5 Q625 1034 530 1034 Q439 1034 375 959.5 Q311 885 311 706 L748 706 Z M864 1580 L629 1335 L465 1335 L644 1580 L864 1580 Z " />
<glyph glyph-name="ecircumflex" unicode="&#xea;" horiz-adv-x="1060" d="M924 551 L311 551 L311 516 Q311 289 377.5 214.5 Q444 140 557 140 Q702 140 788 286 L931 195 Q796 -20 546 -20 Q366 -20 250.5 108.5 Q135 237 135 516 L135 657 Q135 936 250.5 1065 Q366 1194 530 1194 Q704 1194 814 1075 Q924 956 924 687 L924 551 Z M748 706 Q748 885 686.5 959.5 Q625 1034 530 1034 Q439 1034 375 959.5 Q311 885 311 706 L748 706 Z M823 1315 L668 1315 L531 1457 L393 1315 L238 1315 L451 1580 L610 1580 L823 1315 Z " />
<glyph glyph-name="edieresis" unicode="&#xeb;" horiz-adv-x="1060" d="M924 551 L311 551 L311 516 Q311 289 377.5 214.5 Q444 140 557 140 Q702 140 788 286 L931 195 Q796 -20 546 -20 Q366 -20 250.5 108.5 Q135 237 135 516 L135 657 Q135 936 250.5 1065 Q366 1194 530 1194 Q704 1194 814 1075 Q924 956 924 687 L924 551 Z M748 706 Q748 885 686.5 959.5 Q625 1034 530 1034 Q439 1034 375 959.5 Q311 885 311 706 L748 706 Z M839 1466 Q839 1419 805.5 1384.5 Q772 1350 723 1350 Q674 1350 641.5 1384.5 Q609 1419 609 1466 Q609 1512 641.5 1546 Q674 1580 723 1580 Q772 1580 805.5 1546 Q839 1512 839 1466 Z M452 1466 Q452 1419 419 1384.5 Q386 1350 337 1350 Q288 1350 255 1384.5 Q222 1419 222 1466 Q222 1512 255 1546 Q288 1580 337 1580 Q386 1580 419 1546 Q452 1512 452 1466 Z " />
<glyph glyph-name="igrave" unicode="&#xec;" horiz-adv-x="1060" d="M879 0 L200 0 L200 157 L451 157 L451 1015 L250 1015 L250 1172 L628 1172 L628 157 L879 157 L879 0 Z M583 1335 L419 1335 L184 1580 L404 1580 L583 1335 Z " />
<glyph glyph-name="iacute" unicode="&#xed;" horiz-adv-x="1060" d="M876 0 L197 0 L197 157 L448 157 L448 1015 L247 1015 L247 1172 L625 1172 L625 157 L876 157 L876 0 Z M855 1580 L620 1335 L456 1335 L635 1580 L855 1580 Z " />
<glyph glyph-name="icircumflex" unicode="&#xee;" horiz-adv-x="1060" d="M891 0 L212 0 L212 157 L463 157 L463 1015 L262 1015 L262 1172 L640 1172 L640 157 L891 157 L891 0 Z M804 1315 L649 1315 L512 1457 L374 1315 L219 1315 L432 1580 L591 1580 L804 1315 Z " />
<glyph glyph-name="idieresis" unicode="&#xef;" horiz-adv-x="1060" d="M883 0 L204 0 L204 157 L455 157 L455 1015 L254 1015 L254 1172 L632 1172 L632 157 L883 157 L883 0 Z M800 1466 Q800 1419 766.5 1384.5 Q733 1350 684 1350 Q635 1350 602.5 1384.5 Q570 1419 570 1466 Q570 1512 602.5 1546 Q635 1580 684 1580 Q733 1580 766.5 1546 Q800 1512 800 1466 Z M413 1466 Q413 1419 380 1384.5 Q347 1350 298 1350 Q249 1350 216 1384.5 Q183 1419 183 1466 Q183 1512 216 1546 Q249 1580 298 1580 Q347 1580 380 1546 Q413 1512 413 1466 Z " />
<glyph glyph-name="eth" unicode="&#xf0;" horiz-adv-x="1060" d="M954 1431 L816 1382 Q874 1256 874 1061 L874 505 Q874 225 762 102.5 Q650 -20 491 -20 Q301 -20 200.5 102.5 Q100 225 100 505 L100 581 Q100 858 200.5 981.5 Q301 1105 441 1105 Q619 1105 699 952 L699 1061 Q699 1227 651 1325 L396 1236 L352 1371 L569 1446 Q503 1520 417 1569 L512 1710 Q649 1631 742 1506 L911 1565 L954 1431 Z M699 505 L699 712 Q659 947 484 947 Q385 947 333 871 Q281 795 281 581 L281 505 Q281 287 333 212 Q385 137 491 137 Q577 137 638 212 Q699 287 699 505 Z " />
<glyph glyph-name="ntilde" unicode="&#xf1;" horiz-adv-x="1060" d="M915 0 L739 0 L739 760 Q739 912 691.5 971.5 Q644 1031 561 1031 Q387 1031 331 793 L331 0 L155 0 L155 1172 L331 1172 L331 1022 Q444 1194 604 1194 Q735 1194 825 1097 Q915 1000 915 770 L915 0 Z M888 1530 Q808 1334 650 1334 Q580 1334 503 1392.5 Q426 1451 388 1451 Q324 1451 242 1340 L155 1413 Q260 1600 398 1600 Q458 1600 533 1540.5 Q608 1481 660 1481 Q724 1481 785 1591 L888 1530 Z " />
<glyph glyph-name="ograve" unicode="&#xf2;" horiz-adv-x="1060" d="M925 507 Q925 238 814.5 109 Q704 -20 530 -20 Q356 -20 246 109 Q136 238 136 507 L136 667 Q136 936 246 1065 Q356 1194 530 1194 Q704 1194 814.5 1065 Q925 936 925 667 L925 507 Z M749 507 L749 667 Q749 875 687.5 954.5 Q626 1034 530 1034 Q434 1034 373 954.5 Q312 875 312 667 L312 507 Q312 299 373 219.5 Q434 140 530 140 Q626 140 687.5 219.5 Q749 299 749 507 Z M584 1335 L420 1335 L185 1580 L405 1580 L584 1335 Z " />
<glyph glyph-name="oacute" unicode="&#xf3;" horiz-adv-x="1060" d="M925 507 Q925 238 814.5 109 Q704 -20 530 -20 Q356 -20 246 109 Q136 238 136 507 L136 667 Q136 936 246 1065 Q356 1194 530 1194 Q704 1194 814.5 1065 Q925 936 925 667 L925 507 Z M749 507 L749 667 Q749 875 687.5 954.5 Q626 1034 530 1034 Q434 1034 373 954.5 Q312 875 312 667 L312 507 Q312 299 373 219.5 Q434 140 530 140 Q626 140 687.5 219.5 Q749 299 749 507 Z M874 1580 L639 1335 L475 1335 L654 1580 L874 1580 Z " />
<glyph glyph-name="ocircumflex" unicode="&#xf4;" horiz-adv-x="1060" d="M926 507 Q926 238 815.5 109 Q705 -20 531 -20 Q357 -20 247 109 Q137 238 137 507 L137 667 Q137 936 247 1065 Q357 1194 531 1194 Q705 1194 815.5 1065 Q926 936 926 667 L926 507 Z M750 507 L750 667 Q750 875 688.5 954.5 Q627 1034 531 1034 Q435 1034 374 954.5 Q313 875 313 667 L313 507 Q313 299 374 219.5 Q435 140 531 140 Q627 140 688.5 219.5 Q750 299 750 507 Z M823 1315 L668 1315 L531 1457 L393 1315 L238 1315 L451 1580 L610 1580 L823 1315 Z " />
<glyph glyph-name="otilde" unicode="&#xf5;" horiz-adv-x="1060" d="M925 507 Q925 238 814.5 109 Q704 -20 530 -20 Q356 -20 246 109 Q136 238 136 507 L136 667 Q136 936 246 1065 Q356 1194 530 1194 Q704 1194 814.5 1065 Q925 936 925 667 L925 507 Z M749 507 L749 667 Q749 875 687.5 954.5 Q626 1034 530 1034 Q434 1034 373 954.5 Q312 875 312 667 L312 507 Q312 299 373 219.5 Q434 140 530 140 Q626 140 687.5 219.5 Q749 299 749 507 Z M897 1530 Q817 1334 659 1334 Q589 1334 512 1392.5 Q435 1451 397 1451 Q333 1451 251 1340 L164 1413 Q269 1600 407 1600 Q467 1600 542 1540.5 Q617 1481 669 1481 Q733 1481 794 1591 L897 1530 Z " />
<glyph glyph-name="odieresis" unicode="&#xf6;" horiz-adv-x="1060" d="M925 507 Q925 238 814.5 109 Q704 -20 530 -20 Q356 -20 246 109 Q136 238 136 507 L136 667 Q136 936 246 1065 Q356 1194 530 1194 Q704 1194 814.5 1065 Q925 936 925 667 L925 507 Z M749 507 L749 667 Q749 875 687.5 954.5 Q626 1034 530 1034 Q434 1034 373 954.5 Q312 875 312 667 L312 507 Q312 299 373 219.5 Q434 140 530 140 Q626 140 687.5 219.5 Q749 299 749 507 Z M839 1466 Q839 1419 805.5 1384.5 Q772 1350 723 1350 Q674 1350 641.5 1384.5 Q609 1419 609 1466 Q609 1512 641.5 1546 Q674 1580 723 1580 Q772 1580 805.5 1546 Q839 1512 839 1466 Z M452 1466 Q452 1419 419 1384.5 Q386 1350 337 1350 Q288 1350 255 1384.5 Q222 1419 222 1466 Q222 1512 255 1546 Q288 1580 337 1580 Q386 1580 419 1546 Q452 1512 452 1466 Z " />
<glyph glyph-name="divide" unicode="&#xf7;" horiz-adv-x="1060" d="M1000 703 L59 703 L59 879 L1000 879 L1000 703 Z M704 1222 Q704 1151 654.5 1100 Q605 1049 530 1049 Q454 1049 405.5 1100 Q357 1151 357 1222 Q357 1292 405.5 1343.5 Q454 1395 530 1395 Q605 1395 654.5 1343 Q704 1291 704 1222 Z M703 357 Q703 286 653.5 235 Q604 184 529 184 Q453 184 404.5 235 Q356 286 356 357 Q356 427 404.5 478.5 Q453 530 529 530 Q604 530 653.5 478 Q703 426 703 357 Z " />
<glyph glyph-name="oslash" unicode="&#xf8;" horiz-adv-x="1060" d="M807 1308 L750 1124 Q924 1002 924 677 L924 505 Q924 247 814 113.5 Q704 -20 530 -20 Q464 -20 406 0 L355 -168 L249 -134 L307 56 Q135 195 135 515 L135 657 Q135 916 245.5 1055 Q356 1194 530 1194 Q594 1194 651 1175 L702 1342 L807 1308 Z M748 505 L748 677 Q748 881 697 949 L453 152 Q488 137 530 137 Q626 137 687 213.5 Q748 290 748 505 Z M530 1036 Q434 1036 372.5 954.5 Q311 873 311 657 L311 515 Q311 315 362 234 L604 1023 Q569 1036 530 1036 Z " />
<glyph glyph-name="ugrave" unicode="&#xf9;" horiz-adv-x="1060" d="M910 0 L734 0 L734 152 Q621 -20 461 -20 Q330 -20 240 78.5 Q150 177 150 432 L150 1172 L326 1172 L326 432 Q326 261 373.5 200.5 Q421 140 504 140 Q678 140 734 369 L734 1172 L910 1172 L910 0 Z M594 1335 L430 1335 L195 1580 L415 1580 L594 1335 Z " />
<glyph glyph-name="uacute" unicode="&#xfa;" horiz-adv-x="1060" d="M910 0 L734 0 L734 152 Q621 -20 461 -20 Q330 -20 240 78.5 Q150 177 150 432 L150 1172 L326 1172 L326 432 Q326 261 373.5 200.5 Q421 140 504 140 Q678 140 734 369 L734 1172 L910 1172 L910 0 Z M874 1580 L639 1335 L475 1335 L654 1580 L874 1580 Z " />
<glyph glyph-name="ucircumflex" unicode="&#xfb;" horiz-adv-x="1060" d="M910 0 L734 0 L734 152 Q621 -20 461 -20 Q330 -20 240 78.5 Q150 177 150 432 L150 1172 L326 1172 L326 432 Q326 261 373.5 200.5 Q421 140 504 140 Q678 140 734 369 L734 1172 L910 1172 L910 0 Z M823 1315 L668 1315 L531 1457 L393 1315 L238 1315 L451 1580 L610 1580 L823 1315 Z " />
<glyph glyph-name="udieresis" unicode="&#xfc;" horiz-adv-x="1060" d="M910 0 L734 0 L734 152 Q621 -20 461 -20 Q330 -20 240 78.5 Q150 177 150 432 L150 1172 L326 1172 L326 432 Q326 261 373.5 200.5 Q421 140 504 140 Q678 140 734 369 L734 1172 L910 1172 L910 0 Z M839 1466 Q839 1419 805.5 1384.5 Q772 1350 723 1350 Q674 1350 641.5 1384.5 Q609 1419 609 1466 Q609 1512 641.5 1546 Q674 1580 723 1580 Q772 1580 805.5 1546 Q839 1512 839 1466 Z M452 1466 Q452 1419 419 1384.5 Q386 1350 337 1350 Q288 1350 255 1384.5 Q222 1419 222 1466 Q222 1512 255 1546 Q288 1580 337 1580 Q386 1580 419 1546 Q452 1512 452 1466 Z " />
<glyph glyph-name="yacute" unicode="&#xfd;" horiz-adv-x="1060" d="M887 1580 L652 1335 L488 1335 L667 1580 L887 1580 Z M314 -189 L448 160 L205 758 Q118 973 111 1082 L106 1172 L282 1172 L287 1088 Q291 1017 368 808 L530 365 L693 802 Q768 1013 773 1088 L778 1172 L954 1172 L948 1082 Q943 985 855 758 L481 -212 Q462 -261 458 -327 L456 -365 L280 -365 L282 -327 Q286 -261 314 -189 Z " />
<glyph glyph-name="thorn" unicode="&#xfe;" horiz-adv-x="1060" d="M940 504 Q940 227 834.5 103.5 Q729 -20 599 -20 Q419 -20 327 154 L327 -365 L151 -365 L151 1580 L327 1580 L327 1023 Q419 1194 599 1194 Q729 1194 834.5 1071.5 Q940 949 940 669 L940 504 Z M759 504 L759 669 Q759 877 702 957 Q645 1037 556 1037 Q382 1037 327 805 L327 372 Q381 138 556 138 Q645 138 702 219 Q759 300 759 504 Z " />
<glyph glyph-name="ydieresis" unicode="&#xff;" horiz-adv-x="1060" d="M839 1466 Q839 1419 805.5 1384.5 Q772 1350 723 1350 Q674 1350 641.5 1384.5 Q609 1419 609 1466 Q609 1512 641.5 1546 Q674 1580 723 1580 Q772 1580 805.5 1546 Q839 1512 839 1466 Z M452 1466 Q452 1419 419 1384.5 Q386 1350 337 1350 Q288 1350 255 1384.5 Q222 1419 222 1466 Q222 1512 255 1546 Q288 1580 337 1580 Q386 1580 419 1546 Q452 1512 452 1466 Z M301 -189 L435 160 L192 758 Q105 973 98 1082 L93 1172 L269 1172 L274 1088 Q278 1017 355 808 L517 365 L680 802 Q755 1013 760 1088 L765 1172 L941 1172 L935 1082 Q930 985 842 758 L468 -212 Q449 -261 445 -327 L443 -365 L267 -365 L269 -327 Q273 -261 301 -189 Z " />
<glyph glyph-name="Amacron" unicode="&#x100;" horiz-adv-x="1060" d="M815 1666 L244 1666 L244 1800 L815 1800 L815 1666 Z M289 88 L289 0 L113 0 L113 88 Q113 315 248 852 L408 1490 L651 1490 L812 852 Q947 315 947 88 L947 0 L771 0 L771 88 Q771 195 741 370 L318 370 Q289 195 289 88 Z M530 1300 L399 754 Q368 627 346 520 L713 520 Q691 627 661 754 L530 1300 Z " />
<glyph glyph-name="amacron" unicode="&#x101;" horiz-adv-x="1060" d="M914 0 L738 0 L738 132 Q626 -20 455 -20 Q312 -20 223.5 78.5 Q135 177 135 326 Q135 479 245.5 582.5 Q356 686 570 686 L738 686 L738 813 Q738 1034 528 1034 Q373 1034 296 897 L163 997 Q301 1194 529 1194 Q698 1194 806 1097.5 Q914 1001 914 813 L914 0 Z M738 275 L738 544 L570 544 Q444 544 380 485 Q316 426 316 326 Q316 140 499 140 Q643 140 738 275 Z M815 1357 L244 1357 L244 1491 L815 1491 L815 1357 Z " />
<glyph glyph-name="Abreve" unicode="&#x102;" horiz-adv-x="1060" d="M808 1787 Q688 1680 530 1680 Q372 1680 252 1787 L252 1950 Q390 1824 530 1824 Q667 1824 808 1950 L808 1787 Z M289 88 L289 0 L113 0 L113 88 Q113 315 248 852 L408 1490 L651 1490 L812 852 Q947 315 947 88 L947 0 L771 0 L771 88 Q771 195 741 370 L318 370 Q289 195 289 88 Z M530 1300 L399 754 Q368 627 346 520 L713 520 Q691 627 661 754 L530 1300 Z " />
<glyph glyph-name="abreve" unicode="&#x103;" horiz-adv-x="1060" d="M914 0 L738 0 L738 132 Q626 -20 455 -20 Q312 -20 223.5 78.5 Q135 177 135 326 Q135 479 245.5 582.5 Q356 686 570 686 L738 686 L738 813 Q738 1034 528 1034 Q373 1034 296 897 L163 997 Q301 1194 529 1194 Q698 1194 806 1097.5 Q914 1001 914 813 L914 0 Z M738 275 L738 544 L570 544 Q444 544 380 485 Q316 426 316 326 Q316 140 499 140 Q643 140 738 275 Z M808 1437 Q688 1330 530 1330 Q372 1330 252 1437 L252 1600 Q390 1474 530 1474 Q667 1474 808 1600 L808 1437 Z " />
<glyph glyph-name="Aogonek" unicode="&#x104;" horiz-adv-x="1060" d="M289 88 L289 0 L113 0 L113 88 Q113 315 248 852 L431 1580 L629 1580 L812 852 Q947 315 947 88 L947 0 L771 0 L771 88 Q771 195 741 370 L318 370 Q289 195 289 88 Z M530 1300 L399 754 Q368 627 346 520 L713 520 Q691 627 661 754 L530 1300 Z M978 -369 Q823 -375 738 -315.5 Q653 -256 653 -162 Q653 -61 771 0 L947 0 Q816 -55 816 -144 Q816 -193 862.5 -219.5 Q909 -246 978 -239 L978 -369 Z " />
<glyph glyph-name="aogonek" unicode="&#x105;" horiz-adv-x="1060" d="M914 0 L738 0 L738 132 Q626 -20 455 -20 Q312 -20 223.5 78.5 Q135 177 135 326 Q135 479 245.5 582.5 Q356 686 570 686 L738 686 L738 813 Q738 1034 528 1034 Q373 1034 296 897 L163 997 Q301 1194 529 1194 Q698 1194 806 1097.5 Q914 1001 914 813 L914 0 Z M738 275 L738 544 L570 544 Q444 544 380 485 Q316 426 316 326 Q316 140 499 140 Q643 140 738 275 Z M943 -369 Q788 -375 703 -315.5 Q618 -256 618 -162 Q618 -61 736 0 L912 0 Q781 -55 781 -144 Q781 -193 827.5 -219.5 Q874 -246 943 -239 L943 -369 Z " />
<glyph glyph-name="Cacute" unicode="&#x106;" horiz-adv-x="1060" d="M949 1950 L714 1705 L550 1705 L729 1950 L949 1950 Z M980 234 Q833 -20 579 -20 Q407 -20 289 95 Q171 210 171 519 L171 971 Q171 1270 289 1390 Q407 1510 577 1510 Q843 1510 970 1254 L826 1167 Q747 1350 578 1350 Q479 1350 413.5 1278 Q348 1206 348 971 L348 519 Q348 284 413.5 212 Q479 140 578 140 Q747 140 836 331 L980 234 Z " />
<glyph glyph-name="cacute" unicode="&#x107;" horiz-adv-x="1060" d="M943 195 Q808 -20 558 -20 Q378 -20 262 108.5 Q146 237 146 514 L146 659 Q146 936 262 1065 Q378 1194 558 1194 Q808 1194 943 977 L800 887 Q713 1034 568 1034 Q456 1034 389.5 959.5 Q323 885 323 659 L323 514 Q323 289 389.5 214.5 Q456 140 568 140 Q713 140 800 286 L943 195 Z M894 1580 L659 1335 L495 1335 L674 1580 L894 1580 Z " />
<glyph glyph-name="Ccircumflex" unicode="&#x108;" horiz-adv-x="1060" d="M877 1685 L722 1685 L585 1827 L447 1685 L292 1685 L505 1950 L664 1950 L877 1685 Z M980 234 Q833 -20 579 -20 Q407 -20 289 95 Q171 210 171 519 L171 971 Q171 1270 289 1390 Q407 1510 577 1510 Q843 1510 970 1254 L826 1167 Q747 1350 578 1350 Q479 1350 413.5 1278 Q348 1206 348 971 L348 519 Q348 284 413.5 212 Q479 140 578 140 Q747 140 836 331 L980 234 Z " />
<glyph glyph-name="ccircumflex" unicode="&#x109;" horiz-adv-x="1060" d="M943 195 Q808 -20 558 -20 Q378 -20 262 108.5 Q146 237 146 514 L146 659 Q146 936 262 1065 Q378 1194 558 1194 Q808 1194 943 977 L800 887 Q713 1034 568 1034 Q456 1034 389.5 959.5 Q323 885 323 659 L323 514 Q323 289 389.5 214.5 Q456 140 568 140 Q713 140 800 286 L943 195 Z M847 1315 L692 1315 L555 1457 L417 1315 L262 1315 L475 1580 L634 1580 L847 1315 Z " />
<glyph glyph-name="Cdotaccent" unicode="&#x10a;" horiz-adv-x="1060" d="M735 1815 Q735 1759 695 1719.5 Q655 1680 599 1680 Q543 1680 503.5 1719.5 Q464 1759 464 1815 Q464 1872 503.5 1911 Q543 1950 599 1950 Q655 1950 695 1911 Q735 1872 735 1815 Z M980 234 Q833 -20 579 -20 Q407 -20 289 95 Q171 210 171 519 L171 971 Q171 1270 289 1390 Q407 1510 577 1510 Q843 1510 970 1254 L826 1167 Q747 1350 578 1350 Q479 1350 413.5 1278 Q348 1206 348 971 L348 519 Q348 284 413.5 212 Q479 140 578 140 Q747 140 836 331 L980 234 Z " />
<glyph glyph-name="cdotaccent" unicode="&#x10b;" horiz-adv-x="1060" d="M943 195 Q808 -20 558 -20 Q378 -20 262 108.5 Q146 237 146 514 L146 659 Q146 936 262 1065 Q378 1194 558 1194 Q808 1194 943 977 L800 887 Q713 1034 568 1034 Q456 1034 389.5 959.5 Q323 885 323 659 L323 514 Q323 289 389.5 214.5 Q456 140 568 140 Q713 140 800 286 L943 195 Z M705 1445 Q705 1389 665 1349.5 Q625 1310 569 1310 Q513 1310 473.5 1349.5 Q434 1389 434 1445 Q434 1502 473.5 1541 Q513 1580 569 1580 Q625 1580 665 1541 Q705 1502 705 1445 Z " />
<glyph glyph-name="Ccaron" unicode="&#x10c;" horiz-adv-x="1060" d="M686 1685 L527 1685 L314 1950 L469 1950 L607 1808 L744 1950 L899 1950 L686 1685 Z M980 234 Q833 -20 579 -20 Q407 -20 289 95 Q171 210 171 519 L171 971 Q171 1270 289 1390 Q407 1510 577 1510 Q843 1510 970 1254 L826 1167 Q747 1350 578 1350 Q479 1350 413.5 1278 Q348 1206 348 971 L348 519 Q348 284 413.5 212 Q479 140 578 140 Q747 140 836 331 L980 234 Z " />
<glyph glyph-name="ccaron" unicode="&#x10d;" horiz-adv-x="1060" d="M943 195 Q808 -20 558 -20 Q378 -20 262 108.5 Q146 237 146 514 L146 659 Q146 936 262 1065 Q378 1194 558 1194 Q808 1194 943 977 L800 887 Q713 1034 568 1034 Q456 1034 389.5 959.5 Q323 885 323 659 L323 514 Q323 289 389.5 214.5 Q456 140 568 140 Q713 140 800 286 L943 195 Z M659 1315 L500 1315 L287 1580 L442 1580 L580 1438 L717 1580 L872 1580 L659 1315 Z " />
<glyph glyph-name="Dcaron" unicode="&#x10e;" horiz-adv-x="1060" d="M564 1685 L405 1685 L192 1950 L347 1950 L485 1808 L622 1950 L777 1950 L564 1685 Z M960 648 Q960 339 818.5 169.5 Q677 0 435 0 L174 0 L174 1490 L435 1490 Q677 1490 818.5 1330.5 Q960 1171 960 863 L960 648 Z M778 648 L778 863 Q778 1105 686 1222.5 Q594 1340 435 1340 L349 1340 L349 150 L435 150 Q594 150 686 275.5 Q778 401 778 648 Z " />
<glyph glyph-name="dcaron" unicode="&#x10f;" horiz-adv-x="1060" d="M815 0 L639 0 L639 131 Q536 -20 417 -20 Q287 -20 206 92.5 Q125 205 125 474 L125 694 Q125 964 206 1076.5 Q287 1189 417 1189 Q536 1189 639 1037 L639 1580 L815 1580 L815 0 Z M639 269 L639 899 Q554 1031 469 1031 Q376 1031 338.5 966 Q301 901 301 705 L301 463 Q301 267 338.5 201.5 Q376 136 469 136 Q553 136 639 269 Z M1085 1580 L1016 1215 L871 1215 L915 1580 L1085 1580 Z " />
<glyph glyph-name="Dcroat" unicode="&#x110;" horiz-adv-x="1060" d="M939 648 Q939 339 796.5 169.5 Q654 0 412 0 L181 0 L181 771 L67 771 L67 905 L181 905 L181 1580 L412 1580 Q654 1580 796.5 1420.5 Q939 1261 939 953 L939 648 Z M544 771 L356 771 L356 157 L414 157 Q571 157 664 279 Q757 401 757 648 L757 953 Q757 1200 664 1312 Q571 1424 414 1424 L356 1424 L356 905 L544 905 L544 771 Z " />
<glyph glyph-name="dslash" unicode="&#x111;" horiz-adv-x="1060" d="M1011 1266 L885 1266 L885 0 L709 0 L709 131 Q596 -20 457 -20 Q322 -20 221 92.5 Q120 205 120 474 L120 604 Q120 874 221 986.5 Q322 1099 457 1099 Q596 1099 709 947 L709 1266 L457 1266 L457 1414 L709 1414 L709 1580 L885 1580 L885 1414 L1011 1414 L1011 1266 Z M709 299 L709 789 Q633 941 499 941 Q396 941 348.5 871 Q301 801 301 615 L301 463 Q301 277 348.5 206.5 Q396 136 499 136 Q633 136 709 299 Z " />
<glyph glyph-name="Emacron" unicode="&#x112;" horiz-adv-x="1060" d="M834 1816 L263 1816 L263 1950 L834 1950 L834 1816 Z M924 0 L196 0 L196 1490 L924 1490 L924 1340 L372 1340 L372 868 L780 868 L780 718 L372 718 L372 150 L924 150 L924 0 Z " />
<glyph glyph-name="emacron" unicode="&#x113;" horiz-adv-x="1060" d="M924 551 L311 551 L311 516 Q311 289 377.5 214.5 Q444 140 557 140 Q702 140 788 286 L931 195 Q796 -20 546 -20 Q366 -20 250.5 108.5 Q135 237 135 516 L135 657 Q135 936 250.5 1065 Q366 1194 530 1194 Q704 1194 814 1075 Q924 956 924 687 L924 551 Z M748 706 Q748 885 686.5 959.5 Q625 1034 530 1034 Q439 1034 375 959.5 Q311 885 311 706 L748 706 Z M816 1446 L245 1446 L245 1580 L816 1580 L816 1446 Z " />
<glyph glyph-name="Ebreve" unicode="&#x114;" horiz-adv-x="1060" d="M808 1787 Q688 1680 530 1680 Q372 1680 252 1787 L252 1950 Q390 1824 530 1824 Q667 1824 808 1950 L808 1787 Z M924 0 L196 0 L196 1490 L924 1490 L924 1340 L372 1340 L372 868 L780 868 L780 718 L372 718 L372 150 L924 150 L924 0 Z " />
<glyph glyph-name="ebreve" unicode="&#x115;" horiz-adv-x="1060" d="M924 551 L311 551 L311 516 Q311 289 377.5 214.5 Q444 140 557 140 Q702 140 788 286 L931 195 Q796 -20 546 -20 Q366 -20 250.5 108.5 Q135 237 135 516 L135 657 Q135 936 250.5 1065 Q366 1194 530 1194 Q704 1194 814 1075 Q924 956 924 687 L924 551 Z M748 706 Q748 885 686.5 959.5 Q625 1034 530 1034 Q439 1034 375 959.5 Q311 885 311 706 L748 706 Z M808 1437 Q688 1330 530 1330 Q372 1330 252 1437 L252 1600 Q390 1474 530 1474 Q667 1474 808 1600 L808 1437 Z " />
<glyph glyph-name="Edotaccent" unicode="&#x116;" horiz-adv-x="1060" d="M665 1815 Q665 1759 625 1719.5 Q585 1680 529 1680 Q473 1680 433.5 1719.5 Q394 1759 394 1815 Q394 1872 433.5 1911 Q473 1950 529 1950 Q585 1950 625 1911 Q665 1872 665 1815 Z M924 0 L196 0 L196 1490 L924 1490 L924 1340 L372 1340 L372 868 L780 868 L780 718 L372 718 L372 150 L924 150 L924 0 Z " />
<glyph glyph-name="edotaccent" unicode="&#x117;" horiz-adv-x="1060" d="M924 551 L311 551 L311 516 Q311 289 377.5 214.5 Q444 140 557 140 Q702 140 788 286 L931 195 Q796 -20 546 -20 Q366 -20 250.5 108.5 Q135 237 135 516 L135 657 Q135 936 250.5 1065 Q366 1194 530 1194 Q704 1194 814 1075 Q924 956 924 687 L924 551 Z M748 706 Q748 885 686.5 959.5 Q625 1034 530 1034 Q439 1034 375 959.5 Q311 885 311 706 L748 706 Z M656 1445 Q656 1389 616 1349.5 Q576 1310 520 1310 Q464 1310 424.5 1349.5 Q385 1389 385 1445 Q385 1502 424.5 1541 Q464 1580 520 1580 Q576 1580 616 1541 Q656 1502 656 1445 Z " />
<glyph glyph-name="Eogonek" unicode="&#x118;" horiz-adv-x="1060" d="M915 0 L187 0 L187 1580 L915 1580 L915 1430 L363 1430 L363 918 L771 918 L771 768 L363 768 L363 150 L915 150 L915 0 Z M945 -369 Q790 -375 705 -315.5 Q620 -256 620 -162 Q620 -61 738 0 L914 0 Q783 -55 783 -144 Q783 -193 829.5 -219.5 Q876 -246 945 -239 L945 -369 Z " />
<glyph glyph-name="eogonek" unicode="&#x119;" horiz-adv-x="1060" d="M924 551 L311 551 L311 516 Q311 289 377.5 214.5 Q444 140 557 140 Q702 140 788 286 L931 195 Q796 -20 546 -20 Q366 -20 250.5 108.5 Q135 237 135 516 L135 657 Q135 936 250.5 1065 Q366 1194 530 1194 Q704 1194 814 1075 Q924 956 924 687 L924 551 Z M748 706 Q748 885 686.5 959.5 Q625 1034 530 1034 Q439 1034 375 959.5 Q311 885 311 706 L748 706 Z M706 -369 Q551 -375 466 -315.5 Q381 -256 381 -162 Q381 -61 499 0 L675 0 Q544 -55 544 -144 Q544 -193 590.5 -219.5 Q637 -246 706 -239 L706 -369 Z " />
<glyph glyph-name="Ecaron" unicode="&#x11a;" horiz-adv-x="1060" d="M610 1685 L451 1685 L238 1950 L393 1950 L531 1808 L668 1950 L823 1950 L610 1685 Z M924 0 L196 0 L196 1490 L924 1490 L924 1340 L372 1340 L372 868 L780 868 L780 718 L372 718 L372 150 L924 150 L924 0 Z " />
<glyph glyph-name="ecaron" unicode="&#x11b;" horiz-adv-x="1060" d="M924 551 L311 551 L311 516 Q311 289 377.5 214.5 Q444 140 557 140 Q702 140 788 286 L931 195 Q796 -20 546 -20 Q366 -20 250.5 108.5 Q135 237 135 516 L135 657 Q135 936 250.5 1065 Q366 1194 530 1194 Q704 1194 814 1075 Q924 956 924 687 L924 551 Z M748 706 Q748 885 686.5 959.5 Q625 1034 530 1034 Q439 1034 375 959.5 Q311 885 311 706 L748 706 Z M610 1315 L451 1315 L238 1580 L393 1580 L531 1438 L668 1580 L823 1580 L610 1315 Z " />
<glyph glyph-name="Gcircumflex" unicode="&#x11c;" horiz-adv-x="1060" d="M810 1685 L655 1685 L518 1827 L380 1685 L225 1685 L438 1950 L597 1950 L810 1685 Z M925 479 Q925 220 812.5 100 Q700 -20 530 -20 Q360 -20 250 100 Q140 220 140 479 L140 1011 Q140 1270 250.5 1390 Q361 1510 541 1510 Q782 1510 909 1254 L765 1167 Q686 1350 542 1350 Q435 1350 375.5 1278 Q316 1206 316 1011 L316 479 Q316 284 373 212 Q430 140 530 140 Q628 140 688.5 212.5 Q749 285 749 479 L749 695 L562 695 L562 845 L925 845 L925 479 Z " />
<glyph glyph-name="gcircumflex" unicode="&#x11d;" horiz-adv-x="1060" d="M960 1032 L899 1032 L803 1041 Q882 945 882 846 Q882 710 783.5 620 Q685 530 514 530 Q451 530 399 530 Q315 475 315 424 Q315 372 348 346.5 Q381 321 458 321 L555 321 Q774 321 872 228 Q970 135 970 -7 Q970 -167 845 -271 Q720 -375 517 -375 Q303 -375 192.5 -278.5 Q82 -182 82 -45 Q82 135 263 227 Q129 283 129 397 Q129 513 271 594 Q126 692 126 864 Q126 1008 228.5 1098 Q331 1188 515 1188 Q569 1188 777 1172 L960 1172 L960 1032 Z M712 865 Q712 936 660.5 989 Q609 1042 505 1042 Q400 1042 348.5 992 Q297 942 297 862 Q297 771 351 723.5 Q405 676 502 676 Q608 676 660 725 Q712 774 712 865 Z M789 -7 Q789 70 737.5 115.5 Q686 161 555 161 L484 161 Q364 161 313.5 107 Q263 53 263 -32 Q263 -120 329 -168 Q395 -216 504 -216 Q789 -216 789 -7 Z M822 1315 L667 1315 L530 1457 L392 1315 L237 1315 L450 1580 L609 1580 L822 1315 Z " />
<glyph glyph-name="Gbreve" unicode="&#x11e;" horiz-adv-x="1060" d="M808 1787 Q688 1680 530 1680 Q372 1680 252 1787 L252 1950 Q390 1824 530 1824 Q667 1824 808 1950 L808 1787 Z M925 479 Q925 220 812.5 100 Q700 -20 530 -20 Q360 -20 250 100 Q140 220 140 479 L140 1011 Q140 1270 250.5 1390 Q361 1510 541 1510 Q782 1510 909 1254 L765 1167 Q686 1350 542 1350 Q435 1350 375.5 1278 Q316 1206 316 1011 L316 479 Q316 284 373 212 Q430 140 530 140 Q628 140 688.5 212.5 Q749 285 749 479 L749 695 L562 695 L562 845 L925 845 L925 479 Z " />
<glyph glyph-name="gbreve" unicode="&#x11f;" horiz-adv-x="1060" d="M960 1032 L899 1032 L803 1041 Q882 945 882 846 Q882 710 783.5 620 Q685 530 514 530 Q451 530 399 530 Q315 475 315 424 Q315 372 348 346.5 Q381 321 458 321 L555 321 Q774 321 872 228 Q970 135 970 -7 Q970 -167 845 -271 Q720 -375 517 -375 Q303 -375 192.5 -278.5 Q82 -182 82 -45 Q82 135 263 227 Q129 283 129 397 Q129 513 271 594 Q126 692 126 864 Q126 1008 228.5 1098 Q331 1188 515 1188 Q569 1188 777 1172 L960 1172 L960 1032 Z M712 865 Q712 936 660.5 989 Q609 1042 505 1042 Q400 1042 348.5 992 Q297 942 297 862 Q297 771 351 723.5 Q405 676 502 676 Q608 676 660 725 Q712 774 712 865 Z M789 -7 Q789 70 737.5 115.5 Q686 161 555 161 L484 161 Q364 161 313.5 107 Q263 53 263 -32 Q263 -120 329 -168 Q395 -216 504 -216 Q789 -216 789 -7 Z M808 1437 Q688 1330 530 1330 Q372 1330 252 1437 L252 1600 Q390 1474 530 1474 Q667 1474 808 1600 L808 1437 Z " />
<glyph glyph-name="Gdotaccent" unicode="&#x120;" horiz-adv-x="1060" d="M665 1815 Q665 1759 625 1719.5 Q585 1680 529 1680 Q473 1680 433.5 1719.5 Q394 1759 394 1815 Q394 1872 433.5 1911 Q473 1950 529 1950 Q585 1950 625 1911 Q665 1872 665 1815 Z M925 479 Q925 220 812.5 100 Q700 -20 530 -20 Q360 -20 250 100 Q140 220 140 479 L140 1011 Q140 1270 250.5 1390 Q361 1510 541 1510 Q782 1510 909 1254 L765 1167 Q686 1350 542 1350 Q435 1350 375.5 1278 Q316 1206 316 1011 L316 479 Q316 284 373 212 Q430 140 530 140 Q628 140 688.5 212.5 Q749 285 749 479 L749 695 L562 695 L562 845 L925 845 L925 479 Z " />
<glyph glyph-name="gdotaccent" unicode="&#x121;" horiz-adv-x="1060" d="M960 1032 L899 1032 L803 1041 Q882 945 882 846 Q882 710 783.5 620 Q685 530 514 530 Q451 530 399 530 Q315 475 315 424 Q315 372 348 346.5 Q381 321 458 321 L555 321 Q774 321 872 228 Q970 135 970 -7 Q970 -167 845 -271 Q720 -375 517 -375 Q303 -375 192.5 -278.5 Q82 -182 82 -45 Q82 135 263 227 Q129 283 129 397 Q129 513 271 594 Q126 692 126 864 Q126 1008 228.5 1098 Q331 1188 515 1188 Q569 1188 777 1172 L960 1172 L960 1032 Z M712 865 Q712 936 660.5 989 Q609 1042 505 1042 Q400 1042 348.5 992 Q297 942 297 862 Q297 771 351 723.5 Q405 676 502 676 Q608 676 660 725 Q712 774 712 865 Z M789 -7 Q789 70 737.5 115.5 Q686 161 555 161 L484 161 Q364 161 313.5 107 Q263 53 263 -32 Q263 -120 329 -168 Q395 -216 504 -216 Q789 -216 789 -7 Z M653 1445 Q653 1389 613 1349.5 Q573 1310 517 1310 Q461 1310 421.5 1349.5 Q382 1389 382 1445 Q382 1502 421.5 1541 Q461 1580 517 1580 Q573 1580 613 1541 Q653 1502 653 1445 Z " />
<glyph glyph-name="Gcommaaccent" unicode="&#x122;" horiz-adv-x="1060" d="M925 479 Q925 220 812.5 100 Q700 -20 530 -20 Q360 -20 250 100 Q140 220 140 479 L140 1103 Q140 1362 250.5 1482 Q361 1602 541 1602 Q782 1602 909 1346 L765 1259 Q686 1442 542 1442 Q435 1442 375.5 1370 Q316 1298 316 1103 L316 479 Q316 284 373 212 Q430 140 530 140 Q628 140 688.5 212.5 Q749 285 749 479 L749 695 L562 695 L562 845 L925 845 L925 479 Z M629 -159 Q629 -241 552 -365 L438 -365 Q487 -296 505 -225 Q472 -224 448 -198 Q424 -172 424 -137 Q424 -103 448 -76.5 Q472 -50 523 -50 Q569 -50 599 -81.5 Q629 -113 629 -159 Z " />
<glyph glyph-name="gcommaaccent" unicode="&#x123;" horiz-adv-x="1060" d="M960 1032 L899 1032 L803 1041 Q882 945 882 846 Q882 710 783.5 620 Q685 530 514 530 Q451 530 399 530 Q315 475 315 424 Q315 372 348 346.5 Q381 321 458 321 L555 321 Q774 321 872 228 Q970 135 970 -7 Q970 -167 845 -271 Q720 -375 517 -375 Q303 -375 192.5 -278.5 Q82 -182 82 -45 Q82 135 263 227 Q129 283 129 397 Q129 513 271 594 Q126 692 126 864 Q126 1008 228.5 1098 Q331 1188 515 1188 Q569 1188 777 1172 L960 1172 L960 1032 Z M712 865 Q712 936 660.5 989 Q609 1042 505 1042 Q400 1042 348.5 992 Q297 942 297 862 Q297 771 351 723.5 Q405 676 502 676 Q608 676 660 725 Q712 774 712 865 Z M789 -7 Q789 70 737.5 115.5 Q686 161 555 161 L484 161 Q364 161 313.5 107 Q263 53 263 -32 Q263 -120 329 -168 Q395 -216 504 -216 Q789 -216 789 -7 Z M370 1315 L645 1580 L819 1580 L600 1315 L370 1315 Z " />
<glyph glyph-name="Hcircumflex" unicode="&#x124;" horiz-adv-x="1060" d="M822 1685 L667 1685 L530 1827 L392 1685 L237 1685 L450 1950 L609 1950 L822 1685 Z M910 0 L734 0 L734 745 L326 745 L326 0 L150 0 L150 1490 L326 1490 L326 895 L734 895 L734 1490 L910 1490 L910 0 Z " />
<glyph glyph-name="hcircumflex" unicode="&#x125;" horiz-adv-x="1060" d="M915 0 L739 0 L739 758 Q739 915 691.5 974.5 Q644 1034 561 1034 Q387 1034 331 793 L331 0 L155 0 L155 1580 L331 1580 L331 1032 Q444 1194 604 1194 Q735 1194 825 1097 Q915 1000 915 768 L915 0 Z M803 1685 L648 1685 L511 1827 L373 1685 L218 1685 L431 1950 L590 1950 L803 1685 Z " />
<glyph glyph-name="Hbar" unicode="&#x126;" horiz-adv-x="1060" d="M910 0 L734 0 L734 710 L326 710 L326 0 L150 0 L150 1195 L45 1195 L45 1329 L150 1329 L150 1580 L326 1580 L326 1329 L734 1329 L734 1580 L910 1580 L910 1329 L1014 1329 L1014 1195 L910 1195 L910 0 Z M734 866 L734 1195 L326 1195 L326 866 L734 866 Z " />
<glyph glyph-name="hbar" unicode="&#x127;" horiz-adv-x="1060" d="M605 1285 L351 1285 L351 967 Q454 1119 604 1119 Q735 1119 825 1022 Q915 925 915 698 L915 0 L739 0 L739 698 Q739 842 691.5 901.5 Q644 961 561 961 Q420 961 351 800 L351 0 L175 0 L175 1285 L34 1285 L34 1419 L175 1419 L175 1580 L351 1580 L351 1419 L605 1419 L605 1285 Z " />
<glyph glyph-name="Itilde" unicode="&#x128;" horiz-adv-x="1060" d="M896 1880 Q816 1684 658 1684 Q588 1684 511 1742.5 Q434 1801 396 1801 Q332 1801 250 1690 L163 1763 Q268 1950 406 1950 Q466 1950 541 1890.5 Q616 1831 668 1831 Q732 1831 793 1941 L896 1880 Z M867 0 L192 0 L192 150 L441 150 L441 1340 L245 1340 L245 1490 L814 1490 L814 1340 L618 1340 L618 150 L867 150 L867 0 Z " />
<glyph glyph-name="itilde" unicode="&#x129;" horiz-adv-x="1060" d="M879 0 L200 0 L200 157 L451 157 L451 1015 L250 1015 L250 1172 L628 1172 L628 157 L879 157 L879 0 Z M847 1530 Q767 1334 609 1334 Q539 1334 462 1392.5 Q385 1451 347 1451 Q283 1451 201 1340 L114 1413 Q219 1600 357 1600 Q417 1600 492 1540.5 Q567 1481 619 1481 Q683 1481 744 1591 L847 1530 Z " />
<glyph glyph-name="Imacron" unicode="&#x12a;" horiz-adv-x="1060" d="M816 1816 L245 1816 L245 1950 L816 1950 L816 1816 Z M867 0 L192 0 L192 150 L441 150 L441 1340 L245 1340 L245 1490 L814 1490 L814 1340 L618 1340 L618 150 L867 150 L867 0 Z " />
<glyph glyph-name="imacron" unicode="&#x12b;" horiz-adv-x="1060" d="M879 0 L200 0 L200 157 L451 157 L451 1015 L250 1015 L250 1172 L628 1172 L628 157 L879 157 L879 0 Z M747 1446 L176 1446 L176 1580 L747 1580 L747 1446 Z " />
<glyph glyph-name="Ibreve" unicode="&#x12c;" horiz-adv-x="1060" d="M809 1787 Q689 1680 531 1680 Q373 1680 253 1787 L253 1950 Q391 1824 531 1824 Q668 1824 809 1950 L809 1787 Z M867 0 L192 0 L192 150 L441 150 L441 1340 L245 1340 L245 1490 L814 1490 L814 1340 L618 1340 L618 150 L867 150 L867 0 Z " />
<glyph glyph-name="ibreve" unicode="&#x12d;" horiz-adv-x="1060" d="M879 0 L200 0 L200 157 L451 157 L451 1015 L250 1015 L250 1172 L628 1172 L628 157 L879 157 L879 0 Z M770 1437 Q650 1330 492 1330 Q334 1330 214 1437 L214 1600 Q352 1474 492 1474 Q629 1474 770 1600 L770 1437 Z " />
<glyph glyph-name="Iogonek" unicode="&#x12e;" horiz-adv-x="1060" d="M867 0 L192 0 L192 150 L441 150 L441 1430 L245 1430 L245 1580 L814 1580 L814 1430 L618 1430 L618 150 L867 150 L867 0 Z M650 -369 Q495 -375 410 -315.5 Q325 -256 325 -162 Q325 -61 443 0 L619 0 Q488 -55 488 -144 Q488 -193 534.5 -219.5 Q581 -246 650 -239 L650 -369 Z " />
<glyph glyph-name="iogonek" unicode="&#x12f;" horiz-adv-x="1060" d="M634 1569 Q634 1513 595 1473.5 Q556 1434 498 1434 Q440 1434 401.5 1473.5 Q363 1513 363 1569 Q363 1625 401.5 1665 Q440 1705 498 1705 Q556 1705 595 1665 Q634 1625 634 1569 Z M900 0 L161 0 L161 150 L442 150 L442 1022 L241 1022 L241 1172 L619 1172 L619 150 L900 150 L900 0 Z M650 -369 Q495 -375 410 -315.5 Q325 -256 325 -162 Q325 -61 443 0 L619 0 Q488 -55 488 -144 Q488 -193 534.5 -219.5 Q581 -246 650 -239 L650 -369 Z " />
<glyph glyph-name="Idot" unicode="&#x130;" horiz-adv-x="1060" d="M665 1815 Q665 1759 625 1719.5 Q585 1680 529 1680 Q473 1680 433.5 1719.5 Q394 1759 394 1815 Q394 1872 433.5 1911 Q473 1950 529 1950 Q585 1950 625 1911 Q665 1872 665 1815 Z M867 0 L192 0 L192 150 L441 150 L441 1340 L245 1340 L245 1490 L814 1490 L814 1340 L618 1340 L618 150 L867 150 L867 0 Z " />
<glyph glyph-name="dotlessi" unicode="&#x131;" horiz-adv-x="1060" d="M879 0 L200 0 L200 157 L451 157 L451 1015 L250 1015 L250 1172 L628 1172 L628 157 L879 157 L879 0 Z " />
<glyph glyph-name="IJ" unicode="&#x132;" horiz-adv-x="1060" d="M359 0 L182 0 L182 1580 L359 1580 L359 0 Z M878 415 Q878 178 795 89 Q712 0 573 0 L490 0 L490 156 L552 156 Q618 156 659.5 193 Q701 230 701 360 L701 1580 L878 1580 L878 415 Z " />
<glyph glyph-name="ij" unicode="&#x133;" horiz-adv-x="1060" d="M438 1569 Q438 1513 399 1472.5 Q360 1432 300 1432 Q240 1432 201.5 1472.5 Q163 1513 163 1569 Q163 1625 201.5 1666 Q240 1707 300 1707 Q360 1707 399 1666 Q438 1625 438 1569 Z M389 0 L212 0 L212 1172 L389 1172 L389 0 Z M672 -20 L672 1172 L849 1172 L849 -8 Q849 -188 756 -281.5 Q663 -375 528 -375 Q337 -375 224 -226 L355 -133 Q412 -219 517 -219 Q590 -219 631 -172.5 Q672 -126 672 -20 Z M898 1569 Q898 1513 859 1472.5 Q820 1432 760 1432 Q700 1432 661.5 1472.5 Q623 1513 623 1569 Q623 1625 661.5 1666 Q700 1707 760 1707 Q820 1707 859 1666 Q898 1625 898 1569 Z " />
<glyph glyph-name="Jcircumflex" unicode="&#x134;" horiz-adv-x="1060" d="M892 1685 L737 1685 L600 1827 L462 1685 L307 1685 L520 1950 L679 1950 L892 1685 Z M873 475 Q873 218 765 99 Q657 -20 498 -20 Q349 -20 236 99 Q123 218 123 475 L123 706 L299 706 L299 474 Q299 284 357.5 212 Q416 140 497 140 Q588 140 642 212 Q696 284 696 474 L696 1490 L873 1490 L873 475 Z " />
<glyph glyph-name="jcircumflex" unicode="&#x135;" horiz-adv-x="1060" d="M822 1315 L667 1315 L530 1457 L392 1315 L237 1315 L450 1580 L609 1580 L822 1315 Z M546 -20 L546 1015 L271 1015 L271 1172 L723 1172 L723 -8 Q723 -188 630 -281.5 Q537 -375 402 -375 Q195 -375 72 -190 L206 -94 Q268 -219 391 -219 Q464 -219 505 -172.5 Q546 -126 546 -20 Z " />
<glyph glyph-name="Kcommaaccent" unicode="&#x136;" horiz-adv-x="1060" d="M416 1580 L416 825 L684 1219 Q827 1428 834 1544 L836 1580 L1012 1580 L1009 1527 Q1000 1394 818 1127 L655 884 L889 487 Q1047 220 1056 70 L1060 0 L884 0 L881 55 Q873 194 750 401 L539 757 L416 574 L416 0 L240 0 L240 1580 L416 1580 Z M739 -159 Q739 -241 662 -365 L548 -365 Q597 -296 615 -225 Q582 -224 558 -198 Q534 -172 534 -137 Q534 -103 558 -76.5 Q582 -50 633 -50 Q679 -50 709 -81.5 Q739 -113 739 -159 Z " />
<glyph glyph-name="kcommaaccent" unicode="&#x137;" horiz-adv-x="1060" d="M997 0 L821 0 Q813 129 694 301 L519 552 L388 392 L388 0 L212 0 L212 1580 L388 1580 L388 609 L647 928 Q776 1087 780 1172 L956 1172 L954 1134 Q948 1041 779 834 L638 661 L820 397 Q987 156 994 41 L997 0 Z M700 -159 Q700 -241 623 -365 L509 -365 Q558 -296 576 -225 Q543 -224 519 -198 Q495 -172 495 -137 Q495 -103 519 -76.5 Q543 -50 594 -50 Q640 -50 670 -81.5 Q700 -113 700 -159 Z " />
<glyph glyph-name="kgreenlandic" unicode="&#x138;" horiz-adv-x="1060" d="M970 0 L794 0 Q786 129 667 301 L492 552 L361 392 L361 0 L185 0 L185 1172 L361 1172 L361 609 L620 928 Q749 1087 753 1172 L929 1172 L927 1134 Q921 1041 752 834 L611 661 L793 397 Q960 156 967 41 L970 0 Z " />
<glyph glyph-name="Lacute" unicode="&#x139;" horiz-adv-x="1060" d="M671 1950 L436 1705 L272 1705 L451 1950 L671 1950 Z M970 0 L252 0 L252 1490 L428 1490 L428 150 L970 150 L970 0 Z " />
<glyph glyph-name="lacute" unicode="&#x13a;" horiz-adv-x="1060" d="M869 1950 L634 1705 L470 1705 L649 1950 L869 1950 Z M900 0 L160 0 L160 150 L442 150 L442 1340 L241 1340 L241 1490 L619 1490 L619 150 L900 150 L900 0 Z " />
<glyph glyph-name="Lcommaaccent" unicode="&#x13b;" horiz-adv-x="1060" d="M938 0 L220 0 L220 1580 L396 1580 L396 150 L938 150 L938 0 Z M639 -159 Q639 -241 562 -365 L448 -365 Q497 -296 515 -225 Q482 -224 458 -198 Q434 -172 434 -137 Q434 -103 458 -76.5 Q482 -50 533 -50 Q579 -50 609 -81.5 Q639 -113 639 -159 Z " />
<glyph glyph-name="lcommaaccent" unicode="&#x13c;" horiz-adv-x="1060" d="M910 0 L170 0 L170 150 L452 150 L452 1430 L251 1430 L251 1580 L629 1580 L629 150 L910 150 L910 0 Z M610 -159 Q610 -241 533 -365 L419 -365 Q468 -296 486 -225 Q453 -224 429 -198 Q405 -172 405 -137 Q405 -103 429 -76.5 Q453 -50 504 -50 Q550 -50 580 -81.5 Q610 -113 610 -159 Z " />
<glyph glyph-name="Lcaron" unicode="&#x13d;" horiz-adv-x="1060" d="M938 0 L220 0 L220 1580 L396 1580 L396 150 L938 150 L938 0 Z M856 1580 L787 1215 L642 1215 L686 1580 L856 1580 Z " />
<glyph glyph-name="lcaron" unicode="&#x13e;" horiz-adv-x="1060" d="M1005 1580 L936 1215 L791 1215 L835 1580 L1005 1580 Z M910 0 L170 0 L170 150 L452 150 L452 1430 L251 1430 L251 1580 L629 1580 L629 150 L910 150 L910 0 Z " />
<glyph glyph-name="Ldot" unicode="&#x13f;" horiz-adv-x="1060" d="M938 0 L220 0 L220 1580 L396 1580 L396 150 L938 150 L938 0 Z M818 668 Q818 612 778 572.5 Q738 533 682 533 Q626 533 586.5 572.5 Q547 612 547 668 Q547 725 586.5 764 Q626 803 682 803 Q738 803 778 764 Q818 725 818 668 Z " />
<glyph glyph-name="ldot" unicode="&#x140;" horiz-adv-x="1060" d="M851 0 L111 0 L111 150 L393 150 L393 1430 L192 1430 L192 1580 L570 1580 L570 150 L851 150 L851 0 Z M948 668 Q948 612 908 572.5 Q868 533 812 533 Q756 533 716.5 572.5 Q677 612 677 668 Q677 725 716.5 764 Q756 803 812 803 Q868 803 908 764 Q948 725 948 668 Z " />
<glyph glyph-name="Lslash" unicode="&#x141;" horiz-adv-x="1060" d="M983 0 L334 0 L334 710 L188 590 L76 707 L334 917 L334 1580 L510 1580 L510 1060 L681 1200 L792 1083 L510 853 L510 157 L983 157 L983 0 Z " />
<glyph glyph-name="lslash" unicode="&#x142;" horiz-adv-x="1060" d="M903 1083 L629 860 L629 157 L880 157 L880 0 L200 0 L200 157 L452 157 L452 714 L299 590 L188 707 L452 922 L452 1424 L240 1424 L240 1580 L629 1580 L629 1066 L792 1200 L903 1083 Z " />
<glyph glyph-name="Nacute" unicode="&#x143;" horiz-adv-x="1060" d="M879 1950 L644 1705 L480 1705 L659 1950 L879 1950 Z M910 0 L748 0 L734 388 L286 1244 L326 437 L326 0 L150 0 L150 1490 L326 1490 L774 634 L734 1441 L734 1490 L910 1490 L910 0 Z " />
<glyph glyph-name="nacute" unicode="&#x144;" horiz-adv-x="1060" d="M915 0 L739 0 L739 760 Q739 912 691.5 971.5 Q644 1031 561 1031 Q387 1031 331 793 L331 0 L155 0 L155 1172 L331 1172 L331 1022 Q444 1194 604 1194 Q735 1194 825 1097 Q915 1000 915 770 L915 0 Z M929 1580 L694 1335 L530 1335 L709 1580 L929 1580 Z " />
<glyph glyph-name="Ncommaaccent" unicode="&#x145;" horiz-adv-x="1060" d="M914 0 L752 0 L738 478 L290 1334 L330 527 L330 0 L154 0 L154 1580 L330 1580 L778 724 L738 1531 L738 1580 L914 1580 L914 0 Z M629 -159 Q629 -241 552 -365 L438 -365 Q487 -296 505 -225 Q472 -224 448 -198 Q424 -172 424 -137 Q424 -103 448 -76.5 Q472 -50 523 -50 Q569 -50 599 -81.5 Q629 -113 629 -159 Z " />
<glyph glyph-name="ncommaaccent" unicode="&#x146;" horiz-adv-x="1060" d="M915 0 L739 0 L739 760 Q739 912 691.5 971.5 Q644 1031 561 1031 Q387 1031 331 793 L331 0 L155 0 L155 1172 L331 1172 L331 1022 Q444 1194 604 1194 Q735 1194 825 1097 Q915 1000 915 770 L915 0 Z M629 -159 Q629 -241 552 -365 L438 -365 Q487 -296 505 -225 Q472 -224 448 -198 Q424 -172 424 -137 Q424 -103 448 -76.5 Q472 -50 523 -50 Q569 -50 599 -81.5 Q629 -113 629 -159 Z " />
<glyph glyph-name="Ncaron" unicode="&#x147;" horiz-adv-x="1060" d="M609 1685 L450 1685 L237 1950 L392 1950 L530 1808 L667 1950 L822 1950 L609 1685 Z M910 0 L748 0 L734 388 L286 1244 L326 437 L326 0 L150 0 L150 1490 L326 1490 L774 634 L734 1441 L734 1490 L910 1490 L910 0 Z " />
<glyph glyph-name="ncaron" unicode="&#x148;" horiz-adv-x="1060" d="M915 0 L739 0 L739 760 Q739 912 691.5 971.5 Q644 1031 561 1031 Q387 1031 331 793 L331 0 L155 0 L155 1172 L331 1172 L331 1022 Q444 1194 604 1194 Q735 1194 825 1097 Q915 1000 915 770 L915 0 Z M601 1315 L442 1315 L229 1580 L384 1580 L522 1438 L659 1580 L814 1580 L601 1315 Z " />
<glyph glyph-name="napostrophe" unicode="&#x149;" horiz-adv-x="1060" d="M915 0 L739 0 L739 790 Q739 912 701.5 971.5 Q664 1031 591 1031 Q476 1031 401 899 L401 0 L225 0 L225 1172 L401 1172 L401 1037 Q494 1189 634 1189 Q755 1189 835 1092 Q915 995 915 790 L915 0 Z M297 1580 L229 1323 L87 1323 L130 1580 L297 1580 Z " />
<glyph glyph-name="Eng" unicode="&#x14a;" horiz-adv-x="1060" d="M910 72 Q910 -185 827 -274 Q744 -363 595 -363 L502 -363 L502 -207 L574 -207 Q641 -207 687.5 -160 Q734 -113 734 17 L734 478 L286 1334 L326 527 L326 0 L150 0 L150 1580 L326 1580 L774 724 L734 1531 L734 1580 L910 1580 L910 72 Z " />
<glyph glyph-name="eng" unicode="&#x14b;" horiz-adv-x="1060" d="M738 99 L738 790 Q738 912 691 971.5 Q644 1031 561 1031 Q416 1031 321 899 L321 0 L145 0 L145 1172 L321 1172 L321 1037 Q434 1189 604 1189 Q735 1189 824.5 1092 Q914 995 914 790 L914 72 Q914 -185 831 -274 Q748 -363 599 -363 L506 -363 L506 -207 L578 -207 Q644 -207 691 -160 Q738 -113 738 17 L738 99 Z " />
<glyph glyph-name="Omacron" unicode="&#x14c;" horiz-adv-x="1060" d="M816 1816 L245 1816 L245 1950 L816 1950 L816 1816 Z M142 479 L142 1011 Q142 1270 250 1390 Q358 1510 530 1510 Q702 1510 810 1390 Q918 1270 918 1011 L918 479 Q918 220 810 100 Q702 -20 530 -20 Q358 -19 250 100.5 Q142 220 142 479 Z M319 479 Q319 284 374.5 212 Q430 140 529 140 Q628 140 684.5 212.5 Q741 285 741 479 L741 1011 Q741 1205 684.5 1277.5 Q628 1350 529 1350 Q430 1350 374.5 1278 Q319 1206 319 1011 L319 479 Z " />
<glyph glyph-name="omacron" unicode="&#x14d;" horiz-adv-x="1060" d="M926 507 Q926 238 815.5 109 Q705 -20 531 -20 Q357 -20 247 109 Q137 238 137 507 L137 667 Q137 936 247 1065 Q357 1194 531 1194 Q705 1194 815.5 1065 Q926 936 926 667 L926 507 Z M750 507 L750 667 Q750 875 688.5 954.5 Q627 1034 531 1034 Q435 1034 374 954.5 Q313 875 313 667 L313 507 Q313 299 374 219.5 Q435 140 531 140 Q627 140 688.5 219.5 Q750 299 750 507 Z M816 1446 L245 1446 L245 1580 L816 1580 L816 1446 Z " />
<glyph glyph-name="Obreve" unicode="&#x14e;" horiz-adv-x="1060" d="M808 1787 Q688 1680 530 1680 Q372 1680 252 1787 L252 1950 Q390 1824 530 1824 Q667 1824 808 1950 L808 1787 Z M142 479 L142 1011 Q142 1270 250 1390 Q358 1510 530 1510 Q702 1510 810 1390 Q918 1270 918 1011 L918 479 Q918 220 810 100 Q702 -20 530 -20 Q358 -19 250 100.5 Q142 220 142 479 Z M319 479 Q319 284 374.5 212 Q430 140 529 140 Q628 140 684.5 212.5 Q741 285 741 479 L741 1011 Q741 1205 684.5 1277.5 Q628 1350 529 1350 Q430 1350 374.5 1278 Q319 1206 319 1011 L319 479 Z " />
<glyph glyph-name="obreve" unicode="&#x14f;" horiz-adv-x="1060" d="M925 507 Q925 238 814.5 109 Q704 -20 530 -20 Q356 -20 246 109 Q136 238 136 507 L136 667 Q136 936 246 1065 Q356 1194 530 1194 Q704 1194 814.5 1065 Q925 936 925 667 L925 507 Z M749 507 L749 667 Q749 875 687.5 954.5 Q626 1034 530 1034 Q434 1034 373 954.5 Q312 875 312 667 L312 507 Q312 299 373 219.5 Q434 140 530 140 Q626 140 687.5 219.5 Q749 299 749 507 Z M808 1437 Q688 1330 530 1330 Q372 1330 252 1437 L252 1600 Q390 1474 530 1474 Q667 1474 808 1600 L808 1437 Z " />
<glyph glyph-name="Ohungarumlaut" unicode="&#x150;" horiz-adv-x="1060" d="M1076 1950 L840 1685 L676 1685 L865 1950 L1076 1950 Z M723 1950 L488 1685 L323 1685 L513 1950 L723 1950 Z M142 479 L142 1011 Q142 1270 250 1390 Q358 1510 530 1510 Q702 1510 810 1390 Q918 1270 918 1011 L918 479 Q918 220 810 100 Q702 -20 530 -20 Q358 -19 250 100.5 Q142 220 142 479 Z M319 479 Q319 284 374.5 212 Q430 140 529 140 Q628 140 684.5 212.5 Q741 285 741 479 L741 1011 Q741 1205 684.5 1277.5 Q628 1350 529 1350 Q430 1350 374.5 1278 Q319 1206 319 1011 L319 479 Z " />
<glyph glyph-name="ohungarumlaut" unicode="&#x151;" horiz-adv-x="1060" d="M925 507 Q925 238 814.5 109 Q704 -20 530 -20 Q356 -20 246 109 Q136 238 136 507 L136 667 Q136 936 246 1065 Q356 1194 530 1194 Q704 1194 814.5 1065 Q925 936 925 667 L925 507 Z M749 507 L749 667 Q749 875 687.5 954.5 Q626 1034 530 1034 Q434 1034 373 954.5 Q312 875 312 667 L312 507 Q312 299 373 219.5 Q434 140 530 140 Q626 140 687.5 219.5 Q749 299 749 507 Z M1066 1580 L830 1315 L666 1315 L855 1580 L1066 1580 Z M713 1580 L478 1315 L313 1315 L503 1580 L713 1580 Z " />
<glyph glyph-name="OE" unicode="&#x152;" horiz-adv-x="1060" d="M1010 0 L506 0 Q297 0 199 114.5 Q101 229 101 440 L101 1140 Q101 1351 199 1465.5 Q297 1580 506 1580 L1010 1580 L1010 1424 L709 1424 L709 905 L968 905 L968 748 L709 748 L709 157 L1010 157 L1010 0 Z M533 157 L533 1423 Q474 1424 469 1424 Q383 1424 330.5 1362.5 Q278 1301 278 1143 L278 438 Q278 281 331.5 219 Q385 157 471 157 L533 157 Z " />
<glyph glyph-name="oe" unicode="&#x153;" horiz-adv-x="1060" d="M1020 536 L614 536 L614 375 Q614 130 749 130 Q832 130 888 242 L1008 174 Q925 -20 749 -20 Q605 -20 534 116 Q462 -20 311 -20 Q192 -20 115.5 75.5 Q39 171 39 405 L39 767 Q39 1002 115.5 1098 Q192 1194 311 1194 Q462 1194 534 1063 Q604 1194 749 1194 Q868 1194 944 1098 Q1020 1002 1020 767 L1020 536 Z M853 657 L853 797 Q853 1043 734 1043 Q613 1043 613 797 L613 657 L853 657 Z M446 375 L446 797 Q446 1043 326 1043 Q206 1043 206 797 L206 375 Q206 130 326 130 Q446 130 446 375 Z " />
<glyph glyph-name="Racute" unicode="&#x154;" horiz-adv-x="1060" d="M839 1950 L604 1705 L440 1705 L619 1950 L839 1950 Z M550 690 L366 690 L366 0 L190 0 L190 1490 L535 1490 Q745 1490 847.5 1376.5 Q950 1263 950 1100 Q950 948 884.5 853.5 Q819 759 722 723 L740 694 Q937 417 958 70 L962 0 L786 0 L783 55 Q763 386 576 648 L550 690 Z M366 840 L534 840 Q656 840 712 902 Q768 964 768 1101 Q768 1216 712 1278 Q656 1340 534 1340 L366 1340 L366 840 Z " />
<glyph glyph-name="racute" unicode="&#x155;" horiz-adv-x="1060" d="M1004 974 L851 906 Q800 1034 676 1034 Q418 1034 418 553 L418 0 L242 0 L242 1172 L418 1172 L418 984 Q522 1194 704 1194 Q915 1194 1004 974 Z M920 1580 L685 1335 L521 1335 L700 1580 L920 1580 Z " />
<glyph glyph-name="Rcommaaccent" unicode="&#x156;" horiz-adv-x="1060" d="M538 720 L354 720 L354 0 L178 0 L178 1580 L523 1580 Q733 1580 835.5 1466 Q938 1352 938 1160 Q938 998 872.5 893.5 Q807 789 710 753 L728 724 Q925 417 946 70 L950 0 L774 0 L771 55 Q751 386 564 678 L538 720 Z M354 870 L522 870 Q644 870 700 942 Q756 1014 756 1161 Q756 1306 700 1368 Q644 1430 522 1430 L354 1430 L354 870 Z M659 -159 Q659 -241 582 -365 L468 -365 Q517 -296 535 -225 Q502 -224 478 -198 Q454 -172 454 -137 Q454 -103 478 -76.5 Q502 -50 553 -50 Q599 -50 629 -81.5 Q659 -113 659 -159 Z " />
<glyph glyph-name="rcommaaccent" unicode="&#x157;" horiz-adv-x="1060" d="M1004 974 L851 906 Q800 1034 676 1034 Q418 1034 418 553 L418 0 L242 0 L242 1172 L418 1172 L418 984 Q522 1194 704 1194 Q915 1194 1004 974 Z M436 -159 Q436 -241 359 -365 L245 -365 Q294 -296 312 -225 Q279 -224 255 -198 Q231 -172 231 -137 Q231 -103 255 -76.5 Q279 -50 330 -50 Q376 -50 406 -81.5 Q436 -113 436 -159 Z " />
<glyph glyph-name="Rcaron" unicode="&#x158;" horiz-adv-x="1060" d="M580 1685 L421 1685 L208 1950 L363 1950 L501 1808 L638 1950 L793 1950 L580 1685 Z M550 690 L366 690 L366 0 L190 0 L190 1490 L535 1490 Q745 1490 847.5 1376.5 Q950 1263 950 1100 Q950 948 884.5 853.5 Q819 759 722 723 L740 694 Q937 417 958 70 L962 0 L786 0 L783 55 Q763 386 576 648 L550 690 Z M366 840 L534 840 Q656 840 712 902 Q768 964 768 1101 Q768 1216 712 1278 Q656 1340 534 1340 L366 1340 L366 840 Z " />
<glyph glyph-name="rcaron" unicode="&#x159;" horiz-adv-x="1060" d="M1004 974 L851 906 Q800 1034 676 1034 Q418 1034 418 553 L418 0 L242 0 L242 1172 L418 1172 L418 984 Q522 1194 704 1194 Q915 1194 1004 974 Z M610 1315 L451 1315 L238 1580 L393 1580 L531 1438 L668 1580 L823 1580 L610 1315 Z " />
<glyph glyph-name="Sacute" unicode="&#x15a;" horiz-adv-x="1060" d="M899 1950 L664 1705 L500 1705 L679 1950 L899 1950 Z M949 369 Q949 208 842 94 Q735 -20 546 -20 Q247 -20 110 240 L240 339 Q343 140 545 140 Q638 140 705 197.5 Q772 255 772 368 Q772 470 636 574 L344 798 Q175 929 175 1130 Q175 1291 279.5 1400.5 Q384 1510 566 1510 Q803 1510 950 1294 L815 1188 Q728 1350 567 1350 Q475 1350 413.5 1297 Q352 1244 352 1131 Q352 1023 467 936 L760 710 Q949 564 949 369 Z " />
<glyph glyph-name="sacute" unicode="&#x15b;" horiz-adv-x="1060" d="M544 136 Q654 136 710.5 188 Q767 240 767 315 Q767 417 641 474 L416 578 Q206 677 206 861 Q206 1005 309.5 1099.5 Q413 1194 576 1194 Q811 1194 937 977 L793 890 Q727 1037 576 1037 Q486 1037 434 991.5 Q382 946 382 879 Q382 789 499 733 L712 634 Q943 527 943 306 Q943 176 835 78 Q727 -20 542 -20 Q283 -20 137 219 L282 307 Q368 136 544 136 Z M919 1580 L684 1335 L520 1335 L699 1580 L919 1580 Z " />
<glyph glyph-name="Scircumflex" unicode="&#x15c;" horiz-adv-x="1060" d="M852 1685 L697 1685 L560 1827 L422 1685 L267 1685 L480 1950 L639 1950 L852 1685 Z M949 369 Q949 208 842 94 Q735 -20 546 -20 Q247 -20 110 240 L240 339 Q343 140 545 140 Q638 140 705 197.5 Q772 255 772 368 Q772 470 636 574 L344 798 Q175 929 175 1130 Q175 1291 279.5 1400.5 Q384 1510 566 1510 Q803 1510 950 1294 L815 1188 Q728 1350 567 1350 Q475 1350 413.5 1297 Q352 1244 352 1131 Q352 1023 467 936 L760 710 Q949 564 949 369 Z " />
<glyph glyph-name="scircumflex" unicode="&#x15d;" horiz-adv-x="1060" d="M544 136 Q654 136 710.5 188 Q767 240 767 315 Q767 417 641 474 L416 578 Q206 677 206 861 Q206 1005 309.5 1099.5 Q413 1194 576 1194 Q811 1194 937 977 L793 890 Q727 1037 576 1037 Q486 1037 434 991.5 Q382 946 382 879 Q382 789 499 733 L712 634 Q943 527 943 306 Q943 176 835 78 Q727 -20 542 -20 Q283 -20 137 219 L282 307 Q368 136 544 136 Z M865 1315 L710 1315 L573 1457 L435 1315 L280 1315 L493 1580 L652 1580 L865 1315 Z " />
<glyph glyph-name="Scedilla" unicode="&#x15e;" horiz-adv-x="1060" d="M948 369 Q948 208 841 94 Q734 -20 545 -20 Q246 -20 109 240 L239 339 Q342 140 544 140 Q637 140 704 197.5 Q771 255 771 368 Q771 460 655 569 L316 886 Q174 1020 174 1222 Q174 1383 278.5 1492.5 Q383 1602 565 1602 Q802 1602 949 1386 L814 1280 Q727 1442 566 1442 Q474 1442 412.5 1389 Q351 1336 351 1223 Q351 1105 444 1019 L782 704 Q948 547 948 369 Z M363 -254 Q537 -269 537 -197 Q537 -137 436 -144 L483 -50 Q697 -58 697 -195 Q697 -279 629.5 -327 Q562 -375 363 -375 L363 -254 Z " />
<glyph glyph-name="scedilla" unicode="&#x15f;" horiz-adv-x="1060" d="M544 136 Q654 136 710.5 188 Q767 240 767 315 Q767 417 641 474 L416 578 Q206 677 206 861 Q206 1005 309.5 1099.5 Q413 1194 576 1194 Q811 1194 937 977 L793 890 Q727 1037 576 1037 Q486 1037 434 991.5 Q382 946 382 879 Q382 789 499 733 L712 634 Q943 527 943 306 Q943 176 835 78 Q727 -20 542 -20 Q283 -20 137 219 L282 307 Q368 136 544 136 Z M373 -254 Q547 -269 547 -197 Q547 -137 446 -144 L493 -50 Q707 -58 707 -195 Q707 -279 639.5 -327 Q572 -375 373 -375 L373 -254 Z " />
<glyph glyph-name="Scaron" unicode="&#x160;" horiz-adv-x="1060" d="M633 1685 L474 1685 L261 1950 L416 1950 L554 1808 L691 1950 L846 1950 L633 1685 Z M949 369 Q949 208 842 94 Q735 -20 546 -20 Q247 -20 110 240 L240 339 Q343 140 545 140 Q638 140 705 197.5 Q772 255 772 368 Q772 470 636 574 L344 798 Q175 929 175 1130 Q175 1291 279.5 1400.5 Q384 1510 566 1510 Q803 1510 950 1294 L815 1188 Q728 1350 567 1350 Q475 1350 413.5 1297 Q352 1244 352 1131 Q352 1023 467 936 L760 710 Q949 564 949 369 Z " />
<glyph glyph-name="scaron" unicode="&#x161;" horiz-adv-x="1060" d="M534 136 Q644 136 700.5 188 Q757 240 757 315 Q757 417 631 474 L406 578 Q196 677 196 861 Q196 1005 299.5 1099.5 Q403 1194 566 1194 Q801 1194 927 977 L783 890 Q717 1037 566 1037 Q476 1037 424 991.5 Q372 946 372 879 Q372 789 489 733 L702 634 Q933 527 933 306 Q933 176 825 78 Q717 -20 532 -20 Q273 -20 127 219 L272 307 Q358 136 534 136 Z M647 1315 L488 1315 L275 1580 L430 1580 L568 1438 L705 1580 L860 1580 L647 1315 Z " />
<glyph glyph-name="Tcommaaccent" unicode="&#x162;" horiz-adv-x="1060" d="M943 1430 L618 1430 L618 0 L442 0 L442 1430 L117 1430 L117 1580 L943 1580 L943 1430 Z M629 -159 Q629 -241 552 -365 L438 -365 Q487 -296 505 -225 Q472 -224 448 -198 Q424 -172 424 -137 Q424 -103 448 -76.5 Q472 -50 523 -50 Q569 -50 599 -81.5 Q629 -113 629 -159 Z " />
<glyph glyph-name="tcommaaccent" unicode="&#x163;" horiz-adv-x="1060" d="M976 164 Q853 -20 647 -20 Q511 -20 418 73 Q325 166 325 347 L325 1022 L128 1022 L128 1172 L325 1172 L325 1580 L501 1580 L501 1172 L897 1172 L897 1022 L501 1022 L501 335 Q501 239 542.5 189.5 Q584 140 657 140 Q780 140 843 261 L976 164 Z M739 -159 Q739 -241 662 -365 L548 -365 Q597 -296 615 -225 Q582 -224 558 -198 Q534 -172 534 -137 Q534 -103 558 -76.5 Q582 -50 633 -50 Q679 -50 709 -81.5 Q739 -113 739 -159 Z " />
<glyph glyph-name="Tcaron" unicode="&#x164;" horiz-adv-x="1060" d="M609 1685 L450 1685 L237 1950 L392 1950 L530 1808 L667 1950 L822 1950 L609 1685 Z M943 1340 L618 1340 L618 0 L442 0 L442 1340 L117 1340 L117 1490 L943 1490 L943 1340 Z " />
<glyph glyph-name="tcaron" unicode="&#x165;" horiz-adv-x="1060" d="M975 164 Q852 -20 646 -20 Q510 -20 417 73 Q324 166 324 347 L324 1015 L127 1015 L127 1172 L324 1172 L324 1580 L501 1580 L501 1172 L766 1172 L766 1015 L501 1015 L501 335 Q501 229 542 182.5 Q583 136 656 136 Q779 136 842 261 L975 164 Z M1045 1580 L976 1215 L831 1215 L875 1580 L1045 1580 Z " />
<glyph glyph-name="Tbar" unicode="&#x166;" horiz-adv-x="1060" d="M943 1423 L618 1423 L618 926 L914 926 L914 769 L618 769 L618 0 L441 0 L441 769 L145 769 L145 926 L441 926 L441 1423 L116 1423 L116 1580 L943 1580 L943 1423 Z " />
<glyph glyph-name="tbar" unicode="&#x167;" horiz-adv-x="1060" d="M975 164 Q852 -20 646 -20 Q510 -20 417 73 Q324 166 324 347 L324 605 L127 605 L127 762 L324 762 L324 1015 L127 1015 L127 1172 L324 1172 L324 1580 L501 1580 L501 1172 L896 1172 L896 1015 L501 1015 L501 762 L896 762 L896 605 L501 605 L501 335 Q501 229 542 182.5 Q583 136 656 136 Q779 136 842 261 L975 164 Z " />
<glyph glyph-name="Utilde" unicode="&#x168;" horiz-adv-x="1060" d="M896 1880 Q816 1684 658 1684 Q588 1684 511 1742.5 Q434 1801 396 1801 Q332 1801 250 1690 L163 1763 Q268 1950 406 1950 Q466 1950 541 1890.5 Q616 1831 668 1831 Q732 1831 793 1941 L896 1880 Z M910 474 Q910 218 799.5 99 Q689 -20 530 -20 Q371 -20 260.5 99 Q150 218 150 474 L150 1490 L326 1490 L326 474 Q326 278 384.5 209 Q443 140 529 140 Q615 140 674 209 Q733 278 733 474 L733 1490 L910 1490 L910 474 Z " />
<glyph glyph-name="utilde" unicode="&#x169;" horiz-adv-x="1060" d="M910 0 L734 0 L734 152 Q621 -20 461 -20 Q330 -20 240 78.5 Q150 177 150 432 L150 1172 L326 1172 L326 432 Q326 261 373.5 200.5 Q421 140 504 140 Q678 140 734 369 L734 1172 L910 1172 L910 0 Z M896 1530 Q816 1334 658 1334 Q588 1334 511 1392.5 Q434 1451 396 1451 Q332 1451 250 1340 L163 1413 Q268 1600 406 1600 Q466 1600 541 1540.5 Q616 1481 668 1481 Q732 1481 793 1591 L896 1530 Z " />
<glyph glyph-name="Umacron" unicode="&#x16a;" horiz-adv-x="1060" d="M816 1816 L245 1816 L245 1950 L816 1950 L816 1816 Z M910 474 Q910 218 799.5 99 Q689 -20 530 -20 Q371 -20 260.5 99 Q150 218 150 474 L150 1490 L326 1490 L326 474 Q326 278 384.5 209 Q443 140 529 140 Q615 140 674 209 Q733 278 733 474 L733 1490 L910 1490 L910 474 Z " />
<glyph glyph-name="umacron" unicode="&#x16b;" horiz-adv-x="1060" d="M910 0 L734 0 L734 152 Q621 -20 461 -20 Q330 -20 240 78.5 Q150 177 150 432 L150 1172 L326 1172 L326 432 Q326 261 373.5 200.5 Q421 140 504 140 Q678 140 734 369 L734 1172 L910 1172 L910 0 Z M816 1446 L245 1446 L245 1580 L816 1580 L816 1446 Z " />
<glyph glyph-name="Ubreve" unicode="&#x16c;" horiz-adv-x="1060" d="M808 1787 Q688 1680 530 1680 Q372 1680 252 1787 L252 1950 Q390 1824 530 1824 Q667 1824 808 1950 L808 1787 Z M910 474 Q910 218 799.5 99 Q689 -20 530 -20 Q371 -20 260.5 99 Q150 218 150 474 L150 1490 L326 1490 L326 474 Q326 278 384.5 209 Q443 140 529 140 Q615 140 674 209 Q733 278 733 474 L733 1490 L910 1490 L910 474 Z " />
<glyph glyph-name="ubreve" unicode="&#x16d;" horiz-adv-x="1060" d="M910 0 L734 0 L734 152 Q621 -20 461 -20 Q330 -20 240 78.5 Q150 177 150 432 L150 1172 L326 1172 L326 432 Q326 261 373.5 200.5 Q421 140 504 140 Q678 140 734 369 L734 1172 L910 1172 L910 0 Z M808 1437 Q688 1330 530 1330 Q372 1330 252 1437 L252 1600 Q390 1474 530 1474 Q667 1474 808 1600 L808 1437 Z " />
<glyph glyph-name="Uring" unicode="&#x16e;" horiz-adv-x="1060" d="M751 1770 Q751 1695 699 1642.5 Q647 1590 530 1590 Q413 1590 361 1642.5 Q309 1695 309 1770 Q309 1845 361 1897.5 Q413 1950 530 1950 Q647 1950 699 1897.5 Q751 1845 751 1770 Z M627 1770 Q627 1800 605 1818 Q583 1836 530 1836 Q476 1836 454.5 1818 Q433 1800 433 1770 Q433 1740 454.5 1722 Q476 1704 530 1704 Q583 1704 605 1722 Q627 1740 627 1770 Z M910 474 Q910 218 799.5 99 Q689 -20 530 -20 Q371 -20 260.5 99 Q150 218 150 474 L150 1490 L326 1490 L326 474 Q326 278 384.5 209 Q443 140 529 140 Q615 140 674 209 Q733 278 733 474 L733 1490 L910 1490 L910 474 Z " />
<glyph glyph-name="uring" unicode="&#x16f;" horiz-adv-x="1060" d="M910 0 L734 0 L734 152 Q621 -20 461 -20 Q330 -20 240 78.5 Q150 177 150 432 L150 1172 L326 1172 L326 432 Q326 261 373.5 200.5 Q421 140 504 140 Q678 140 734 369 L734 1172 L910 1172 L910 0 Z M751 1420 Q751 1345 699 1292.5 Q647 1240 530 1240 Q413 1240 361 1292.5 Q309 1345 309 1420 Q309 1495 361 1547.5 Q413 1600 530 1600 Q647 1600 699 1547.5 Q751 1495 751 1420 Z M627 1420 Q627 1450 605 1468 Q583 1486 530 1486 Q476 1486 454.5 1468 Q433 1450 433 1420 Q433 1390 454.5 1372 Q476 1354 530 1354 Q583 1354 605 1372 Q627 1390 627 1420 Z " />
<glyph glyph-name="Uhungarumlaut" unicode="&#x170;" horiz-adv-x="1060" d="M1056 1950 L820 1685 L656 1685 L845 1950 L1056 1950 Z M703 1950 L468 1685 L303 1685 L493 1950 L703 1950 Z M910 474 Q910 218 799.5 99 Q689 -20 530 -20 Q371 -20 260.5 99 Q150 218 150 474 L150 1490 L326 1490 L326 474 Q326 278 384.5 209 Q443 140 529 140 Q615 140 674 209 Q733 278 733 474 L733 1490 L910 1490 L910 474 Z " />
<glyph glyph-name="uhungarumlaut" unicode="&#x171;" horiz-adv-x="1060" d="M910 0 L734 0 L734 152 Q621 -20 461 -20 Q330 -20 240 78.5 Q150 177 150 432 L150 1172 L326 1172 L326 432 Q326 261 373.5 200.5 Q421 140 504 140 Q678 140 734 369 L734 1172 L910 1172 L910 0 Z M1056 1580 L820 1315 L656 1315 L845 1580 L1056 1580 Z M703 1580 L468 1315 L303 1315 L493 1580 L703 1580 Z " />
<glyph glyph-name="Uogonek" unicode="&#x172;" horiz-adv-x="1060" d="M910 474 Q910 218 799.5 99 Q689 -20 530 -20 Q371 -20 260.5 99 Q150 218 150 474 L150 1580 L326 1580 L326 474 Q326 278 384.5 209 Q443 140 529 140 Q615 140 674 209 Q733 278 733 474 L733 1580 L910 1580 L910 474 Z M670 -369 Q515 -375 430 -315.5 Q345 -256 345 -162 Q345 -61 463 0 L639 0 Q508 -55 508 -144 Q508 -193 554.5 -219.5 Q601 -246 670 -239 L670 -369 Z " />
<glyph glyph-name="uogonek" unicode="&#x173;" horiz-adv-x="1060" d="M910 0 L734 0 L734 152 Q621 -20 461 -20 Q330 -20 240 78.5 Q150 177 150 432 L150 1172 L326 1172 L326 432 Q326 261 373.5 200.5 Q421 140 504 140 Q678 140 734 369 L734 1172 L910 1172 L910 0 Z M942 -369 Q787 -375 702 -315.5 Q617 -256 617 -162 Q617 -61 735 0 L911 0 Q780 -55 780 -144 Q780 -193 826.5 -219.5 Q873 -246 942 -239 L942 -369 Z " />
<glyph glyph-name="Wcircumflex" unicode="&#x174;" horiz-adv-x="1060" d="M822 1685 L667 1685 L530 1827 L392 1685 L237 1685 L450 1950 L609 1950 L822 1685 Z M737 95 L764 468 Q779 675 779 937 L779 1490 L955 1490 L955 1199 Q955 810 900 468 L826 0 L660 0 L530 612 L400 0 L234 0 L160 468 Q105 810 105 1199 L105 1490 L281 1490 L281 937 Q281 675 296 468 L323 95 L474 807 L586 807 L737 95 Z " />
<glyph glyph-name="wcircumflex" unicode="&#x175;" horiz-adv-x="1060" d="M726 97 L767 477 Q793 714 793 963 L793 1172 L965 1172 L965 1017 Q965 804 905 477 L818 0 L652 0 L530 528 L408 0 L242 0 L155 477 Q95 804 95 1017 L95 1172 L267 1172 L267 963 Q267 714 293 477 L334 97 L474 700 L586 700 L726 97 Z M822 1315 L667 1315 L530 1457 L392 1315 L237 1315 L450 1580 L609 1580 L822 1315 Z " />
<glyph glyph-name="Ycircumflex" unicode="&#x176;" horiz-adv-x="1060" d="M822 1685 L667 1685 L530 1827 L392 1685 L237 1685 L450 1950 L609 1950 L822 1685 Z M618 0 L442 0 L442 583 L272 893 Q98 1210 98 1417 L98 1490 L274 1490 L274 1417 Q274 1239 406 982 L530 735 L654 982 Q786 1239 786 1417 L786 1490 L962 1490 L962 1417 Q962 1210 788 893 L618 583 L618 0 Z " />
<glyph glyph-name="ycircumflex" unicode="&#x177;" horiz-adv-x="1060" d="M314 -189 L448 160 L205 758 Q118 973 111 1082 L106 1172 L282 1172 L287 1088 Q291 1017 368 808 L530 365 L693 802 Q768 1013 773 1088 L778 1172 L954 1172 L948 1082 Q943 985 855 758 L481 -212 Q462 -261 458 -327 L456 -365 L280 -365 L282 -327 Q286 -261 314 -189 Z M822 1315 L667 1315 L530 1457 L392 1315 L237 1315 L450 1580 L609 1580 L822 1315 Z " />
<glyph glyph-name="Ydieresis" unicode="&#x178;" horiz-adv-x="1060" d="M839 1836 Q839 1789 805.5 1754.5 Q772 1720 723 1720 Q674 1720 641.5 1754.5 Q609 1789 609 1836 Q609 1882 641.5 1916 Q674 1950 723 1950 Q772 1950 805.5 1916 Q839 1882 839 1836 Z M452 1836 Q452 1789 419 1754.5 Q386 1720 337 1720 Q288 1720 255 1754.5 Q222 1789 222 1836 Q222 1882 255 1916 Q288 1950 337 1950 Q386 1950 419 1916 Q452 1882 452 1836 Z M618 0 L442 0 L442 583 L272 893 Q98 1210 98 1417 L98 1490 L274 1490 L274 1417 Q274 1239 406 982 L530 735 L654 982 Q786 1239 786 1417 L786 1490 L962 1490 L962 1417 Q962 1210 788 893 L618 583 L618 0 Z " />
<glyph glyph-name="Zacute" unicode="&#x179;" horiz-adv-x="1060" d="M879 1950 L644 1705 L480 1705 L659 1950 L879 1950 Z M944 0 L155 0 L155 150 L746 1340 L155 1340 L155 1490 L934 1490 L934 1340 L343 150 L944 150 L944 0 Z " />
<glyph glyph-name="zacute" unicode="&#x17a;" horiz-adv-x="1060" d="M901 0 L113 0 L113 150 L679 1022 L122 1022 L122 1172 L879 1172 L879 1022 L313 150 L901 150 L901 0 Z M839 1580 L604 1335 L440 1335 L619 1580 L839 1580 Z " />
<glyph glyph-name="Zdotaccent" unicode="&#x17b;" horiz-adv-x="1060" d="M665 1815 Q665 1759 625 1719.5 Q585 1680 529 1680 Q473 1680 433.5 1719.5 Q394 1759 394 1815 Q394 1872 433.5 1911 Q473 1950 529 1950 Q585 1950 625 1911 Q665 1872 665 1815 Z M944 0 L155 0 L155 150 L746 1340 L155 1340 L155 1490 L934 1490 L934 1340 L343 150 L944 150 L944 0 Z " />
<glyph glyph-name="zdotaccent" unicode="&#x17c;" horiz-adv-x="1060" d="M901 0 L113 0 L113 150 L679 1022 L122 1022 L122 1172 L879 1172 L879 1022 L313 150 L901 150 L901 0 Z M652 1445 Q652 1389 612 1349.5 Q572 1310 516 1310 Q460 1310 420.5 1349.5 Q381 1389 381 1445 Q381 1502 420.5 1541 Q460 1580 516 1580 Q572 1580 612 1541 Q652 1502 652 1445 Z " />
<glyph glyph-name="Zcaron" unicode="&#x17d;" horiz-adv-x="1060" d="M619 1685 L460 1685 L247 1950 L402 1950 L540 1808 L677 1950 L832 1950 L619 1685 Z M944 0 L155 0 L155 150 L746 1340 L155 1340 L155 1490 L934 1490 L934 1340 L343 150 L944 150 L944 0 Z " />
<glyph glyph-name="zcaron" unicode="&#x17e;" horiz-adv-x="1060" d="M916 0 L128 0 L128 150 L694 1022 L137 1022 L137 1172 L894 1172 L894 1022 L328 150 L916 150 L916 0 Z M609 1315 L450 1315 L237 1580 L392 1580 L530 1438 L667 1580 L822 1580 L609 1315 Z " />
<glyph glyph-name="slong" unicode="&#x17f;" horiz-adv-x="1060" d="M841 1362 Q800 1445 688 1445 Q615 1445 574 1398 Q533 1351 533 1245 L533 0 L356 0 L356 950 L159 950 L159 1107 L356 1107 L356 1234 Q356 1414 449 1507.5 Q542 1601 677 1601 Q884 1601 974 1459 L841 1362 Z " />
<glyph glyph-name="bbar" unicode="&#x180;" horiz-adv-x="1060" d="M49 1414 L175 1414 L175 1580 L351 1580 L351 1414 L603 1414 L603 1266 L351 1266 L351 947 Q464 1099 603 1099 Q738 1099 839 986.5 Q940 874 940 604 L940 474 Q940 205 839 92.5 Q738 -20 603 -20 Q464 -20 351 131 L351 0 L175 0 L175 1266 L49 1266 L49 1414 Z M351 299 Q427 136 561 136 Q664 136 711.5 206.5 Q759 277 759 463 L759 615 Q759 801 711.5 871 Q664 941 561 941 Q427 941 351 789 L351 299 Z " />
<glyph glyph-name="Bhook" unicode="&#x181;" horiz-adv-x="1060" d="M198 1172 L51 1172 L51 1292 Q51 1424 120 1502 Q189 1580 358 1580 L536 1580 Q738 1580 840 1471 Q942 1362 942 1201 L942 1152 Q942 1048 886 964 Q826 882 748 859 Q875 814 932 727 Q985 647 985 524 L985 401 Q985 218 872 109 Q759 0 579 0 L335 0 L335 1424 L319 1424 Q252 1424 225 1390.5 Q198 1357 198 1293 L198 1172 Z M808 400 L808 526 Q808 646 747 708 Q686 770 579 770 L511 770 L511 157 L578 157 Q685 157 746.5 213.5 Q808 270 808 400 Z M765 1159 L765 1202 Q765 1310 709 1367 Q653 1424 535 1424 L511 1424 L511 926 L535 926 Q642 926 703.5 988 Q765 1050 765 1159 Z " />
<glyph glyph-name="Btopbar" unicode="&#x182;" horiz-adv-x="1060" d="M831 1424 L341 1424 L341 976 L529 976 Q709 976 822 866.5 Q935 757 935 556 L935 420 Q935 218 822 109 Q709 0 529 0 L165 0 L165 1580 L831 1580 L831 1424 Z M758 420 L758 556 Q758 696 697 758 Q636 820 529 820 L341 820 L341 157 L528 157 Q635 157 696.5 213.5 Q758 270 758 420 Z " />
<glyph glyph-name="btopbar" unicode="&#x183;" horiz-adv-x="1060" d="M166 0 L166 1580 L831 1580 L831 1424 L342 1424 L342 967 Q454 1119 604 1119 Q734 1119 834.5 1006.5 Q935 894 935 624 L935 474 Q935 205 834.5 92.5 Q734 -20 604 -20 Q454 -20 342 131 L342 0 L166 0 Z M759 463 L759 635 Q759 831 712 896 Q665 961 561 961 Q436 961 342 829 L342 269 Q437 136 561 136 Q665 136 712 201.5 Q759 267 759 463 Z " />
<glyph glyph-name="Tonesix" unicode="&#x184;" horiz-adv-x="1060" d="M461 976 L539 976 Q709 976 822 866.5 Q935 757 935 556 L935 420 Q935 218 822 109 Q709 0 539 0 L285 0 L285 1424 L52 1424 L52 1580 L461 1580 L461 976 Z M758 420 L758 556 Q758 696 697 758 Q636 820 539 820 L461 820 L461 157 L538 157 Q635 157 696.5 213.5 Q758 270 758 420 Z " />
<glyph glyph-name="tonesix" unicode="&#x185;" horiz-adv-x="1060" d="M461 746 L549 746 Q709 746 822 651.5 Q935 557 935 381 Q935 218 822 109 Q709 0 529 0 L285 0 L285 1016 L52 1016 L52 1172 L461 1172 L461 746 Z M758 370 Q758 486 702.5 538 Q647 590 529 590 L461 590 L461 157 L528 157 Q635 157 696.5 213.5 Q758 270 758 370 Z " />
<glyph glyph-name="Oopen" unicode="&#x186;" horiz-adv-x="1060" d="M198 331 Q287 140 457 140 Q555 140 620.5 212 Q686 284 686 519 L686 1063 Q686 1298 620.5 1370 Q555 1442 457 1442 Q287 1442 208 1259 L64 1346 Q191 1602 457 1602 Q627 1602 745 1482 Q863 1362 863 1063 L863 519 Q863 210 745 95 Q627 -20 457 -20 Q201 -20 54 234 L198 331 Z " />
<glyph glyph-name="Chook" unicode="&#x187;" horiz-adv-x="1060" d="M881 1293 L724 1293 Q668 1445 524 1445 Q430 1445 377 1371.5 Q324 1298 324 1063 L324 519 Q324 284 389.5 212 Q455 140 554 140 Q723 140 812 331 L956 234 Q809 -20 555 -20 Q383 -20 265 95 Q147 210 147 519 L147 1063 Q147 1362 250 1482 Q353 1602 524 1602 Q647 1602 734 1512 Q734 1683 803 1761 Q872 1839 1001 1839 L1028 1839 L1028 1681 L1002 1681 Q935 1681 908 1648.5 Q881 1616 881 1552 L881 1293 Z " />
<glyph glyph-name="chook" unicode="&#x188;" horiz-adv-x="1060" d="M862 884 L715 884 Q666 1036 524 1036 Q450 1036 388.5 974 Q327 912 327 772 L327 401 Q327 260 388.5 198.5 Q450 137 547 137 Q692 137 779 288 L912 195 Q777 -20 547 -20 Q377 -20 263.5 94 Q150 208 150 476 L150 697 Q150 965 263.5 1079.5 Q377 1194 524 1194 Q643 1194 715 1119 Q715 1274 784 1352 Q853 1430 982 1430 L1009 1430 L1009 1272 L983 1272 Q916 1272 889 1239.5 Q862 1207 862 1143 L862 884 Z " />
<glyph glyph-name="Dafrican" unicode="&#x189;" horiz-adv-x="1060" d="M939 648 Q939 339 796.5 169.5 Q654 0 412 0 L181 0 L181 771 L67 771 L67 905 L181 905 L181 1580 L412 1580 Q654 1580 796.5 1420.5 Q939 1261 939 953 L939 648 Z M544 771 L356 771 L356 157 L414 157 Q571 157 664 279 Q757 401 757 648 L757 953 Q757 1200 664 1312 Q571 1424 414 1424 L356 1424 L356 905 L544 905 L544 771 Z " />
<glyph glyph-name="Dhook" unicode="&#x18a;" horiz-adv-x="1060" d="M198 1172 L51 1172 L51 1292 Q51 1424 120 1502 Q189 1580 368 1580 L522 1580 Q704 1580 816.5 1465.5 Q929 1351 929 1053 L929 528 Q929 229 816.5 114.5 Q704 0 562 0 L341 0 L341 1424 Q252 1424 225 1390.5 Q198 1357 198 1293 L198 1172 Z M752 453 L752 1128 Q752 1300 690.5 1362 Q629 1424 561 1424 L516 1424 L516 157 L561 157 Q629 157 690.5 219 Q752 281 752 453 Z " />
<glyph glyph-name="Dtopbar" unicode="&#x18b;" horiz-adv-x="1060" d="M229 1580 L895 1580 L895 0 L531 0 Q351 0 238 109 Q125 218 125 420 L125 556 Q125 757 238 866.5 Q351 976 531 976 L719 976 L719 1424 L229 1424 L229 1580 Z M302 420 Q302 270 363.5 213.5 Q425 157 532 157 L719 157 L719 820 L531 820 Q424 820 363 758 Q302 696 302 556 L302 420 Z " />
<glyph glyph-name="dtopbar" unicode="&#x18c;" horiz-adv-x="1060" d="M718 0 L718 131 Q606 -20 456 -20 Q326 -20 225.5 92.5 Q125 205 125 474 L125 624 Q125 894 225.5 1006.5 Q326 1119 456 1119 Q606 1119 718 967 L718 1424 L229 1424 L229 1580 L894 1580 L894 0 L718 0 Z M301 463 Q301 267 348 201.5 Q395 136 499 136 Q623 136 718 269 L718 829 Q624 961 499 961 Q395 961 348 896 Q301 831 301 635 L301 463 Z " />
<glyph glyph-name="deltaturned" unicode="&#x18d;" horiz-adv-x="1060" d="M162 -208 L733 -208 Q733 -158 663 -93 L371 170 Q143 385 143 687 Q143 936 253.5 1065 Q364 1194 538 1194 Q712 1194 822 1065 Q932 936 932 687 Q932 371 648 137 L776 22 Q909 -100 909 -276 L909 -365 L162 -365 L162 -208 Z M319 687 Q319 411 527 246 Q756 414 756 687 Q756 875 695 954.5 Q634 1034 538 1034 Q442 1034 380.5 954.5 Q319 875 319 687 Z " />
<glyph glyph-name="Ereversed" unicode="&#x18e;" horiz-adv-x="1060" d="M136 157 L708 157 L708 748 L280 748 L280 905 L708 905 L708 1424 L136 1424 L136 1580 L884 1580 L884 0 L136 0 L136 157 Z " />
<glyph glyph-name="Schwa" unicode="&#x18f;" horiz-adv-x="1060" d="M135 926 L748 926 L748 1033 Q748 1280 682.5 1362.5 Q617 1445 528 1445 Q362 1445 285 1294 L152 1387 Q287 1602 529 1602 Q688 1602 806 1467 Q924 1332 924 1033 L924 568 Q924 259 806 119.5 Q688 -20 529 -20 Q370 -20 252.5 119.5 Q135 259 135 568 L135 926 Z M311 770 L311 568 Q311 310 375.5 224 Q440 138 529 138 Q618 138 683 224.5 Q748 311 748 568 L748 770 L311 770 Z " />
<glyph glyph-name="Eopen" unicode="&#x190;" horiz-adv-x="1060" d="M975 240 Q829 -20 557 -20 Q376 -20 258 104 Q140 228 140 466 Q140 769 382 837 Q172 928 172 1182 Q172 1373 279.5 1487.5 Q387 1602 557 1602 Q798 1602 944 1341 L800 1245 Q726 1442 558 1442 Q467 1442 408 1380 Q349 1318 349 1182 Q349 1043 422.5 977.5 Q496 912 588 912 L665 912 L665 762 L588 762 Q480 762 398.5 700 Q317 638 317 466 Q317 284 386 212 Q455 140 558 140 Q757 140 831 336 L975 240 Z " />
<glyph glyph-name="Fhook" unicode="&#x191;" horiz-adv-x="1060" d="M137 -218 Q181 -218 213.5 -191 Q246 -164 246 -78 L246 1580 L944 1580 L944 1424 L422 1424 L422 905 L832 905 L832 748 L422 748 L422 -78 Q422 -227 344 -296 Q266 -365 154 -365 L59 -365 L59 -218 L137 -218 Z " />
<glyph glyph-name="florin" unicode="&#x192;" horiz-adv-x="1060" d="M962 1437 L831 1341 Q774 1434 656 1434 Q583 1434 536.5 1382.5 Q490 1331 490 1215 L490 1022 L874 1022 L874 865 L481 865 L393 -232 L225 -232 L313 865 L106 865 L106 1022 L313 1022 L313 1214 Q313 1393 411.5 1497 Q510 1601 656 1601 Q842 1601 962 1437 Z " />
<glyph glyph-name="Ghook" unicode="&#x193;" horiz-adv-x="1060" d="M139 1103 Q139 1363 250 1482.5 Q361 1602 522 1602 Q645 1602 732 1512 Q732 1683 801 1761 Q870 1839 999 1839 L1026 1839 L1026 1681 L1000 1681 Q933 1681 906 1648.5 Q879 1616 879 1552 L879 1293 L722 1293 Q666 1442 522 1442 Q435 1442 375.5 1370 Q316 1298 316 1103 L316 479 Q316 285 372.5 212.5 Q429 140 530 140 Q628 140 688.5 212.5 Q749 285 749 480 L749 695 L562 695 L562 845 L925 845 L925 479 Q925 220 812.5 100 Q700 -20 530 -20 Q360 -20 249.5 100 Q139 220 139 479 L139 1103 Z " />
<glyph glyph-name="hv" unicode="&#x195;" horiz-adv-x="1060" d="M959 573 Q959 -20 662 -20 Q453 -20 453 317 L453 905 Q453 1046 385 1046 Q308 1046 255 939 L255 0 L101 0 L101 1580 L255 1580 L255 1057 Q333 1194 438 1194 Q607 1194 607 893 L607 269 Q607 128 675 128 Q805 128 805 487 L805 1172 L959 1172 L959 573 Z " />
<glyph glyph-name="Iotaafrican" unicode="&#x196;" horiz-adv-x="1060" d="M303 1580 L480 1580 L480 430 Q480 280 541.5 218 Q603 156 689 156 L900 156 L900 0 L688 0 Q529 0 416 114 Q303 228 303 485 L303 1580 Z " />
<glyph glyph-name="Ibar" unicode="&#x197;" horiz-adv-x="1060" d="M825 785 L629 785 L629 157 L880 157 L880 0 L200 0 L200 157 L452 157 L452 785 L254 785 L254 919 L452 919 L452 1424 L240 1424 L240 1580 L629 1580 L629 919 L825 919 L825 785 Z " />
<glyph glyph-name="Khook" unicode="&#x198;" horiz-adv-x="1060" d="M550 922 L807 487 Q965 220 974 70 L978 0 L802 0 L799 55 Q791 194 668 401 L449 769 L334 539 L334 0 L158 0 L158 1580 L334 1580 L334 840 L597 1366 Q702 1580 930 1580 L997 1580 L997 1433 L930 1433 Q808 1433 750 1317 L550 922 Z " />
<glyph glyph-name="khook" unicode="&#x199;" horiz-adv-x="1060" d="M185 0 L185 1201 Q185 1381 283 1480.5 Q381 1580 549 1580 L626 1580 L626 1433 L549 1433 Q443 1433 402 1380 Q361 1327 361 1211 L361 609 L620 928 Q749 1087 753 1172 L929 1172 L927 1134 Q921 1041 752 834 L611 661 L793 397 Q960 156 967 41 L970 0 L794 0 Q786 129 667 301 L492 552 L361 392 L361 0 L185 0 Z " />
<glyph glyph-name="lbar" unicode="&#x19a;" horiz-adv-x="1060" d="M825 785 L629 785 L629 157 L880 157 L880 0 L200 0 L200 157 L452 157 L452 785 L254 785 L254 919 L452 919 L452 1424 L240 1424 L240 1580 L629 1580 L629 919 L825 919 L825 785 Z " />
<glyph glyph-name="lambdabar" unicode="&#x19b;" horiz-adv-x="1060" d="M326 1329 Q286 1433 280 1537 L278 1580 L454 1580 L456 1537 Q462 1433 493 1352 L855 414 Q943 187 948 90 L954 0 L778 0 L773 84 Q768 159 693 370 L530 807 L368 364 Q291 155 287 84 L282 0 L106 0 L111 90 Q118 199 205 414 L448 1012 L326 1329 Z " />
<glyph glyph-name="Mturned" unicode="&#x19c;" horiz-adv-x="1060" d="M101 1580 L255 1580 L255 267 Q258 126 326 126 Q406 126 453 233 L453 1580 L607 1580 L607 267 Q609 126 675 126 Q752 126 805 233 L805 1580 L959 1580 L959 0 L805 0 L805 115 Q727 -22 622 -22 Q513 -22 472 108 Q396 -22 286 -22 Q101 -22 101 279 L101 1580 Z " />
<glyph glyph-name="Nhookleft" unicode="&#x19d;" horiz-adv-x="1060" d="M150 -78 L150 1580 L326 1580 L770 724 L734 1531 L734 1580 L910 1580 L910 0 L748 0 L734 478 L311 1279 L326 527 L326 -78 Q326 -227 248 -296 Q170 -365 58 -365 L-37 -365 L-37 -218 L41 -218 Q85 -218 117.5 -191 Q150 -164 150 -78 Z " />
<glyph glyph-name="nleg" unicode="&#x19e;" horiz-adv-x="1060" d="M915 -365 L739 -365 L739 790 Q739 912 693 969 Q644 1031 561 1031 Q416 1031 321 899 L321 0 L145 0 L145 1172 L321 1172 L321 1037 Q434 1189 604 1189 Q735 1189 825 1092 Q915 995 915 790 L915 -365 Z " />
<glyph glyph-name="Obar" unicode="&#x19f;" horiz-adv-x="1060" d="M132 479 L132 1103 Q132 1362 240 1482 Q348 1602 530 1602 Q702 1602 815 1482 Q928 1362 928 1103 L928 479 Q928 220 815 100 Q702 -20 530 -20 Q348 -19 240 100.5 Q132 220 132 479 Z M309 479 Q309 284 369.5 212 Q430 140 529 140 Q628 140 689.5 212.5 Q751 285 751 479 L751 766 L309 766 L309 479 Z M751 1103 Q751 1297 689.5 1369.5 Q628 1442 529 1442 Q430 1442 369.5 1370 Q309 1298 309 1103 L309 920 L751 920 L751 1103 Z " />
<glyph glyph-name="Ohorn" unicode="&#x1a0;" horiz-adv-x="1060" d="M903 1748 L1060 1748 L1060 1628 Q1060 1516 991 1438 Q933 1372 814 1362 Q848 1260 848 1103 L848 479 Q848 220 750 100 Q652 -20 480 -20 Q308 -20 210 100 Q112 220 112 479 L112 1103 Q112 1362 210 1482 Q308 1602 480 1602 Q677 1602 775 1446 Q903 1444 903 1617 L903 1748 Z M289 479 Q289 282 334.5 211 Q380 140 479 140 Q578 140 624.5 211 Q671 282 671 479 L671 1103 Q671 1297 624.5 1369.5 Q578 1442 479 1442 Q380 1442 334.5 1370 Q289 1298 289 1103 L289 479 Z " />
<glyph glyph-name="ohorn" unicode="&#x1a1;" horiz-adv-x="1060" d="M895 507 Q895 238 784.5 109 Q674 -20 500 -20 Q326 -20 216 109 Q106 238 106 507 L106 667 Q106 936 216 1065 Q326 1194 500 1194 Q687 1194 797 1048 Q847 1057 866 1088 Q893 1132 893 1216 L893 1347 L1040 1347 L1040 1227 Q1040 1115 971 1037 Q925 985 844 967 Q895 849 895 667 L895 507 Z M719 507 L719 667 Q719 875 657.5 954.5 Q596 1034 500 1034 Q404 1034 343 954.5 Q282 875 282 667 L282 507 Q282 299 343 219.5 Q404 140 500 140 Q596 140 657.5 219.5 Q719 299 719 507 Z " />
<glyph glyph-name="OI" unicode="&#x1a2;" horiz-adv-x="1060" d="M648 1407 Q679 1321 679 1204 L679 378 Q679 199 606.5 89.5 Q534 -20 387 -20 Q242 -19 169.5 90 Q97 199 97 378 L97 1204 Q97 1383 169.5 1492.5 Q242 1602 387 1602 Q529 1602 599 1502 Q672 1602 782 1602 Q967 1602 967 1301 L967 -365 L811 -365 L811 1313 Q811 1454 735 1454 Q685 1454 648 1407 Z M254 365 Q254 139 387 136 Q522 136 522 365 L522 1217 Q522 1445 388 1445 Q254 1445 254 1217 L254 365 Z " />
<glyph glyph-name="oi" unicode="&#x1a3;" horiz-adv-x="1060" d="M648 999 Q679 913 679 796 L679 378 Q679 199 606.5 89.5 Q534 -20 387 -20 Q242 -19 169.5 90 Q97 199 97 378 L97 796 Q97 975 169.5 1084.5 Q242 1194 387 1194 Q529 1194 599 1094 Q672 1194 782 1194 Q967 1194 967 893 L967 -365 L811 -365 L811 905 Q811 1046 735 1046 Q685 1046 648 999 Z M254 365 Q254 139 387 136 Q522 136 522 365 L522 809 Q522 1037 388 1037 Q254 1037 254 809 L254 365 Z " />
<glyph glyph-name="Phook" unicode="&#x1a4;" horiz-adv-x="1060" d="M509 0 L333 0 L333 1430 L319 1430 Q252 1430 225 1396.5 Q198 1363 198 1292 L198 1172 L51 1172 L51 1292 Q51 1424 120 1502 Q185 1576 333 1580 L557 1580 Q768 1580 875.5 1465.5 Q983 1351 983 1160 Q983 946 865 831.5 Q747 717 557 717 L509 717 L509 0 Z M509 867 L556 867 Q678 867 739.5 929 Q801 991 801 1160 Q801 1306 744.5 1368 Q688 1430 556 1430 L509 1430 L509 867 Z " />
<glyph glyph-name="uni01A5" unicode="&#x1a5;" horiz-adv-x="1060" d="M342 1223 L342 967 Q454 1119 604 1119 Q734 1119 834.5 1006.5 Q935 894 935 624 L935 474 Q935 205 834.5 92.5 Q734 -20 604 -20 Q454 -20 342 131 L342 -365 L166 -365 L166 1222 Q166 1383 270.5 1492.5 Q375 1602 540 1602 Q760 1602 907 1386 L772 1292 Q685 1445 541 1445 Q466 1445 404 1392 Q342 1339 342 1223 Z M759 463 L759 635 Q759 831 712 896 Q665 961 561 961 Q436 961 342 829 L342 269 Q437 136 561 136 Q665 136 712 201.5 Q759 267 759 463 Z " />
<glyph glyph-name="YR" unicode="&#x1a6;" horiz-adv-x="1060" d="M498 510 L353 510 L353 0 L177 0 L177 1580 L353 1580 L353 1302 L522 1302 Q732 1302 834.5 1193 Q937 1084 937 912 Q937 783 872.5 681 Q808 579 673 529 L832 209 Q954 -38 965 -208 L969 -278 L793 -278 L790 -223 Q779 -53 693 123 L498 510 Z M755 913 Q755 1032 699 1092 Q643 1152 521 1152 L353 1152 L353 660 L520 660 Q637 660 696 725.5 Q755 791 755 913 Z " />
<glyph glyph-name="Tonetwo" unicode="&#x1a7;" horiz-adv-x="1060" d="M111 369 Q111 547 277 704 L615 1019 Q708 1105 708 1223 Q708 1336 646.5 1389 Q585 1442 493 1442 Q332 1442 245 1280 L110 1386 Q257 1602 494 1602 Q676 1602 780.5 1492.5 Q885 1383 885 1222 Q885 1020 743 886 L404 569 Q288 460 288 368 Q288 255 355 197.5 Q422 140 515 140 Q717 140 820 339 L950 240 Q813 -20 514 -20 Q325 -20 218 94 Q111 208 111 369 Z " />
<glyph glyph-name="tonetwo" unicode="&#x1a8;" horiz-adv-x="1060" d="M143 977 Q269 1194 504 1194 Q667 1194 770.5 1099.5 Q874 1005 874 861 Q874 677 664 578 L439 474 Q313 417 313 315 Q313 240 369.5 188 Q426 136 536 136 Q712 136 798 307 L943 219 Q797 -20 538 -20 Q353 -20 245 78 Q137 176 137 306 Q137 527 368 634 L581 733 Q698 789 698 879 Q698 946 646 991.5 Q594 1037 504 1037 Q353 1037 287 890 L143 977 Z " />
<glyph glyph-name="Esh" unicode="&#x1a9;" horiz-adv-x="1060" d="M584 812 L148 1403 L148 1580 L933 1580 L933 1423 L346 1423 L779 812 L346 157 L933 157 L933 0 L148 0 L148 177 L584 812 Z " />
<glyph glyph-name="tpalatalhook" unicode="&#x1ab;" horiz-adv-x="1060" d="M768 156 L915 156 L915 -97 Q915 -209 846 -287 Q777 -365 648 -365 L621 -365 L621 -207 L647 -207 Q714 -207 741 -174.5 Q768 -142 768 -98 L768 0 L666 0 Q510 0 417 93 Q324 186 324 367 L324 1015 L127 1015 L127 1172 L324 1172 L324 1580 L501 1580 L501 1172 L896 1172 L896 1015 L501 1015 L501 355 Q501 249 542 202.5 Q583 156 676 156 L768 156 Z " />
<glyph glyph-name="Thook" unicode="&#x1ac;" horiz-adv-x="1060" d="M208 1172 L61 1172 L61 1312 Q61 1424 130 1502 Q199 1580 328 1580 L943 1580 L943 1424 L618 1424 L618 0 L441 0 L441 1424 L329 1424 Q262 1424 235 1390.5 Q208 1357 208 1313 L208 1172 Z " />
<glyph glyph-name="thook" unicode="&#x1ad;" horiz-adv-x="1060" d="M500 1225 L500 1092 L896 1092 L896 935 L500 935 L500 335 Q500 229 541.5 182.5 Q583 136 656 136 Q779 136 842 261 L975 164 Q852 -20 646 -20 Q510 -20 417 73 Q324 166 324 347 L324 935 L127 935 L127 1092 L324 1092 L324 1201 Q324 1381 422 1480.5 Q520 1580 688 1580 L765 1580 L765 1433 L688 1433 Q591 1433 545.5 1385 Q500 1337 500 1225 Z " />
<glyph glyph-name="Trthook" unicode="&#x1ae;" horiz-adv-x="1060" d="M442 1424 L117 1424 L117 1580 L943 1580 L943 1424 L618 1424 L618 -10 Q618 -122 663.5 -170 Q709 -218 806 -218 L883 -218 L883 -365 L806 -365 Q638 -365 540 -265.5 Q442 -166 442 14 L442 1424 Z " />
<glyph glyph-name="Uhorn" unicode="&#x1af;" horiz-adv-x="1060" d="M913 1748 L1060 1748 L1060 1628 Q1060 1516 991 1438 Q925 1363 785 1360 L785 444 Q785 198 697 89 Q609 -20 450 -20 Q291 -20 203 89 Q115 198 115 444 L115 1580 L281 1580 L281 379 Q281 250 322 193 Q363 136 449 136 Q535 136 576.5 193 Q618 250 618 379 L618 1580 L785 1580 L785 1446 Q861 1449 886 1489 Q913 1533 913 1617 L913 1748 Z " />
<glyph glyph-name="uhorn" unicode="&#x1b0;" horiz-adv-x="1060" d="M913 1347 L1060 1347 L1060 1227 Q1060 1115 991 1037 Q924 962 784 959 L784 0 L618 0 L618 132 Q515 -20 366 -20 Q115 -20 115 383 L115 1172 L281 1172 L281 383 Q281 137 410 137 Q537 137 618 270 L618 1172 L784 1172 L784 1045 Q861 1048 886 1088 Q913 1132 913 1216 L913 1347 Z " />
<glyph glyph-name="Upsilonafrican" unicode="&#x1b1;" horiz-adv-x="1060" d="M531 135 Q620 135 680.5 196.5 Q741 258 741 431 L741 1006 Q741 1260 603 1358 L603 1580 L930 1580 L930 1425 L721 1425 Q918 1304 918 956 L918 506 Q918 207 805 92.5 Q692 -22 530 -22 Q368 -22 255 92.5 Q142 207 142 506 L142 956 Q142 1304 339 1425 L130 1425 L130 1580 L457 1580 L457 1358 Q319 1260 319 1006 L319 431 Q319 258 379.5 196.5 Q440 135 529 135 L531 135 Z " />
<glyph glyph-name="Vcursive" unicode="&#x1b2;" horiz-adv-x="1060" d="M446 1512 Q534 1602 651 1602 Q777 1602 861 1509 Q945 1416 945 1260 L945 783 Q945 398 802.5 189 Q660 -20 461 -20 Q292 -20 203.5 94 Q115 208 115 424 L115 1580 L291 1580 L291 365 Q291 240 339 188 Q387 136 461 136 Q585 136 676.5 285 Q768 434 768 743 L768 1250 Q768 1446 642 1446 Q575 1446 523 1389 L446 1512 Z " />
<glyph glyph-name="Yhook" unicode="&#x1b3;" horiz-adv-x="1060" d="M422 0 L422 673 L252 983 Q78 1300 78 1507 L78 1580 L254 1580 L254 1507 Q254 1329 386 1072 L505 834 L652 1334 Q723 1580 950 1580 L1007 1580 L1007 1433 L950 1433 Q847 1433 814 1321 L598 607 L598 0 L422 0 Z " />
<glyph glyph-name="uni01B4" unicode="&#x1b4;" horiz-adv-x="1060" d="M294 -365 L296 -331 Q300 -267 329 -166 L434 194 L205 758 Q118 973 111 1082 L106 1172 L282 1172 L287 1088 Q291 1017 368 808 L504 437 L646 927 Q717 1172 950 1172 L1007 1172 L1007 1025 L950 1025 Q839 1025 806 914 L488 -183 Q466 -259 462 -331 L460 -365 L294 -365 Z " />
<glyph glyph-name="Zbar" unicode="&#x1b5;" horiz-adv-x="1060" d="M944 0 L155 0 L155 150 L444 777 L277 777 L277 911 L506 911 L746 1430 L155 1430 L155 1580 L934 1580 L934 1430 L694 911 L848 911 L848 777 L632 777 L343 150 L944 150 L944 0 Z " />
<glyph glyph-name="zbar" unicode="&#x1b6;" horiz-adv-x="1060" d="M940 0 L152 0 L152 150 L410 548 L256 548 L256 682 L497 682 L718 1022 L161 1022 L161 1172 L918 1172 L918 1022 L697 682 L827 682 L827 548 L610 548 L352 150 L940 150 L940 0 Z " />
<glyph glyph-name="Ezh" unicode="&#x1b7;" horiz-adv-x="1060" d="M735 486 Q735 638 664 723.5 Q593 809 434 809 L307 809 L307 946 L696 1423 L154 1423 L154 1580 L880 1580 L880 1397 L515 957 Q912 910 912 486 Q912 228 794 104 Q676 -20 495 -20 Q223 -20 77 240 L221 336 Q295 140 494 140 Q597 140 666 212 Q735 284 735 486 Z " />
<glyph glyph-name="Ezhreversed" unicode="&#x1b8;" horiz-adv-x="1060" d="M325 486 Q325 284 394 212 Q463 140 566 140 Q765 140 839 336 L983 240 Q837 -20 565 -20 Q384 -20 266 104 Q148 228 148 486 Q148 900 545 957 L210 1397 L210 1580 L936 1580 L936 1423 L394 1423 L753 946 L753 809 L626 809 Q467 809 396 718.5 Q325 628 325 486 Z " />
<glyph glyph-name="ezhreversed" unicode="&#x1b9;" horiz-adv-x="1060" d="M148 76 Q148 489 550 583 L210 989 L210 1172 L936 1172 L936 1015 L394 1015 L753 582 L753 445 L716 445 Q325 445 325 76 Q325 -71 394 -143 Q463 -215 566 -215 Q765 -215 839 -19 L983 -115 Q837 -375 565 -375 Q384 -375 266 -251 Q148 -127 148 76 Z " />
<glyph glyph-name="twostroke" unicode="&#x1bb;" horiz-adv-x="1060" d="M916 0 L184 0 L184 150 Q184 388 405 677 L257 677 L257 811 L510 811 L652 993 Q739 1092 739 1213 Q739 1329 683 1385.5 Q627 1442 530 1442 Q362 1442 289 1240 L144 1341 Q279 1602 530 1602 Q690 1602 803 1492 Q916 1382 916 1212 Q916 1030 781 874 L732 811 L878 811 L878 677 L627 677 L550 578 Q360 334 360 150 L916 150 L916 0 Z " />
<glyph glyph-name="Tonefive" unicode="&#x1bc;" horiz-adv-x="1060" d="M921 493 Q921 248 803 114 Q685 -20 516 -20 Q259 -20 129 224 L273 319 Q347 140 515 140 Q606 140 675 221.5 Q744 303 744 493 Q744 685 676 761.5 Q608 838 454 838 L220 838 L220 1580 L888 1580 L888 1430 L396 1430 L396 998 L485 998 Q681 998 801 880.5 Q921 763 921 493 Z " />
<glyph glyph-name="tonefive" unicode="&#x1bd;" horiz-adv-x="1060" d="M139 240 L273 320 Q347 136 525 136 Q621 136 682.5 193 Q744 250 744 376 Q744 498 683.5 554.5 Q623 611 494 611 L220 611 L220 1172 L858 1172 L858 1016 L396 1016 L396 768 L505 768 Q717 768 819 664.5 Q921 561 921 376 Q921 198 808 89 Q695 -20 526 -20 Q264 -20 139 240 Z " />
<glyph glyph-name="wynn" unicode="&#x1bf;" horiz-adv-x="1060" d="M341 152 L528 254 Q758 382 759 709 Q759 905 711.5 971 Q664 1037 561 1037 Q437 1037 341 903 L341 152 Z M165 -365 L165 1172 L341 1172 L341 1041 Q454 1194 603 1194 Q733 1194 834 1081 Q935 968 935 699 Q935 307 550 95 L341 -21 L341 -365 L165 -365 Z " />
<glyph glyph-name="clickdental" unicode="&#x1c0;" horiz-adv-x="1060" d="M618 -211 L441 -211 L441 1792 L618 1792 L618 -211 Z " />
<glyph glyph-name="clicklateral" unicode="&#x1c1;" horiz-adv-x="1060" d="M797 -211 L620 -211 L620 1792 L797 1792 L797 -211 Z M441 -211 L264 -211 L264 1792 L441 1792 L441 -211 Z " />
<glyph glyph-name="clickalveolar" unicode="&#x1c2;" horiz-adv-x="1060" d="M961 911 L618 911 L618 670 L961 670 L961 513 L618 513 L618 -211 L441 -211 L441 513 L99 513 L99 670 L441 670 L441 911 L99 911 L99 1068 L441 1068 L441 1792 L618 1792 L618 1068 L961 1068 L961 911 Z " />
<glyph glyph-name="clickretroflex" unicode="&#x1c3;" horiz-adv-x="1060" d="M618 509 L441 509 L441 1580 L618 1580 L618 509 Z M665 114 Q665 58 625 19 Q585 -20 529 -20 Q473 -20 433.5 19 Q394 58 394 114 Q394 171 433.5 210 Q473 249 529 249 Q585 249 625 210 Q665 171 665 114 Z " />
<glyph glyph-name="DZcaron" unicode="&#x1c4;" horiz-adv-x="1060" d="M859 1685 L700 1685 L487 1950 L642 1950 L780 1808 L917 1950 L1072 1950 L859 1685 Z M578 498 Q578 229 486.5 114.5 Q395 0 273 0 L101 0 L101 1580 L273 1580 Q395 1580 486.5 1465.5 Q578 1351 578 1083 L578 498 Z M423 453 L423 1128 Q423 1300 381.5 1362 Q340 1424 282 1424 L254 1424 L254 157 L282 157 Q340 157 381.5 219 Q423 281 423 453 Z M994 0 L625 0 L625 157 L844 1424 L625 1424 L625 1580 L994 1580 L994 1424 L775 157 L994 157 L994 0 Z " />
<glyph glyph-name="Dzcaron" unicode="&#x1c5;" horiz-adv-x="1060" d="M578 498 Q578 229 486.5 114.5 Q395 0 273 0 L101 0 L101 1580 L273 1580 Q395 1580 486.5 1465.5 Q578 1351 578 1083 L578 498 Z M423 453 L423 1128 Q423 1300 381.5 1362 Q340 1424 282 1424 L254 1424 L254 157 L282 157 Q340 157 381.5 219 Q423 281 423 453 Z M994 0 L625 0 L625 157 L843 1016 L625 1016 L625 1172 L994 1172 L994 1016 L776 157 L994 157 L994 0 Z M879 1315 L720 1315 L507 1580 L662 1580 L800 1438 L937 1580 L1092 1580 L879 1315 Z " />
<glyph glyph-name="dzcaron" unicode="&#x1c6;" horiz-adv-x="1060" d="M551 0 L397 0 L397 71 Q334 -20 265 -20 Q75 -20 75 474 L75 694 Q75 1189 265 1189 Q334 1189 397 1097 L397 1580 L551 1580 L551 0 Z M397 239 L397 929 Q352 1031 307 1031 Q229 1031 229 705 L229 463 Q229 136 307 136 Q351 136 397 239 Z M994 0 L635 0 L635 157 L843 1016 L635 1016 L635 1172 L994 1172 L994 1016 L786 157 L994 157 L994 0 Z M927 1315 L768 1315 L555 1580 L710 1580 L848 1438 L985 1580 L1140 1580 L927 1315 Z " />
<glyph glyph-name="LJ" unicode="&#x1c7;" horiz-adv-x="1060" d="M597 0 L169 0 L169 1580 L345 1580 L345 157 L597 157 L597 0 Z M722 -20 L722 1580 L899 1580 L899 -8 Q899 -188 806 -281.5 Q713 -375 578 -375 Q387 -375 274 -226 L405 -133 Q462 -219 567 -219 Q640 -219 681 -172.5 Q722 -126 722 -20 Z " />
<glyph glyph-name="Lj" unicode="&#x1c8;" horiz-adv-x="1060" d="M597 0 L169 0 L169 1580 L345 1580 L345 157 L597 157 L597 0 Z M722 -20 L722 1172 L899 1172 L899 -8 Q899 -188 806 -281.5 Q713 -375 578 -375 Q387 -375 274 -226 L405 -133 Q462 -219 567 -219 Q640 -219 681 -172.5 Q722 -126 722 -20 Z M946 1569 Q946 1513 907 1473.5 Q868 1434 810 1434 Q752 1434 713.5 1473.5 Q675 1513 675 1569 Q675 1625 713.5 1665 Q752 1705 810 1705 Q868 1705 907 1665 Q946 1625 946 1569 Z " />
<glyph glyph-name="lj" unicode="&#x1c9;" horiz-adv-x="1060" d="M389 0 L212 0 L212 1580 L389 1580 L389 0 Z M672 -20 L672 1172 L849 1172 L849 -8 Q849 -188 756 -281.5 Q663 -375 528 -375 Q337 -375 224 -226 L355 -133 Q412 -219 517 -219 Q590 -219 631 -172.5 Q672 -126 672 -20 Z M896 1569 Q896 1513 857 1473.5 Q818 1434 760 1434 Q702 1434 663.5 1473.5 Q625 1513 625 1569 Q625 1625 663.5 1665 Q702 1705 760 1705 Q818 1705 857 1665 Q896 1625 896 1569 Z " />
<glyph glyph-name="NJ" unicode="&#x1ca;" horiz-adv-x="1060" d="M604 0 L458 0 L448 882 L221 1335 L241 928 L241 0 L85 0 L85 1580 L241 1580 L468 1124 L448 1531 L448 1580 L604 1580 L604 0 Z M743 20 L743 1580 L899 1580 L899 22 Q899 -178 811 -276.5 Q723 -375 578 -375 Q387 -375 274 -226 L405 -133 Q462 -219 577 -219 Q661 -219 702 -162.5 Q743 -106 743 20 Z " />
<glyph glyph-name="Nj" unicode="&#x1cb;" horiz-adv-x="1060" d="M743 20 L743 1172 L899 1172 L899 22 Q899 -178 811 -276.5 Q723 -375 578 -375 Q387 -375 274 -226 L405 -133 Q462 -219 577 -219 Q661 -219 702 -162.5 Q743 -106 743 20 Z M965 1569 Q965 1513 926 1473.5 Q887 1434 829 1434 Q771 1434 732.5 1473.5 Q694 1513 694 1569 Q694 1625 732.5 1665 Q771 1705 829 1705 Q887 1705 926 1665 Q965 1625 965 1569 Z M604 0 L458 0 L448 882 L221 1335 L241 928 L241 0 L85 0 L85 1580 L241 1580 L468 1124 L448 1531 L448 1580 L604 1580 L604 0 Z " />
<glyph glyph-name="nj" unicode="&#x1cc;" horiz-adv-x="1060" d="M575 0 L419 0 L419 850 Q419 1031 341 1031 Q286 1031 241 919 L241 0 L85 0 L85 1172 L241 1172 L241 1077 Q304 1189 394 1189 Q575 1189 575 850 L575 0 Z M743 20 L743 1172 L899 1172 L899 22 Q899 -178 811 -276.5 Q723 -375 578 -375 Q387 -375 274 -226 L405 -133 Q462 -219 577 -219 Q661 -219 702 -162.5 Q743 -106 743 20 Z M955 1569 Q955 1513 916 1473.5 Q877 1434 819 1434 Q761 1434 722.5 1473.5 Q684 1513 684 1569 Q684 1625 722.5 1665 Q761 1705 819 1705 Q877 1705 916 1665 Q955 1625 955 1569 Z " />
<glyph glyph-name="Acaron" unicode="&#x1cd;" horiz-adv-x="1060" d="M609 1685 L450 1685 L237 1950 L392 1950 L530 1808 L667 1950 L822 1950 L609 1685 Z M289 88 L289 0 L113 0 L113 88 Q113 315 248 852 L408 1490 L651 1490 L812 852 Q947 315 947 88 L947 0 L771 0 L771 88 Q771 195 741 370 L318 370 Q289 195 289 88 Z M530 1300 L399 754 Q368 627 346 520 L713 520 Q691 627 661 754 L530 1300 Z " />
<glyph glyph-name="acaron" unicode="&#x1ce;" horiz-adv-x="1060" d="M914 0 L738 0 L738 132 Q626 -20 455 -20 Q312 -20 223.5 78.5 Q135 177 135 326 Q135 479 245.5 582.5 Q356 686 570 686 L738 686 L738 813 Q738 1034 528 1034 Q373 1034 296 897 L163 997 Q301 1194 529 1194 Q698 1194 806 1097.5 Q914 1001 914 813 L914 0 Z M738 275 L738 544 L570 544 Q444 544 380 485 Q316 426 316 326 Q316 140 499 140 Q643 140 738 275 Z M609 1315 L450 1315 L237 1580 L392 1580 L530 1438 L667 1580 L822 1580 L609 1315 Z " />
<glyph glyph-name="Icaron" unicode="&#x1cf;" horiz-adv-x="1060" d="M609 1685 L450 1685 L237 1950 L392 1950 L530 1808 L667 1950 L822 1950 L609 1685 Z M867 0 L192 0 L192 150 L441 150 L441 1340 L245 1340 L245 1490 L814 1490 L814 1340 L618 1340 L618 150 L867 150 L867 0 Z " />
<glyph glyph-name="icaron" unicode="&#x1d0;" horiz-adv-x="1060" d="M879 0 L200 0 L200 157 L451 157 L451 1015 L250 1015 L250 1172 L628 1172 L628 157 L879 157 L879 0 Z M609 1315 L450 1315 L237 1580 L392 1580 L530 1438 L667 1580 L822 1580 L609 1315 Z " />
<glyph glyph-name="Ocaron" unicode="&#x1d1;" horiz-adv-x="1060" d="M609 1685 L450 1685 L237 1950 L392 1950 L530 1808 L667 1950 L822 1950 L609 1685 Z M142 479 L142 1011 Q142 1270 250 1390 Q358 1510 530 1510 Q702 1510 810 1390 Q918 1270 918 1011 L918 479 Q918 220 810 100 Q702 -20 530 -20 Q358 -19 250 100.5 Q142 220 142 479 Z M319 479 Q319 284 374.5 212 Q430 140 529 140 Q628 140 684.5 212.5 Q741 285 741 479 L741 1011 Q741 1205 684.5 1277.5 Q628 1350 529 1350 Q430 1350 374.5 1278 Q319 1206 319 1011 L319 479 Z " />
<glyph glyph-name="ocaron" unicode="&#x1d2;" horiz-adv-x="1060" d="M925 507 Q925 238 814.5 109 Q704 -20 530 -20 Q356 -20 246 109 Q136 238 136 507 L136 667 Q136 936 246 1065 Q356 1194 530 1194 Q704 1194 814.5 1065 Q925 936 925 667 L925 507 Z M749 507 L749 667 Q749 875 687.5 954.5 Q626 1034 530 1034 Q434 1034 373 954.5 Q312 875 312 667 L312 507 Q312 299 373 219.5 Q434 140 530 140 Q626 140 687.5 219.5 Q749 299 749 507 Z M609 1315 L450 1315 L237 1580 L392 1580 L530 1438 L667 1580 L822 1580 L609 1315 Z " />
<glyph glyph-name="Ucaron" unicode="&#x1d3;" horiz-adv-x="1060" d="M609 1685 L450 1685 L237 1950 L392 1950 L530 1808 L667 1950 L822 1950 L609 1685 Z M910 474 Q910 218 799.5 99 Q689 -20 530 -20 Q371 -20 260.5 99 Q150 218 150 474 L150 1490 L326 1490 L326 474 Q326 278 384.5 209 Q443 140 529 140 Q615 140 674 209 Q733 278 733 474 L733 1490 L910 1490 L910 474 Z " />
<glyph glyph-name="ucaron" unicode="&#x1d4;" horiz-adv-x="1060" d="M910 0 L734 0 L734 152 Q621 -20 461 -20 Q330 -20 240 78.5 Q150 177 150 432 L150 1172 L326 1172 L326 432 Q326 261 373.5 200.5 Q421 140 504 140 Q678 140 734 369 L734 1172 L910 1172 L910 0 Z M609 1315 L450 1315 L237 1580 L392 1580 L530 1438 L667 1580 L822 1580 L609 1315 Z " />
<glyph glyph-name="Udieresismacron" unicode="&#x1d5;" horiz-adv-x="1060" d="M866 1826 L193 1826 L193 1950 L866 1950 L866 1826 Z M866 1630 Q866 1584 833.5 1549.5 Q801 1515 750 1515 Q700 1515 667.5 1549.5 Q635 1584 635 1630 Q635 1677 667.5 1711 Q700 1745 750 1745 Q801 1745 833.5 1711 Q866 1677 866 1630 Z M424 1630 Q424 1584 391.5 1549.5 Q359 1515 308 1515 Q258 1515 225.5 1549.5 Q193 1584 193 1630 Q193 1677 225.5 1711 Q258 1745 308 1745 Q359 1745 391.5 1711 Q424 1677 424 1630 Z M910 474 Q910 218 799.5 99 Q689 -20 530 -20 Q371 -20 260.5 99 Q150 218 150 474 L150 1450 L326 1450 L326 474 Q326 278 384.5 209 Q443 140 529 140 Q615 140 674 209 Q733 278 733 474 L733 1450 L910 1450 L910 474 Z " />
<glyph glyph-name="udieresismacron" unicode="&#x1d6;" horiz-adv-x="1060" d="M910 0 L734 0 L734 152 Q621 -20 461 -20 Q330 -20 240 78.5 Q150 177 150 432 L150 1172 L326 1172 L326 432 Q326 261 373.5 200.5 Q421 140 504 140 Q678 140 734 369 L734 1172 L910 1172 L910 0 Z M866 1580 L193 1580 L193 1704 L866 1704 L866 1580 Z M866 1384 Q866 1338 833.5 1303.5 Q801 1269 750 1269 Q700 1269 667.5 1303.5 Q635 1338 635 1384 Q635 1431 667.5 1465 Q700 1499 750 1499 Q801 1499 833.5 1465 Q866 1431 866 1384 Z M424 1384 Q424 1338 391.5 1303.5 Q359 1269 308 1269 Q258 1269 225.5 1303.5 Q193 1338 193 1384 Q193 1431 225.5 1465 Q258 1499 308 1499 Q359 1499 391.5 1465 Q424 1431 424 1384 Z " />
<glyph glyph-name="Udieresisacute" unicode="&#x1d7;" horiz-adv-x="1060" d="M886 1652 Q886 1606 853.5 1571.5 Q821 1537 770 1537 Q720 1537 687.5 1571.5 Q655 1606 655 1652 Q655 1699 687.5 1733 Q720 1767 770 1767 Q821 1767 853.5 1733 Q886 1699 886 1652 Z M404 1652 Q404 1606 371.5 1571.5 Q339 1537 288 1537 Q238 1537 205.5 1571.5 Q173 1606 173 1652 Q173 1699 205.5 1733 Q238 1767 288 1767 Q339 1767 371.5 1733 Q404 1699 404 1652 Z M835 1950 L595 1767 L416 1767 L596 1950 L835 1950 Z M910 474 Q910 218 799.5 99 Q689 -20 530 -20 Q371 -20 260.5 99 Q150 218 150 474 L150 1450 L326 1450 L326 474 Q326 278 384.5 209 Q443 140 529 140 Q615 140 674 209 Q733 278 733 474 L733 1450 L910 1450 L910 474 Z " />
<glyph glyph-name="udieresisacute" unicode="&#x1d8;" horiz-adv-x="1060" d="M910 0 L734 0 L734 152 Q621 -20 461 -20 Q330 -20 240 78.5 Q150 177 150 432 L150 1172 L326 1172 L326 432 Q326 261 373.5 200.5 Q421 140 504 140 Q678 140 734 369 L734 1172 L910 1172 L910 0 Z M886 1384 Q886 1338 853.5 1303.5 Q821 1269 770 1269 Q720 1269 687.5 1303.5 Q655 1338 655 1384 Q655 1431 687.5 1465 Q720 1499 770 1499 Q821 1499 853.5 1465 Q886 1431 886 1384 Z M404 1384 Q404 1338 371.5 1303.5 Q339 1269 288 1269 Q238 1269 205.5 1303.5 Q173 1338 173 1384 Q173 1431 205.5 1465 Q238 1499 288 1499 Q339 1499 371.5 1465 Q404 1431 404 1384 Z M835 1682 L595 1499 L416 1499 L596 1682 L835 1682 Z " />
<glyph glyph-name="Udieresiscaron" unicode="&#x1d9;" horiz-adv-x="1060" d="M409 1950 L529 1822 L650 1950 L869 1950 L609 1728 L450 1728 L190 1950 L409 1950 Z M404 1613 Q404 1567 371.5 1532.5 Q339 1498 288 1498 Q238 1498 205.5 1532.5 Q173 1567 173 1613 Q173 1660 205.5 1694 Q238 1728 288 1728 Q339 1728 371.5 1694 Q404 1660 404 1613 Z M886 1613 Q886 1567 853.5 1532.5 Q821 1498 770 1498 Q720 1498 687.5 1532.5 Q655 1567 655 1613 Q655 1660 687.5 1694 Q720 1728 770 1728 Q821 1728 853.5 1694 Q886 1660 886 1613 Z M910 474 Q910 218 799.5 99 Q689 -20 530 -20 Q371 -20 260.5 99 Q150 218 150 474 L150 1450 L326 1450 L326 474 Q326 278 384.5 209 Q443 140 529 140 Q615 140 674 209 Q733 278 733 474 L733 1450 L910 1450 L910 474 Z " />
<glyph glyph-name="udieresiscaron" unicode="&#x1da;" horiz-adv-x="1060" d="M910 0 L734 0 L734 152 Q621 -20 461 -20 Q330 -20 240 78.5 Q150 177 150 432 L150 1172 L326 1172 L326 432 Q326 261 373.5 200.5 Q421 140 504 140 Q678 140 734 369 L734 1172 L910 1172 L910 0 Z M409 1721 L529 1593 L650 1721 L869 1721 L609 1499 L450 1499 L190 1721 L409 1721 Z M404 1384 Q404 1338 371.5 1303.5 Q339 1269 288 1269 Q238 1269 205.5 1303.5 Q173 1338 173 1384 Q173 1431 205.5 1465 Q238 1499 288 1499 Q339 1499 371.5 1465 Q404 1431 404 1384 Z M886 1384 Q886 1338 853.5 1303.5 Q821 1269 770 1269 Q720 1269 687.5 1303.5 Q655 1338 655 1384 Q655 1431 687.5 1465 Q720 1499 770 1499 Q821 1499 853.5 1465 Q886 1431 886 1384 Z " />
<glyph glyph-name="Udieresisgrave" unicode="&#x1db;" horiz-adv-x="1060" d="M886 1652 Q886 1606 853.5 1571.5 Q821 1537 770 1537 Q720 1537 687.5 1571.5 Q655 1606 655 1652 Q655 1699 687.5 1733 Q720 1767 770 1767 Q821 1767 853.5 1733 Q886 1699 886 1652 Z M404 1652 Q404 1606 371.5 1571.5 Q339 1537 288 1537 Q238 1537 205.5 1571.5 Q173 1606 173 1652 Q173 1699 205.5 1733 Q238 1767 288 1767 Q339 1767 371.5 1733 Q404 1699 404 1652 Z M464 1950 L643 1767 L464 1767 L224 1950 L464 1950 Z M910 474 Q910 218 799.5 99 Q689 -20 530 -20 Q371 -20 260.5 99 Q150 218 150 474 L150 1450 L326 1450 L326 474 Q326 278 384.5 209 Q443 140 529 140 Q615 140 674 209 Q733 278 733 474 L733 1450 L910 1450 L910 474 Z " />
<glyph glyph-name="udieresisgrave" unicode="&#x1dc;" horiz-adv-x="1060" d="M910 0 L734 0 L734 152 Q621 -20 461 -20 Q330 -20 240 78.5 Q150 177 150 432 L150 1172 L326 1172 L326 432 Q326 261 373.5 200.5 Q421 140 504 140 Q678 140 734 369 L734 1172 L910 1172 L910 0 Z M886 1384 Q886 1338 853.5 1303.5 Q821 1269 770 1269 Q720 1269 687.5 1303.5 Q655 1338 655 1384 Q655 1431 687.5 1465 Q720 1499 770 1499 Q821 1499 853.5 1465 Q886 1431 886 1384 Z M404 1384 Q404 1338 371.5 1303.5 Q339 1269 288 1269 Q238 1269 205.5 1303.5 Q173 1338 173 1384 Q173 1431 205.5 1465 Q238 1499 288 1499 Q339 1499 371.5 1465 Q404 1431 404 1384 Z M464 1682 L643 1499 L464 1499 L224 1682 L464 1682 Z " />
<glyph glyph-name="eturned" unicode="&#x1dd;" horiz-adv-x="1060" d="M145 632 L737 632 L737 773 Q737 914 675.5 975.5 Q614 1037 528 1037 Q362 1037 285 886 L152 979 Q287 1194 529 1194 Q688 1194 801 1080 Q914 966 914 698 L914 477 Q914 209 801 94.5 Q688 -20 529 -20 Q370 -20 257.5 94 Q145 208 145 477 L145 632 Z M321 495 L321 402 Q321 262 382 200 Q443 138 529 138 Q615 138 676.5 200 Q738 262 738 402 L738 495 L321 495 Z " />
<glyph glyph-name="Adieresismacron" unicode="&#x1de;" horiz-adv-x="1060" d="M866 1826 L193 1826 L193 1950 L866 1950 L866 1826 Z M866 1630 Q866 1584 833.5 1549.5 Q801 1515 750 1515 Q700 1515 667.5 1549.5 Q635 1584 635 1630 Q635 1677 667.5 1711 Q700 1745 750 1745 Q801 1745 833.5 1711 Q866 1677 866 1630 Z M424 1630 Q424 1584 391.5 1549.5 Q359 1515 308 1515 Q258 1515 225.5 1549.5 Q193 1584 193 1630 Q193 1677 225.5 1711 Q258 1745 308 1745 Q359 1745 391.5 1711 Q424 1677 424 1630 Z M289 88 L289 0 L113 0 L113 88 Q113 315 248 852 L398 1450 L661 1450 L812 852 Q947 315 947 88 L947 0 L771 0 L771 88 Q771 195 741 370 L318 370 Q289 195 289 88 Z M530 1300 L399 754 Q368 627 346 520 L713 520 Q691 627 661 754 L530 1300 Z " />
<glyph glyph-name="adieresismacron" unicode="&#x1df;" horiz-adv-x="1060" d="M914 0 L738 0 L738 132 Q626 -20 455 -20 Q312 -20 223.5 78.5 Q135 177 135 326 Q135 479 245.5 582.5 Q356 686 570 686 L738 686 L738 813 Q738 1034 528 1034 Q373 1034 296 897 L163 997 Q301 1194 529 1194 Q698 1194 806 1097.5 Q914 1001 914 813 L914 0 Z M738 275 L738 544 L570 544 Q444 544 380 485 Q316 426 316 326 Q316 140 499 140 Q643 140 738 275 Z M866 1580 L193 1580 L193 1704 L866 1704 L866 1580 Z M866 1384 Q866 1338 833.5 1303.5 Q801 1269 750 1269 Q700 1269 667.5 1303.5 Q635 1338 635 1384 Q635 1431 667.5 1465 Q700 1499 750 1499 Q801 1499 833.5 1465 Q866 1431 866 1384 Z M424 1384 Q424 1338 391.5 1303.5 Q359 1269 308 1269 Q258 1269 225.5 1303.5 Q193 1338 193 1384 Q193 1431 225.5 1465 Q258 1499 308 1499 Q359 1499 391.5 1465 Q424 1431 424 1384 Z " />
<glyph glyph-name="Adotmacron" unicode="&#x1e0;" horiz-adv-x="1060" d="M645 1630 Q645 1584 612.5 1549.5 Q580 1515 529 1515 Q479 1515 446.5 1549.5 Q414 1584 414 1630 Q414 1677 446.5 1711 Q479 1745 529 1745 Q580 1745 612.5 1711 Q645 1677 645 1630 Z M886 1826 L173 1826 L173 1950 L886 1950 L886 1826 Z M289 88 L289 0 L113 0 L113 88 Q113 315 248 852 L398 1450 L661 1450 L812 852 Q947 315 947 88 L947 0 L771 0 L771 88 Q771 195 741 370 L318 370 Q289 195 289 88 Z M530 1300 L399 754 Q368 627 346 520 L713 520 Q691 627 661 754 L530 1300 Z " />
<glyph glyph-name="adotmacron" unicode="&#x1e1;" horiz-adv-x="1060" d="M914 0 L738 0 L738 132 Q626 -20 455 -20 Q312 -20 223.5 78.5 Q135 177 135 326 Q135 479 245.5 582.5 Q356 686 570 686 L738 686 L738 813 Q738 1034 528 1034 Q373 1034 296 897 L163 997 Q301 1194 529 1194 Q698 1194 806 1097.5 Q914 1001 914 813 L914 0 Z M738 275 L738 544 L570 544 Q444 544 380 485 Q316 426 316 326 Q316 140 499 140 Q643 140 738 275 Z M645 1384 Q645 1338 612.5 1303.5 Q580 1269 529 1269 Q479 1269 446.5 1303.5 Q414 1338 414 1384 Q414 1431 446.5 1465 Q479 1499 529 1499 Q580 1499 612.5 1465 Q645 1431 645 1384 Z M886 1580 L173 1580 L173 1704 L886 1704 L886 1580 Z " />
<glyph glyph-name="AEmacron" unicode="&#x1e2;" horiz-adv-x="1060" d="M990 0 L483 0 L483 547 L245 547 L245 0 L69 0 L69 569 L397 1580 L990 1580 L990 1424 L659 1424 L659 905 L949 905 L949 748 L659 748 L659 157 L990 157 L990 0 Z M483 704 L483 1311 L284 704 L483 704 Z M875 1816 L304 1816 L304 1950 L875 1950 L875 1816 Z " />
<glyph glyph-name="aemacron" unicode="&#x1e3;" horiz-adv-x="1060" d="M1020 568 L614 568 L614 375 Q614 110 749 110 Q833 110 888 242 L1008 174 Q925 -20 749 -20 Q605 -20 534 116 Q462 -20 301 -20 Q182 -20 110.5 75.5 Q39 171 39 342 Q39 515 125.5 602 Q212 689 382 689 L446 689 L446 878 Q446 1063 321 1063 Q227 1063 182 942 L52 999 Q135 1194 321 1194 Q472 1194 534 1063 Q604 1194 749 1194 Q868 1194 944 1098 Q1020 1002 1020 767 L1020 568 Z M853 689 L853 797 Q853 1063 734 1063 Q613 1063 613 797 L613 689 L853 689 Z M446 369 L446 568 L382 568 Q206 568 206 347 Q206 110 326 110 Q446 110 446 369 Z M815 1446 L244 1446 L244 1580 L815 1580 L815 1446 Z " />
<glyph glyph-name="Gbar" unicode="&#x1e4;" horiz-adv-x="1060" d="M925 507 Q925 220 812.5 100 Q700 -20 530 -20 Q360 -20 250 100 Q140 220 140 479 L140 1103 Q140 1362 250.5 1482 Q361 1602 541 1602 Q761 1602 897 1386 L763 1293 Q686 1442 542 1442 Q435 1442 375.5 1370 Q316 1298 316 1103 L316 479 Q316 284 373 212 Q430 140 530 140 Q628 140 688.5 212.5 Q749 285 749 462 L552 462 L552 619 L749 619 L749 808 L552 808 L552 965 L925 965 L925 507 Z " />
<glyph glyph-name="gbar" unicode="&#x1e5;" horiz-adv-x="1060" d="M996 -88 L930 -88 Q910 -197 799.5 -286 Q689 -375 496 -375 Q282 -375 181.5 -273.5 Q81 -172 81 -31 Q81 120 250 216 Q128 283 128 397 Q128 503 269 587 Q125 672 125 854 Q125 1008 229 1099 Q330 1188 494 1188 Q538 1188 577 1179 Q655 1172 929 1172 L929 1042 L868 1042 L772 1054 Q851 965 851 846 Q851 710 755 622 Q654 530 493 530 Q400 530 358 537 Q279 475 279 424 Q279 387 319 348 Q365 316 427 316 L574 316 Q882 316 934 46 L996 46 L996 -88 Z M483 -88 L483 46 L756 46 Q738 159 574 159 L443 159 Q358 159 307.5 105.5 Q257 52 257 -18 Q257 -112 313 -165 Q369 -218 493 -218 Q711 -218 750 -88 L483 -88 Z M686 865 Q686 931 634.5 989 Q583 1047 494 1047 Q404 1047 347.5 992 Q291 937 291 862 Q291 776 345 723.5 Q399 671 491 671 Q582 671 634 725 Q686 779 686 865 Z " />
<glyph glyph-name="Gcaron" unicode="&#x1e6;" horiz-adv-x="1060" d="M609 1685 L450 1685 L237 1950 L392 1950 L530 1808 L667 1950 L822 1950 L609 1685 Z M925 479 Q925 220 812.5 100 Q700 -20 530 -20 Q360 -20 250 100 Q140 220 140 479 L140 1011 Q140 1270 250.5 1390 Q361 1510 541 1510 Q782 1510 909 1254 L765 1167 Q686 1350 542 1350 Q435 1350 375.5 1278 Q316 1206 316 1011 L316 479 Q316 284 373 212 Q430 140 530 140 Q628 140 688.5 212.5 Q749 285 749 479 L749 695 L562 695 L562 845 L925 845 L925 479 Z " />
<glyph glyph-name="gcaron" unicode="&#x1e7;" horiz-adv-x="1060" d="M960 1032 L899 1032 L803 1041 Q882 945 882 846 Q882 710 783.5 620 Q685 530 514 530 Q451 530 399 530 Q315 475 315 424 Q315 372 348 346.5 Q381 321 458 321 L555 321 Q774 321 872 228 Q970 135 970 -7 Q970 -167 845 -271 Q720 -375 517 -375 Q303 -375 192.5 -278.5 Q82 -182 82 -45 Q82 135 263 227 Q129 283 129 397 Q129 513 271 594 Q126 692 126 864 Q126 1008 228.5 1098 Q331 1188 515 1188 Q569 1188 777 1172 L960 1172 L960 1032 Z M712 865 Q712 936 660.5 989 Q609 1042 505 1042 Q400 1042 348.5 992 Q297 942 297 862 Q297 771 351 723.5 Q405 676 502 676 Q608 676 660 725 Q712 774 712 865 Z M789 -7 Q789 70 737.5 115.5 Q686 161 555 161 L484 161 Q364 161 313.5 107 Q263 53 263 -32 Q263 -120 329 -168 Q395 -216 504 -216 Q789 -216 789 -7 Z M609 1315 L450 1315 L237 1580 L392 1580 L530 1438 L667 1580 L822 1580 L609 1315 Z " />
<glyph glyph-name="Kcaron" unicode="&#x1e8;" horiz-adv-x="1060" d="M649 1685 L490 1685 L277 1950 L432 1950 L570 1808 L707 1950 L862 1950 L649 1685 Z M376 1490 L376 737 L644 1129 Q787 1338 794 1454 L796 1490 L972 1490 L969 1437 Q960 1304 778 1037 L643 837 L849 487 Q1007 220 1016 70 L1020 0 L844 0 L841 55 Q833 194 710 401 L527 710 L376 486 L376 0 L200 0 L200 1490 L376 1490 Z " />
<glyph glyph-name="kcaron" unicode="&#x1e9;" horiz-adv-x="1060" d="M997 0 L821 0 Q813 129 694 301 L519 552 L388 392 L388 0 L212 0 L212 1580 L388 1580 L388 609 L647 928 Q776 1087 780 1172 L956 1172 L954 1134 Q948 1041 779 834 L638 661 L820 397 Q987 156 994 41 L997 0 Z M659 1685 L500 1685 L287 1950 L442 1950 L580 1808 L717 1950 L872 1950 L659 1685 Z " />
<glyph glyph-name="Oogonek" unicode="&#x1ea;" horiz-adv-x="1060" d="M142 479 L142 1103 Q142 1362 250 1482 Q358 1602 530 1602 Q702 1602 810 1482 Q918 1362 918 1103 L918 479 Q918 220 810 100 Q702 -20 530 -20 Q358 -19 250 100.5 Q142 220 142 479 Z M319 479 Q319 284 374.5 212 Q430 140 529 140 Q628 140 684.5 212.5 Q741 285 741 479 L741 1103 Q741 1297 684.5 1369.5 Q628 1442 529 1442 Q430 1442 374.5 1370 Q319 1298 319 1103 L319 479 Z M688 -369 Q533 -375 448 -315.5 Q363 -256 363 -162 Q363 -61 481 0 L657 0 Q526 -55 526 -144 Q526 -193 572.5 -219.5 Q619 -246 688 -239 L688 -369 Z " />
<glyph glyph-name="uni01EB" unicode="&#x1eb;" horiz-adv-x="1060" d="M925 507 Q925 238 814.5 109 Q704 -20 530 -20 Q356 -20 246 109 Q136 238 136 507 L136 667 Q136 936 246 1065 Q356 1194 530 1194 Q704 1194 814.5 1065 Q925 936 925 667 L925 507 Z M749 507 L749 667 Q749 875 687.5 954.5 Q626 1034 530 1034 Q434 1034 373 954.5 Q312 875 312 667 L312 507 Q312 299 373 219.5 Q434 140 530 140 Q626 140 687.5 219.5 Q749 299 749 507 Z M684 -369 Q529 -375 444 -315.5 Q359 -256 359 -162 Q359 -61 477 0 L653 0 Q522 -55 522 -144 Q522 -193 568.5 -219.5 Q615 -246 684 -239 L684 -369 Z " />
<glyph glyph-name="Oogonekmacron" unicode="&#x1ec;" horiz-adv-x="1060" d="M142 479 L142 1103 Q142 1362 250 1482 Q358 1602 530 1602 Q702 1602 810 1482 Q918 1362 918 1103 L918 479 Q918 220 810 100 Q702 -20 530 -20 Q358 -19 250 100.5 Q142 220 142 479 Z M319 479 Q319 284 374.5 212 Q430 140 529 140 Q628 140 684.5 212.5 Q741 285 741 479 L741 1103 Q741 1297 684.5 1369.5 Q628 1442 529 1442 Q430 1442 374.5 1370 Q319 1298 319 1103 L319 479 Z M685 -369 Q530 -375 445 -315.5 Q360 -256 360 -162 Q360 -61 478 0 L654 0 Q523 -55 523 -144 Q523 -193 569.5 -219.5 Q616 -246 685 -239 L685 -369 Z M815 1816 L244 1816 L244 1950 L815 1950 L815 1816 Z " />
<glyph glyph-name="uni01ED" unicode="&#x1ed;" horiz-adv-x="1060" d="M925 507 Q925 238 814.5 109 Q704 -20 530 -20 Q356 -20 246 109 Q136 238 136 507 L136 667 Q136 936 246 1065 Q356 1194 530 1194 Q704 1194 814.5 1065 Q925 936 925 667 L925 507 Z M749 507 L749 667 Q749 875 687.5 954.5 Q626 1034 530 1034 Q434 1034 373 954.5 Q312 875 312 667 L312 507 Q312 299 373 219.5 Q434 140 530 140 Q626 140 687.5 219.5 Q749 299 749 507 Z M684 -369 Q529 -375 444 -315.5 Q359 -256 359 -162 Q359 -61 477 0 L653 0 Q522 -55 522 -144 Q522 -193 568.5 -219.5 Q615 -246 684 -239 L684 -369 Z M815 1446 L244 1446 L244 1580 L815 1580 L815 1446 Z " />
<glyph glyph-name="Ezhcaron" unicode="&#x1ee;" horiz-adv-x="1060" d="M735 486 Q735 638 664 723.5 Q593 809 434 809 L307 809 L307 946 L696 1423 L154 1423 L154 1580 L880 1580 L880 1397 L515 957 Q912 910 912 486 Q912 228 794 104 Q676 -20 495 -20 Q223 -20 77 240 L221 336 Q295 140 494 140 Q597 140 666 212 Q735 284 735 486 Z M609 1685 L450 1685 L237 1950 L392 1950 L530 1808 L667 1950 L822 1950 L609 1685 Z " />
<glyph glyph-name="ezhcaron" unicode="&#x1ef;" horiz-adv-x="1060" d="M912 109 Q912 -117 794 -246 Q676 -375 485 -375 Q213 -375 77 -115 L211 -24 Q285 -219 484 -219 Q602 -219 668.5 -142 Q735 -65 735 85 L735 151 Q735 270 664 335.5 Q593 401 434 401 L307 401 L307 538 L696 1015 L154 1015 L154 1172 L880 1172 L880 989 L515 549 Q912 502 912 138 L912 109 Z M609 1315 L450 1315 L237 1580 L392 1580 L530 1438 L667 1580 L822 1580 L609 1315 Z " />
<glyph glyph-name="jcaron" unicode="&#x1f0;" horiz-adv-x="1060" d="M619 1315 L460 1315 L247 1580 L402 1580 L540 1438 L677 1580 L832 1580 L619 1315 Z M546 -20 L546 1015 L271 1015 L271 1172 L723 1172 L723 -8 Q723 -188 630 -281.5 Q537 -375 402 -375 Q195 -375 72 -190 L206 -94 Q268 -219 391 -219 Q464 -219 505 -172.5 Q546 -126 546 -20 Z " />
<glyph glyph-name="DZ" unicode="&#x1f1;" horiz-adv-x="1060" d="M578 498 Q578 229 486.5 114.5 Q395 0 273 0 L101 0 L101 1580 L273 1580 Q395 1580 486.5 1465.5 Q578 1351 578 1083 L578 498 Z M423 453 L423 1128 Q423 1300 381.5 1362 Q340 1424 282 1424 L254 1424 L254 157 L282 157 Q340 157 381.5 219 Q423 281 423 453 Z M994 0 L625 0 L625 157 L844 1424 L625 1424 L625 1580 L994 1580 L994 1424 L775 157 L994 157 L994 0 Z " />
<glyph glyph-name="Dz" unicode="&#x1f2;" horiz-adv-x="1060" d="M578 498 Q578 229 486.5 114.5 Q395 0 273 0 L101 0 L101 1580 L273 1580 Q395 1580 486.5 1465.5 Q578 1351 578 1083 L578 498 Z M423 453 L423 1128 Q423 1300 381.5 1362 Q340 1424 282 1424 L254 1424 L254 157 L282 157 Q340 157 381.5 219 Q423 281 423 453 Z M994 0 L625 0 L625 157 L843 1016 L625 1016 L625 1172 L994 1172 L994 1016 L776 157 L994 157 L994 0 Z " />
<glyph glyph-name="dz" unicode="&#x1f3;" horiz-adv-x="1060" d="M551 0 L397 0 L397 71 Q334 -20 265 -20 Q75 -20 75 474 L75 694 Q75 1189 265 1189 Q334 1189 397 1097 L397 1580 L551 1580 L551 0 Z M397 239 L397 929 Q352 1031 307 1031 Q229 1031 229 705 L229 463 Q229 136 307 136 Q351 136 397 239 Z M994 0 L635 0 L635 157 L843 1016 L635 1016 L635 1172 L994 1172 L994 1016 L786 157 L994 157 L994 0 Z " />
<glyph glyph-name="Gacute" unicode="&#x1f4;" horiz-adv-x="1060" d="M886 1950 L651 1705 L487 1705 L666 1950 L886 1950 Z M925 479 Q925 220 812.5 100 Q700 -20 530 -20 Q360 -20 250 100 Q140 220 140 479 L140 1011 Q140 1270 250.5 1390 Q361 1510 541 1510 Q782 1510 909 1254 L765 1167 Q686 1350 542 1350 Q435 1350 375.5 1278 Q316 1206 316 1011 L316 479 Q316 284 373 212 Q430 140 530 140 Q628 140 688.5 212.5 Q749 285 749 479 L749 695 L562 695 L562 845 L925 845 L925 479 Z " />
<glyph glyph-name="gacute" unicode="&#x1f5;" horiz-adv-x="1060" d="M960 1032 L899 1032 L803 1041 Q882 945 882 846 Q882 710 783.5 620 Q685 530 514 530 Q451 530 399 530 Q315 475 315 424 Q315 372 348 346.5 Q381 321 458 321 L555 321 Q774 321 872 228 Q970 135 970 -7 Q970 -167 845 -271 Q720 -375 517 -375 Q303 -375 192.5 -278.5 Q82 -182 82 -45 Q82 135 263 227 Q129 283 129 397 Q129 513 271 594 Q126 692 126 864 Q126 1008 228.5 1098 Q331 1188 515 1188 Q569 1188 777 1172 L960 1172 L960 1032 Z M712 865 Q712 936 660.5 989 Q609 1042 505 1042 Q400 1042 348.5 992 Q297 942 297 862 Q297 771 351 723.5 Q405 676 502 676 Q608 676 660 725 Q712 774 712 865 Z M789 -7 Q789 70 737.5 115.5 Q686 161 555 161 L484 161 Q364 161 313.5 107 Q263 53 263 -32 Q263 -120 329 -168 Q395 -216 504 -216 Q789 -216 789 -7 Z M869 1580 L634 1335 L470 1335 L649 1580 L869 1580 Z " />
<glyph glyph-name="uni01F6" unicode="&#x1f6;" horiz-adv-x="1060" d="M453 1580 L607 1580 L607 269 Q607 128 675 128 Q805 128 805 487 L805 1172 L959 1172 L959 573 Q959 -20 662 -20 Q453 -20 453 317 L453 770 L255 770 L255 0 L101 0 L101 1580 L255 1580 L255 926 L453 926 L453 1580 Z " />
<glyph glyph-name="uni01F7" unicode="&#x1f7;" horiz-adv-x="1060" d="M208 1580 L552 1580 Q753 1580 865.5 1490.5 Q978 1401 978 1223 Q978 940 593 769 L384 674 L384 0 L208 0 L208 1580 Z M384 1424 L384 847 L571 931 Q801 1033 801 1223 Q801 1424 571 1424 L384 1424 Z " />
<glyph glyph-name="uni01F8" unicode="&#x1f8;" horiz-adv-x="1060" d="M584 1705 L420 1705 L185 1950 L405 1950 L584 1705 Z M910 0 L748 0 L734 388 L286 1244 L326 437 L326 0 L150 0 L150 1490 L326 1490 L774 634 L734 1441 L734 1490 L910 1490 L910 0 Z " />
<glyph glyph-name="uni01F9" unicode="&#x1f9;" horiz-adv-x="1060" d="M915 0 L739 0 L739 760 Q739 912 691.5 971.5 Q644 1031 561 1031 Q387 1031 331 793 L331 0 L155 0 L155 1172 L331 1172 L331 1022 Q444 1194 604 1194 Q735 1194 825 1097 Q915 1000 915 770 L915 0 Z M600 1335 L436 1335 L201 1580 L421 1580 L600 1335 Z " />
<glyph glyph-name="Aringacute" unicode="&#x1fa;" horiz-adv-x="1060" d="M895 1950 L635 1780 L466 1780 L646 1950 L895 1950 Z M636 1565 Q636 1599 612 1621 Q588 1643 530 1643 Q476 1643 450 1621 Q424 1599 424 1565 Q424 1531 450 1509 Q476 1487 530 1487 Q588 1487 612 1509 Q636 1531 636 1565 Z M764 1565 Q764 1487 700 1438 Q636 1389 530 1389 Q424 1389 360 1438 Q296 1487 296 1565 Q296 1643 360 1692 Q424 1741 530 1741 Q636 1741 700 1692 Q764 1643 764 1565 Z M289 88 L289 0 L113 0 L113 88 Q113 315 248 852 L398 1450 L661 1450 L812 852 Q947 315 947 88 L947 0 L771 0 L771 88 Q771 195 741 370 L318 370 Q289 195 289 88 Z M530 1300 L399 754 Q368 627 346 520 L713 520 Q691 627 661 754 L530 1300 Z " />
<glyph glyph-name="aringacute" unicode="&#x1fb;" horiz-adv-x="1060" d="M914 0 L738 0 L738 132 Q626 -20 455 -20 Q312 -20 223.5 78.5 Q135 177 135 326 Q135 479 245.5 582.5 Q356 686 570 686 L738 686 L738 813 Q738 1034 528 1034 Q373 1034 296 897 L163 997 Q301 1194 529 1194 Q698 1194 806 1097.5 Q914 1001 914 813 L914 0 Z M738 275 L738 544 L570 544 Q444 544 380 485 Q316 426 316 326 Q316 140 499 140 Q643 140 738 275 Z M925 1830 L665 1660 L496 1660 L676 1830 L925 1830 Z M666 1445 Q666 1479 642 1501 Q618 1523 560 1523 Q506 1523 480 1501 Q454 1479 454 1445 Q454 1411 480 1389 Q506 1367 560 1367 Q618 1367 642 1389 Q666 1411 666 1445 Z M794 1445 Q794 1367 730 1318 Q666 1269 560 1269 Q454 1269 390 1318 Q326 1367 326 1445 Q326 1523 390 1572 Q454 1621 560 1621 Q666 1621 730 1572 Q794 1523 794 1445 Z " />
<glyph glyph-name="AEacute" unicode="&#x1fc;" horiz-adv-x="1060" d="M990 0 L483 0 L483 547 L245 547 L245 0 L69 0 L69 569 L397 1580 L990 1580 L990 1424 L659 1424 L659 905 L949 905 L949 748 L659 748 L659 157 L990 157 L990 0 Z M483 704 L483 1311 L284 704 L483 704 Z M899 1950 L664 1705 L500 1705 L679 1950 L899 1950 Z " />
<glyph glyph-name="aeacute" unicode="&#x1fd;" horiz-adv-x="1060" d="M1020 568 L614 568 L614 375 Q614 110 749 110 Q833 110 888 242 L1008 174 Q925 -20 749 -20 Q605 -20 534 116 Q462 -20 301 -20 Q182 -20 110.5 75.5 Q39 171 39 342 Q39 515 125.5 602 Q212 689 382 689 L446 689 L446 878 Q446 1063 321 1063 Q227 1063 182 942 L52 999 Q135 1194 321 1194 Q472 1194 534 1063 Q604 1194 749 1194 Q868 1194 944 1098 Q1020 1002 1020 767 L1020 568 Z M853 689 L853 797 Q853 1063 734 1063 Q613 1063 613 797 L613 689 L853 689 Z M446 369 L446 568 L382 568 Q206 568 206 347 Q206 110 326 110 Q446 110 446 369 Z M889 1580 L654 1335 L490 1335 L669 1580 L889 1580 Z " />
<glyph glyph-name="Oslashacute" unicode="&#x1fe;" horiz-adv-x="1060" d="M782 1731 L742 1539 Q918 1427 918 1053 L918 548 Q918 239 810 109.5 Q702 -20 530 -20 Q471 -20 419 -3 L383 -180 L274 -156 L317 51 Q142 170 142 548 L142 1053 Q142 1352 250 1477 Q358 1602 530 1602 Q587 1602 639 1587 L674 1755 L782 1731 Z M741 548 L741 1053 Q741 1260 701 1339 L452 153 Q488 137 531 137 Q628 137 684.5 219 Q741 301 741 548 Z M529 1445 Q430 1445 374.5 1368 Q319 1291 319 1053 L319 548 Q319 333 358 247 L606 1431 Q570 1445 529 1445 Z M789 1950 L554 1705 L390 1705 L569 1950 L789 1950 Z " />
<glyph glyph-name="oslashacute" unicode="&#x1ff;" horiz-adv-x="1060" d="M807 1308 L750 1124 Q924 1002 924 677 L924 505 Q924 247 814 113.5 Q704 -20 530 -20 Q464 -20 406 0 L355 -168 L249 -134 L307 56 Q135 195 135 515 L135 657 Q135 916 245.5 1055 Q356 1194 530 1194 Q594 1194 651 1175 L702 1342 L807 1308 Z M748 505 L748 677 Q748 881 697 949 L453 152 Q488 137 530 137 Q626 137 687 213.5 Q748 290 748 505 Z M530 1036 Q434 1036 372.5 954.5 Q311 873 311 657 L311 515 Q311 315 362 234 L604 1023 Q569 1036 530 1036 Z M829 1580 L594 1335 L430 1335 L609 1580 L829 1580 Z " />
<glyph glyph-name="Adblgrave" unicode="&#x200;" horiz-adv-x="1060" d="M259 1950 L448 1685 L284 1685 L48 1950 L259 1950 Z M611 1950 L801 1685 L636 1685 L401 1950 L611 1950 Z M289 88 L289 0 L113 0 L113 88 Q113 315 248 852 L408 1490 L651 1490 L812 852 Q947 315 947 88 L947 0 L771 0 L771 88 Q771 195 741 370 L318 370 Q289 195 289 88 Z M530 1300 L399 754 Q368 627 346 520 L713 520 Q691 627 661 754 L530 1300 Z " />
<glyph glyph-name="adblgrave" unicode="&#x201;" horiz-adv-x="1060" d="M914 0 L738 0 L738 132 Q626 -20 455 -20 Q312 -20 223.5 78.5 Q135 177 135 326 Q135 479 245.5 582.5 Q356 686 570 686 L738 686 L738 813 Q738 1034 528 1034 Q373 1034 296 897 L163 997 Q301 1194 529 1194 Q698 1194 806 1097.5 Q914 1001 914 813 L914 0 Z M738 275 L738 544 L570 544 Q444 544 380 485 Q316 426 316 326 Q316 140 499 140 Q643 140 738 275 Z M269 1580 L458 1315 L294 1315 L58 1580 L269 1580 Z M621 1580 L811 1315 L646 1315 L411 1580 L621 1580 Z " />
<glyph glyph-name="Ainvertedbreve" unicode="&#x202;" horiz-adv-x="1060" d="M808 1680 Q667 1806 530 1806 Q390 1806 252 1680 L252 1843 Q372 1950 530 1950 Q688 1950 808 1843 L808 1680 Z M289 88 L289 0 L113 0 L113 88 Q113 315 248 852 L408 1490 L651 1490 L812 852 Q947 315 947 88 L947 0 L771 0 L771 88 Q771 195 741 370 L318 370 Q289 195 289 88 Z M530 1300 L399 754 Q368 627 346 520 L713 520 Q691 627 661 754 L530 1300 Z " />
<glyph glyph-name="ainvertedbreve" unicode="&#x203;" horiz-adv-x="1060" d="M914 0 L738 0 L738 132 Q626 -20 455 -20 Q312 -20 223.5 78.5 Q135 177 135 326 Q135 479 245.5 582.5 Q356 686 570 686 L738 686 L738 813 Q738 1034 528 1034 Q373 1034 296 897 L163 997 Q301 1194 529 1194 Q698 1194 806 1097.5 Q914 1001 914 813 L914 0 Z M738 275 L738 544 L570 544 Q444 544 380 485 Q316 426 316 326 Q316 140 499 140 Q643 140 738 275 Z M808 1330 Q667 1456 530 1456 Q390 1456 252 1330 L252 1493 Q372 1600 530 1600 Q688 1600 808 1493 L808 1330 Z " />
<glyph glyph-name="Edblgrave" unicode="&#x204;" horiz-adv-x="1060" d="M309 1950 L498 1685 L334 1685 L98 1950 L309 1950 Z M661 1950 L851 1685 L686 1685 L451 1950 L661 1950 Z M924 0 L196 0 L196 1490 L924 1490 L924 1340 L372 1340 L372 868 L780 868 L780 718 L372 718 L372 150 L924 150 L924 0 Z " />
<glyph glyph-name="edblgrave" unicode="&#x205;" horiz-adv-x="1060" d="M924 551 L311 551 L311 516 Q311 289 377.5 214.5 Q444 140 557 140 Q702 140 788 286 L931 195 Q796 -20 546 -20 Q366 -20 250.5 108.5 Q135 237 135 516 L135 657 Q135 936 250.5 1065 Q366 1194 530 1194 Q704 1194 814 1075 Q924 956 924 687 L924 551 Z M748 706 Q748 885 686.5 959.5 Q625 1034 530 1034 Q439 1034 375 959.5 Q311 885 311 706 L748 706 Z M279 1580 L468 1315 L304 1315 L68 1580 L279 1580 Z M631 1580 L821 1315 L656 1315 L421 1580 L631 1580 Z " />
<glyph glyph-name="Einvertedbreve" unicode="&#x206;" horiz-adv-x="1060" d="M828 1680 Q687 1806 550 1806 Q410 1806 272 1680 L272 1843 Q392 1950 550 1950 Q708 1950 828 1843 L828 1680 Z M924 0 L196 0 L196 1490 L924 1490 L924 1340 L372 1340 L372 868 L780 868 L780 718 L372 718 L372 150 L924 150 L924 0 Z " />
<glyph glyph-name="einvertedbreve" unicode="&#x207;" horiz-adv-x="1060" d="M924 551 L311 551 L311 516 Q311 289 377.5 214.5 Q444 140 557 140 Q702 140 788 286 L931 195 Q796 -20 546 -20 Q366 -20 250.5 108.5 Q135 237 135 516 L135 657 Q135 936 250.5 1065 Q366 1194 530 1194 Q704 1194 814 1075 Q924 956 924 687 L924 551 Z M748 706 Q748 885 686.5 959.5 Q625 1034 530 1034 Q439 1034 375 959.5 Q311 885 311 706 L748 706 Z M808 1330 Q667 1456 530 1456 Q390 1456 252 1330 L252 1493 Q372 1600 530 1600 Q688 1600 808 1493 L808 1330 Z " />
<glyph glyph-name="Idblgrave" unicode="&#x208;" horiz-adv-x="1060" d="M279 1950 L468 1685 L304 1685 L68 1950 L279 1950 Z M631 1950 L821 1685 L656 1685 L421 1950 L631 1950 Z M867 0 L192 0 L192 150 L441 150 L441 1340 L245 1340 L245 1490 L814 1490 L814 1340 L618 1340 L618 150 L867 150 L867 0 Z " />
<glyph glyph-name="idblgrave" unicode="&#x209;" horiz-adv-x="1060" d="M879 0 L200 0 L200 157 L451 157 L451 1015 L250 1015 L250 1172 L628 1172 L628 157 L879 157 L879 0 Z M239 1580 L428 1315 L264 1315 L28 1580 L239 1580 Z M591 1580 L781 1315 L616 1315 L381 1580 L591 1580 Z " />
<glyph glyph-name="Iinvertedbreve" unicode="&#x20a;" horiz-adv-x="1060" d="M808 1680 Q667 1806 530 1806 Q390 1806 252 1680 L252 1843 Q372 1950 530 1950 Q688 1950 808 1843 L808 1680 Z M867 0 L192 0 L192 150 L441 150 L441 1340 L245 1340 L245 1490 L814 1490 L814 1340 L618 1340 L618 150 L867 150 L867 0 Z " />
<glyph glyph-name="iinvertedbreve" unicode="&#x20b;" horiz-adv-x="1060" d="M879 0 L200 0 L200 157 L451 157 L451 1015 L250 1015 L250 1172 L628 1172 L628 157 L879 157 L879 0 Z M749 1330 Q608 1456 471 1456 Q331 1456 193 1330 L193 1493 Q313 1600 471 1600 Q629 1600 749 1493 L749 1330 Z " />
<glyph glyph-name="Odblgrave" unicode="&#x20c;" horiz-adv-x="1060" d="M219 1950 L408 1685 L244 1685 L8 1950 L219 1950 Z M571 1950 L761 1685 L596 1685 L361 1950 L571 1950 Z M142 479 L142 1011 Q142 1270 250 1390 Q358 1510 530 1510 Q702 1510 810 1390 Q918 1270 918 1011 L918 479 Q918 220 810 100 Q702 -20 530 -20 Q358 -19 250 100.5 Q142 220 142 479 Z M319 479 Q319 284 374.5 212 Q430 140 529 140 Q628 140 684.5 212.5 Q741 285 741 479 L741 1011 Q741 1205 684.5 1277.5 Q628 1350 529 1350 Q430 1350 374.5 1278 Q319 1206 319 1011 L319 479 Z " />
<glyph glyph-name="odblgrave" unicode="&#x20d;" horiz-adv-x="1060" d="M925 507 Q925 238 814.5 109 Q704 -20 530 -20 Q356 -20 246 109 Q136 238 136 507 L136 667 Q136 936 246 1065 Q356 1194 530 1194 Q704 1194 814.5 1065 Q925 936 925 667 L925 507 Z M749 507 L749 667 Q749 875 687.5 954.5 Q626 1034 530 1034 Q434 1034 373 954.5 Q312 875 312 667 L312 507 Q312 299 373 219.5 Q434 140 530 140 Q626 140 687.5 219.5 Q749 299 749 507 Z M239 1580 L428 1315 L264 1315 L28 1580 L239 1580 Z M591 1580 L781 1315 L616 1315 L381 1580 L591 1580 Z " />
<glyph glyph-name="Oinvertedbreve" unicode="&#x20e;" horiz-adv-x="1060" d="M808 1680 Q667 1806 530 1806 Q390 1806 252 1680 L252 1843 Q372 1950 530 1950 Q688 1950 808 1843 L808 1680 Z M142 479 L142 1011 Q142 1270 250 1390 Q358 1510 530 1510 Q702 1510 810 1390 Q918 1270 918 1011 L918 479 Q918 220 810 100 Q702 -20 530 -20 Q358 -19 250 100.5 Q142 220 142 479 Z M319 479 Q319 284 374.5 212 Q430 140 529 140 Q628 140 684.5 212.5 Q741 285 741 479 L741 1011 Q741 1205 684.5 1277.5 Q628 1350 529 1350 Q430 1350 374.5 1278 Q319 1206 319 1011 L319 479 Z " />
<glyph glyph-name="oinvertedbreve" unicode="&#x20f;" horiz-adv-x="1060" d="M925 507 Q925 238 814.5 109 Q704 -20 530 -20 Q356 -20 246 109 Q136 238 136 507 L136 667 Q136 936 246 1065 Q356 1194 530 1194 Q704 1194 814.5 1065 Q925 936 925 667 L925 507 Z M749 507 L749 667 Q749 875 687.5 954.5 Q626 1034 530 1034 Q434 1034 373 954.5 Q312 875 312 667 L312 507 Q312 299 373 219.5 Q434 140 530 140 Q626 140 687.5 219.5 Q749 299 749 507 Z M808 1330 Q667 1456 530 1456 Q390 1456 252 1330 L252 1493 Q372 1600 530 1600 Q688 1600 808 1493 L808 1330 Z " />
<glyph glyph-name="Rdblgrave" unicode="&#x210;" horiz-adv-x="1060" d="M249 1950 L438 1685 L274 1685 L38 1950 L249 1950 Z M601 1950 L791 1685 L626 1685 L391 1950 L601 1950 Z M550 690 L366 690 L366 0 L190 0 L190 1490 L535 1490 Q745 1490 847.5 1376.5 Q950 1263 950 1100 Q950 948 884.5 853.5 Q819 759 722 723 L740 694 Q937 417 958 70 L962 0 L786 0 L783 55 Q763 386 576 648 L550 690 Z M366 840 L534 840 Q656 840 712 902 Q768 964 768 1101 Q768 1216 712 1278 Q656 1340 534 1340 L366 1340 L366 840 Z " />
<glyph glyph-name="rdblgrave" unicode="&#x211;" horiz-adv-x="1060" d="M1004 974 L851 906 Q800 1034 676 1034 Q418 1034 418 553 L418 0 L242 0 L242 1172 L418 1172 L418 984 Q522 1194 704 1194 Q915 1194 1004 974 Z M269 1580 L458 1315 L294 1315 L58 1580 L269 1580 Z M621 1580 L811 1315 L646 1315 L411 1580 L621 1580 Z " />
<glyph glyph-name="Rinvertedbreve" unicode="&#x212;" horiz-adv-x="1060" d="M789 1680 Q648 1806 511 1806 Q371 1806 233 1680 L233 1843 Q353 1950 511 1950 Q669 1950 789 1843 L789 1680 Z M550 690 L366 690 L366 0 L190 0 L190 1490 L535 1490 Q745 1490 847.5 1376.5 Q950 1263 950 1100 Q950 948 884.5 853.5 Q819 759 722 723 L740 694 Q937 417 958 70 L962 0 L786 0 L783 55 Q763 386 576 648 L550 690 Z M366 840 L534 840 Q656 840 712 902 Q768 964 768 1101 Q768 1216 712 1278 Q656 1340 534 1340 L366 1340 L366 840 Z " />
<glyph glyph-name="rinvertedbreve" unicode="&#x213;" horiz-adv-x="1060" d="M1004 974 L851 906 Q800 1034 676 1034 Q418 1034 418 553 L418 0 L242 0 L242 1172 L418 1172 L418 984 Q522 1194 704 1194 Q915 1194 1004 974 Z M888 1330 Q747 1456 610 1456 Q470 1456 332 1330 L332 1493 Q452 1600 610 1600 Q768 1600 888 1493 L888 1330 Z " />
<glyph glyph-name="Udblgrave" unicode="&#x214;" horiz-adv-x="1060" d="M229 1950 L418 1685 L254 1685 L18 1950 L229 1950 Z M581 1950 L771 1685 L606 1685 L371 1950 L581 1950 Z M910 474 Q910 218 799.5 99 Q689 -20 530 -20 Q371 -20 260.5 99 Q150 218 150 474 L150 1490 L326 1490 L326 474 Q326 278 384.5 209 Q443 140 529 140 Q615 140 674 209 Q733 278 733 474 L733 1490 L910 1490 L910 474 Z " />
<glyph glyph-name="udblgrave" unicode="&#x215;" horiz-adv-x="1060" d="M1004 974 L851 906 Q800 1034 676 1034 Q418 1034 418 553 L418 0 L242 0 L242 1172 L418 1172 L418 984 Q522 1194 704 1194 Q915 1194 1004 974 Z M299 1580 L488 1315 L324 1315 L88 1580 L299 1580 Z M651 1580 L841 1315 L676 1315 L441 1580 L651 1580 Z " />
<glyph glyph-name="Uinvertedbreve" unicode="&#x216;" horiz-adv-x="1060" d="M808 1680 Q667 1806 530 1806 Q390 1806 252 1680 L252 1843 Q372 1950 530 1950 Q688 1950 808 1843 L808 1680 Z M910 474 Q910 218 799.5 99 Q689 -20 530 -20 Q371 -20 260.5 99 Q150 218 150 474 L150 1490 L326 1490 L326 474 Q326 278 384.5 209 Q443 140 529 140 Q615 140 674 209 Q733 278 733 474 L733 1490 L910 1490 L910 474 Z " />
<glyph glyph-name="uinvertedbreve" unicode="&#x217;" horiz-adv-x="1060" d="M910 0 L734 0 L734 152 Q621 -20 461 -20 Q330 -20 240 78.5 Q150 177 150 432 L150 1172 L326 1172 L326 432 Q326 261 373.5 200.5 Q421 140 504 140 Q678 140 734 369 L734 1172 L910 1172 L910 0 Z M808 1330 Q667 1456 530 1456 Q390 1456 252 1330 L252 1493 Q372 1600 530 1600 Q688 1600 808 1493 L808 1330 Z " />
<glyph glyph-name="Scommaaccent" unicode="&#x218;" horiz-adv-x="1060" d="M948 369 Q948 208 841 94 Q734 -20 545 -20 Q246 -20 109 240 L239 339 Q342 140 544 140 Q637 140 704 197.5 Q771 255 771 368 Q771 460 655 569 L316 886 Q174 1020 174 1222 Q174 1383 278.5 1492.5 Q383 1602 565 1602 Q802 1602 949 1386 L814 1280 Q727 1442 566 1442 Q474 1442 412.5 1389 Q351 1336 351 1223 Q351 1105 444 1019 L782 704 Q948 547 948 369 Z M600 -159 Q600 -241 523 -365 L409 -365 Q458 -296 476 -225 Q443 -224 419 -198 Q395 -172 395 -137 Q395 -103 419 -76.5 Q443 -50 494 -50 Q540 -50 570 -81.5 Q600 -113 600 -159 Z " />
<glyph glyph-name="scommaaccent" unicode="&#x219;" horiz-adv-x="1060" d="M544 136 Q654 136 710.5 188 Q767 240 767 315 Q767 417 641 474 L416 578 Q206 677 206 861 Q206 1005 309.5 1099.5 Q413 1194 576 1194 Q811 1194 937 977 L793 890 Q727 1037 576 1037 Q486 1037 434 991.5 Q382 946 382 879 Q382 789 499 733 L712 634 Q943 527 943 306 Q943 176 835 78 Q727 -20 542 -20 Q283 -20 137 219 L282 307 Q368 136 544 136 Z M610 -159 Q610 -241 533 -365 L419 -365 Q468 -296 486 -225 Q453 -224 429 -198 Q405 -172 405 -137 Q405 -103 429 -76.5 Q453 -50 504 -50 Q550 -50 580 -81.5 Q610 -113 610 -159 Z " />
<glyph glyph-name="Tcommaccent" unicode="&#x21a;" horiz-adv-x="1060" d="M943 1430 L618 1430 L618 0 L442 0 L442 1430 L117 1430 L117 1580 L943 1580 L943 1430 Z M633 -159 Q633 -241 556 -365 L442 -365 Q491 -296 509 -225 Q476 -224 452 -198 Q428 -172 428 -137 Q428 -103 452 -76.5 Q476 -50 527 -50 Q573 -50 603 -81.5 Q633 -113 633 -159 Z " />
<glyph glyph-name="tcommacent" unicode="&#x21b;" horiz-adv-x="1060" d="M976 164 Q853 -20 647 -20 Q511 -20 418 73 Q325 166 325 347 L325 1022 L128 1022 L128 1172 L325 1172 L325 1580 L501 1580 L501 1172 L897 1172 L897 1022 L501 1022 L501 335 Q501 239 542.5 189.5 Q584 140 657 140 Q780 140 843 261 L976 164 Z M739 -159 Q739 -241 662 -365 L548 -365 Q597 -296 615 -225 Q582 -224 558 -198 Q534 -172 534 -137 Q534 -103 558 -76.5 Q582 -50 633 -50 Q679 -50 709 -81.5 Q739 -113 739 -159 Z " />
<glyph glyph-name="uni021C" unicode="&#x21c;" horiz-adv-x="1060" d="M154 1580 L880 1580 L880 1397 L515 957 Q912 920 912 556 Q912 298 527 0 L270 0 Q735 340 735 569 Q735 809 434 809 L307 809 L307 946 L696 1423 L154 1423 L154 1580 Z " />
<glyph glyph-name="uni021D" unicode="&#x21d;" horiz-adv-x="1060" d="M154 1172 L880 1172 L880 989 L515 549 Q912 512 912 148 Q912 -93 581 -365 L328 -365 Q735 -56 735 161 Q735 401 434 401 L307 401 L307 538 L696 1015 L154 1015 L154 1172 Z " />
<glyph glyph-name="uni021E" unicode="&#x21e;" horiz-adv-x="1060" d="M609 1685 L450 1685 L237 1950 L392 1950 L530 1808 L667 1950 L822 1950 L609 1685 Z M910 0 L734 0 L734 745 L326 745 L326 0 L150 0 L150 1490 L326 1490 L326 895 L734 895 L734 1490 L910 1490 L910 0 Z " />
<glyph glyph-name="uni021F" unicode="&#x21f;" horiz-adv-x="1060" d="M915 0 L739 0 L739 758 Q739 915 691.5 974.5 Q644 1034 561 1034 Q387 1034 331 793 L331 0 L155 0 L155 1580 L331 1580 L331 1032 Q444 1194 604 1194 Q735 1194 825 1097 Q915 1000 915 768 L915 0 Z M609 1685 L450 1685 L237 1950 L392 1950 L530 1808 L667 1950 L822 1950 L609 1685 Z " />
<glyph glyph-name="uni0220" unicode="&#x220;" horiz-adv-x="1060" d="M915 -365 L739 -365 L739 1198 Q739 1320 693 1377 Q644 1439 561 1439 Q416 1439 321 1307 L321 0 L145 0 L145 1580 L321 1580 L321 1445 Q434 1597 604 1597 Q735 1597 825 1500 Q915 1403 915 1198 L915 -365 Z " />
<glyph glyph-name="uni0222" unicode="&#x222;" horiz-adv-x="1060" d="M738 1580 L914 1580 L914 1262 Q914 944 741 847 Q914 737 914 455 Q914 207 801.5 93.5 Q689 -20 530 -20 Q371 -20 258 93.5 Q145 207 145 455 Q145 737 318 847 Q145 944 145 1262 L145 1580 L321 1580 L321 1198 Q321 1047 382.5 985.5 Q444 924 530 924 Q616 924 677 985.5 Q738 1047 738 1198 L738 1580 Z M738 455 Q738 644 677 705.5 Q616 767 530 767 Q444 767 382.5 705.5 Q321 644 321 455 Q321 260 382.5 198.5 Q444 137 530 137 Q616 137 677 198.5 Q738 260 738 455 Z " />
<glyph glyph-name="uni0223" unicode="&#x223;" horiz-adv-x="1060" d="M738 1748 L914 1748 L914 1428 Q914 1110 741 1013 Q914 903 914 594 L914 475 Q914 207 801.5 93.5 Q689 -20 530 -20 Q371 -20 258 93.5 Q145 207 145 475 L145 594 Q145 903 318 1013 Q145 1110 145 1428 L145 1748 L321 1748 L321 1364 Q321 1213 382.5 1151.5 Q444 1090 530 1090 Q616 1090 677 1151.5 Q738 1213 738 1364 L738 1748 Z M738 411 L738 658 Q738 810 677 871.5 Q616 933 530 933 Q444 933 382.5 871.5 Q321 810 321 658 L321 411 Q321 260 382.5 198.5 Q444 137 530 137 Q616 137 677 198.5 Q738 260 738 411 Z " />
<glyph glyph-name="uni0224" unicode="&#x224;" horiz-adv-x="1060" d="M677 -218 Q721 -218 753.5 -191 Q786 -164 786 -97 L786 0 L155 0 L155 150 L746 1430 L155 1430 L155 1580 L934 1580 L934 1430 L343 150 L944 150 L944 -98 Q944 -227 866 -296 Q788 -365 676 -365 L541 -365 L541 -218 L677 -218 Z " />
<glyph glyph-name="uni0225" unicode="&#x225;" horiz-adv-x="1060" d="M663 -218 Q707 -218 739.5 -191 Q772 -164 772 -97 L772 0 L142 0 L142 150 L708 1022 L151 1022 L151 1172 L908 1172 L908 1022 L342 150 L930 150 L930 -98 Q930 -227 852 -296 Q774 -365 662 -365 L527 -365 L527 -218 L663 -218 Z " />
<glyph glyph-name="uni0226" unicode="&#x226;" horiz-adv-x="1060" d="M665 1815 Q665 1759 625 1719.5 Q585 1680 529 1680 Q473 1680 433.5 1719.5 Q394 1759 394 1815 Q394 1872 433.5 1911 Q473 1950 529 1950 Q585 1950 625 1911 Q665 1872 665 1815 Z M289 88 L289 0 L113 0 L113 88 Q113 315 248 852 L408 1490 L651 1490 L812 852 Q947 315 947 88 L947 0 L771 0 L771 88 Q771 195 741 370 L318 370 Q289 195 289 88 Z M530 1300 L399 754 Q368 627 346 520 L713 520 Q691 627 661 754 L530 1300 Z " />
<glyph glyph-name="uni0227" unicode="&#x227;" horiz-adv-x="1060" d="M914 0 L738 0 L738 132 Q626 -20 455 -20 Q312 -20 223.5 78.5 Q135 177 135 326 Q135 479 245.5 582.5 Q356 686 570 686 L738 686 L738 813 Q738 1034 528 1034 Q373 1034 296 897 L163 997 Q301 1194 529 1194 Q698 1194 806 1097.5 Q914 1001 914 813 L914 0 Z M738 275 L738 544 L570 544 Q444 544 380 485 Q316 426 316 326 Q316 140 499 140 Q643 140 738 275 Z M675 1445 Q675 1389 635 1349.5 Q595 1310 539 1310 Q483 1310 443.5 1349.5 Q404 1389 404 1445 Q404 1502 443.5 1541 Q483 1580 539 1580 Q595 1580 635 1541 Q675 1502 675 1445 Z " />
<glyph glyph-name="uni0228" unicode="&#x228;" horiz-adv-x="1060" d="M915 0 L187 0 L187 1580 L915 1580 L915 1430 L363 1430 L363 918 L771 918 L771 768 L363 768 L363 150 L915 150 L915 0 Z M363 -254 Q537 -269 537 -197 Q537 -137 436 -144 L483 -50 Q697 -58 697 -195 Q697 -279 629.5 -327 Q562 -375 363 -375 L363 -254 Z " />
<glyph glyph-name="uni0229" unicode="&#x229;" horiz-adv-x="1060" d="M924 551 L311 551 L311 516 Q311 289 377.5 214.5 Q444 140 557 140 Q702 140 788 286 L931 195 Q796 -20 546 -20 Q366 -20 250.5 108.5 Q135 237 135 516 L135 657 Q135 936 250.5 1065 Q366 1194 530 1194 Q704 1194 814 1075 Q924 956 924 687 L924 551 Z M748 706 Q748 885 686.5 959.5 Q625 1034 530 1034 Q439 1034 375 959.5 Q311 885 311 706 L748 706 Z M363 -254 Q537 -269 537 -197 Q537 -137 436 -144 L483 -50 Q697 -58 697 -195 Q697 -279 629.5 -327 Q562 -375 363 -375 L363 -254 Z " />
<glyph glyph-name="uni022A" unicode="&#x22a;" horiz-adv-x="1060" d="M866 1826 L193 1826 L193 1950 L866 1950 L866 1826 Z M866 1630 Q866 1584 833.5 1549.5 Q801 1515 750 1515 Q700 1515 667.5 1549.5 Q635 1584 635 1630 Q635 1677 667.5 1711 Q700 1745 750 1745 Q801 1745 833.5 1711 Q866 1677 866 1630 Z M424 1630 Q424 1584 391.5 1549.5 Q359 1515 308 1515 Q258 1515 225.5 1549.5 Q193 1584 193 1630 Q193 1677 225.5 1711 Q258 1745 308 1745 Q359 1745 391.5 1711 Q424 1677 424 1630 Z M142 479 L142 971 Q142 1230 250 1350 Q358 1470 530 1470 Q702 1470 810 1350 Q918 1230 918 971 L918 479 Q918 220 810 100 Q702 -20 530 -20 Q358 -19 250 100.5 Q142 220 142 479 Z M319 479 Q319 284 374.5 212 Q430 140 529 140 Q628 140 684.5 212.5 Q741 285 741 479 L741 971 Q741 1165 684.5 1237.5 Q628 1310 529 1310 Q430 1310 374.5 1238 Q319 1166 319 971 L319 479 Z " />
<glyph glyph-name="uni022B" unicode="&#x22b;" horiz-adv-x="1060" d="M925 507 Q925 238 814.5 109 Q704 -20 530 -20 Q356 -20 246 109 Q136 238 136 507 L136 667 Q136 936 246 1065 Q356 1194 530 1194 Q704 1194 814.5 1065 Q925 936 925 667 L925 507 Z M749 507 L749 667 Q749 875 687.5 954.5 Q626 1034 530 1034 Q434 1034 373 954.5 Q312 875 312 667 L312 507 Q312 299 373 219.5 Q434 140 530 140 Q626 140 687.5 219.5 Q749 299 749 507 Z M866 1580 L193 1580 L193 1704 L866 1704 L866 1580 Z M866 1384 Q866 1338 833.5 1303.5 Q801 1269 750 1269 Q700 1269 667.5 1303.5 Q635 1338 635 1384 Q635 1431 667.5 1465 Q700 1499 750 1499 Q801 1499 833.5 1465 Q866 1431 866 1384 Z M424 1384 Q424 1338 391.5 1303.5 Q359 1269 308 1269 Q258 1269 225.5 1303.5 Q193 1338 193 1384 Q193 1431 225.5 1465 Q258 1499 308 1499 Q359 1499 391.5 1465 Q424 1431 424 1384 Z " />
<glyph glyph-name="uni022C" unicode="&#x22c;" horiz-adv-x="1060" d="M886 1826 L173 1826 L173 1950 L886 1950 L886 1826 Z M896 1701 Q816 1515 658 1515 Q588 1515 511 1573.5 Q434 1632 396 1632 Q332 1632 250 1521 L163 1584 Q268 1771 406 1771 Q466 1771 541 1711.5 Q616 1652 668 1652 Q732 1652 793 1762 L896 1701 Z M142 479 L142 971 Q142 1230 250 1350 Q358 1470 530 1470 Q702 1470 810 1350 Q918 1230 918 971 L918 479 Q918 220 810 100 Q702 -20 530 -20 Q358 -19 250 100.5 Q142 220 142 479 Z M319 479 Q319 284 374.5 212 Q430 140 529 140 Q628 140 684.5 212.5 Q741 285 741 479 L741 971 Q741 1165 684.5 1237.5 Q628 1310 529 1310 Q430 1310 374.5 1238 Q319 1166 319 971 L319 479 Z " />
<glyph glyph-name="uni022D" unicode="&#x22d;" horiz-adv-x="1060" d="M925 507 Q925 238 814.5 109 Q704 -20 530 -20 Q356 -20 246 109 Q136 238 136 507 L136 667 Q136 936 246 1065 Q356 1194 530 1194 Q704 1194 814.5 1065 Q925 936 925 667 L925 507 Z M749 507 L749 667 Q749 875 687.5 954.5 Q626 1034 530 1034 Q434 1034 373 954.5 Q312 875 312 667 L312 507 Q312 299 373 219.5 Q434 140 530 140 Q626 140 687.5 219.5 Q749 299 749 507 Z M886 1580 L173 1580 L173 1704 L886 1704 L886 1580 Z M896 1455 Q816 1269 658 1269 Q588 1269 511 1327.5 Q434 1386 396 1386 Q332 1386 250 1275 L163 1338 Q268 1525 406 1525 Q466 1525 541 1465.5 Q616 1406 668 1406 Q732 1406 793 1516 L896 1455 Z " />
<glyph glyph-name="uni022E" unicode="&#x22e;" horiz-adv-x="1060" d="M665 1815 Q665 1759 625 1719.5 Q585 1680 529 1680 Q473 1680 433.5 1719.5 Q394 1759 394 1815 Q394 1872 433.5 1911 Q473 1950 529 1950 Q585 1950 625 1911 Q665 1872 665 1815 Z M142 479 L142 1011 Q142 1270 250 1390 Q358 1510 530 1510 Q702 1510 810 1390 Q918 1270 918 1011 L918 479 Q918 220 810 100 Q702 -20 530 -20 Q358 -19 250 100.5 Q142 220 142 479 Z M319 479 Q319 284 374.5 212 Q430 140 529 140 Q628 140 684.5 212.5 Q741 285 741 479 L741 1011 Q741 1205 684.5 1277.5 Q628 1350 529 1350 Q430 1350 374.5 1278 Q319 1206 319 1011 L319 479 Z " />
<glyph glyph-name="uni022F" unicode="&#x22f;" horiz-adv-x="1060" d="M925 507 Q925 238 814.5 109 Q704 -20 530 -20 Q356 -20 246 109 Q136 238 136 507 L136 667 Q136 936 246 1065 Q356 1194 530 1194 Q704 1194 814.5 1065 Q925 936 925 667 L925 507 Z M749 507 L749 667 Q749 875 687.5 954.5 Q626 1034 530 1034 Q434 1034 373 954.5 Q312 875 312 667 L312 507 Q312 299 373 219.5 Q434 140 530 140 Q626 140 687.5 219.5 Q749 299 749 507 Z M665 1445 Q665 1389 625 1349.5 Q585 1310 529 1310 Q473 1310 433.5 1349.5 Q394 1389 394 1445 Q394 1502 433.5 1541 Q473 1580 529 1580 Q585 1580 625 1541 Q665 1502 665 1445 Z " />
<glyph glyph-name="uni0230" unicode="&#x230;" horiz-adv-x="1060" d="M645 1630 Q645 1584 612.5 1549.5 Q580 1515 529 1515 Q479 1515 446.5 1549.5 Q414 1584 414 1630 Q414 1677 446.5 1711 Q479 1745 529 1745 Q580 1745 612.5 1711 Q645 1677 645 1630 Z M886 1826 L173 1826 L173 1950 L886 1950 L886 1826 Z M142 479 L142 971 Q142 1230 250 1350 Q358 1470 530 1470 Q702 1470 810 1350 Q918 1230 918 971 L918 479 Q918 220 810 100 Q702 -20 530 -20 Q358 -19 250 100.5 Q142 220 142 479 Z M319 479 Q319 284 374.5 212 Q430 140 529 140 Q628 140 684.5 212.5 Q741 285 741 479 L741 971 Q741 1165 684.5 1237.5 Q628 1310 529 1310 Q430 1310 374.5 1238 Q319 1166 319 971 L319 479 Z " />
<glyph glyph-name="uni0231" unicode="&#x231;" horiz-adv-x="1060" d="M925 507 Q925 238 814.5 109 Q704 -20 530 -20 Q356 -20 246 109 Q136 238 136 507 L136 667 Q136 936 246 1065 Q356 1194 530 1194 Q704 1194 814.5 1065 Q925 936 925 667 L925 507 Z M749 507 L749 667 Q749 875 687.5 954.5 Q626 1034 530 1034 Q434 1034 373 954.5 Q312 875 312 667 L312 507 Q312 299 373 219.5 Q434 140 530 140 Q626 140 687.5 219.5 Q749 299 749 507 Z M645 1384 Q645 1338 612.5 1303.5 Q580 1269 529 1269 Q479 1269 446.5 1303.5 Q414 1338 414 1384 Q414 1431 446.5 1465 Q479 1499 529 1499 Q580 1499 612.5 1465 Q645 1431 645 1384 Z M886 1580 L173 1580 L173 1704 L886 1704 L886 1580 Z " />
<glyph glyph-name="uni0232" unicode="&#x232;" horiz-adv-x="1060" d="M618 0 L442 0 L442 673 L272 983 Q98 1300 98 1507 L98 1580 L274 1580 L274 1507 Q274 1329 406 1072 L530 825 L654 1072 Q786 1329 786 1507 L786 1580 L962 1580 L962 1507 Q962 1300 788 983 L618 673 L618 0 Z M815 1816 L244 1816 L244 1950 L815 1950 L815 1816 Z " />
<glyph glyph-name="uni0233" unicode="&#x233;" horiz-adv-x="1060" d="M314 -189 L448 160 L205 758 Q118 973 111 1082 L106 1172 L282 1172 L287 1088 Q291 1017 368 808 L530 365 L693 802 Q768 1013 773 1088 L778 1172 L954 1172 L948 1082 Q943 985 855 758 L481 -212 Q462 -261 458 -327 L456 -365 L280 -365 L282 -327 Q286 -261 314 -189 Z M815 1446 L244 1446 L244 1580 L815 1580 L815 1446 Z " />
<glyph glyph-name="dotlessj" unicode="&#x237;" horiz-adv-x="1060" d="M546 -20 L546 1015 L271 1015 L271 1172 L723 1172 L723 -8 Q723 -188 630 -281.5 Q537 -375 402 -375 Q195 -375 72 -190 L206 -94 Q268 -219 391 -219 Q464 -219 505 -172.5 Q546 -126 546 -20 Z " />
<glyph glyph-name="uni0238" unicode="&#x238;" horiz-adv-x="1060" d="M453 1580 L607 1580 L607 1077 Q665 1189 764 1189 Q989 1189 989 587 Q989 -20 764 -20 Q665 -20 607 91 L607 0 L453 0 L453 91 Q395 -20 296 -20 Q71 -20 71 587 Q71 1189 296 1189 Q395 1189 453 1077 L453 1580 Z M607 239 Q648 136 722 136 Q835 136 835 587 Q835 1031 722 1031 Q647 1031 607 929 L607 239 Z M453 239 L453 929 Q413 1031 338 1031 Q225 1031 225 587 Q225 136 338 136 Q412 136 453 239 Z " />
<glyph glyph-name="uni0239" unicode="&#x239;" horiz-adv-x="1060" d="M453 95 Q395 -17 296 -17 Q71 -17 71 585 Q71 1192 296 1192 Q395 1192 453 1081 L453 1172 L607 1172 L607 1081 Q665 1192 764 1192 Q989 1192 989 585 Q989 -17 764 -17 Q665 -17 607 95 L607 -365 L453 -365 L453 95 Z M607 243 Q647 141 722 141 Q835 141 835 585 Q835 1036 722 1036 Q648 1036 607 933 L607 243 Z M453 933 Q412 1036 338 1036 Q225 1036 225 585 Q225 141 338 141 Q413 141 453 243 L453 933 Z " />
<glyph glyph-name="uni023A" unicode="&#x23a;" horiz-adv-x="1060" d="M289 88 L289 0 L113 0 L113 88 Q113 315 248 852 L431 1580 L629 1580 L665 1436 L744 1777 L835 1777 L712 1248 L812 852 Q947 315 947 88 L947 0 L771 0 L771 88 Q771 195 741 370 L508 370 L376 -200 L285 -200 L417 370 L318 370 Q289 195 289 88 Z M530 1300 L399 754 Q368 627 346 520 L452 520 L582 1081 L530 1300 Z M713 520 Q691 627 661 754 L628 888 L543 520 L713 520 Z " />
</font>
</defs>
</svg>
