<svg xmlns="http://www.w3.org/2000/svg" xmlns:xlink="http://www.w3.org/1999/xlink" version="1.1" x="0px" y="0px" viewBox="0 0 84 125" enable-background="new 0 0 84 100" xml:space="preserve"><path fill-rule="evenodd" fill="#ffffff" clip-rule="evenodd" d="M40.261,15.827c-6.113,12.559-18.19,24.251-30.267,24.67v3.045v15.823v0.027v0.025  c0.017,9.122,3.95,18.85,10.214,26.102c5.739,6.644,13.421,11.18,21.792,11.18c8.33,0,16.013-4.552,21.757-11.209  c6.278-7.268,10.231-16.996,10.249-26.072v-0.025v-0.027V43.543v-7.392c0-0.493-0.013-0.982-0.034-1.469  c-8.759,0.03-18.728-7.285-25.563-15.199c-6.385,13.173-18.172,21.282-33.198,21.523C29.389,36.578,36.125,27.617,40.261,15.827  L40.261,15.827z M38.038,86.395c-0.571,0.002-1.04-0.453-1.045-1.022c-0.005-0.568,0.457-1.03,1.029-1.034  c0.581-0.007,1.224-0.015,1.908-0.015l2.071-0.01l2.07,0.01c0.686,0,1.325,0.008,1.906,0.015c0.573,0.004,1.032,0.466,1.029,1.034  c-0.004,0.569-0.473,1.024-1.049,1.022c-0.58-0.011-1.221-0.015-1.896-0.021h-2.061h-2.062  C39.262,86.38,38.625,86.384,38.038,86.395L38.038,86.395z M77.463,45.002l-0.12,0.026v14.338v0.019v0.02v0.02l-0.001,0.234v0.02  l-0.003,0.018v0.025v0.019c-0.003,0.315-0.013,0.63-0.023,0.949c1.719-2.059,2.945-5.728,3.275-9.133  c0.147-1.53,0.107-2.981-0.159-4.174c-0.226-0.994-0.596-1.768-1.127-2.17C78.893,44.899,78.289,44.801,77.463,45.002L77.463,45.002  z M77.343,41.674c1.601-0.241,2.921,0.118,3.981,0.919c1.197,0.908,1.96,2.345,2.349,4.08c0.349,1.537,0.408,3.337,0.229,5.191  c-0.481,4.972-2.76,10.549-5.899,12.642c-0.389,0.26-0.75,0.381-1.092,0.413c-1.245,8.137-5.101,16.316-10.623,22.713  C59.943,94.974,51.384,100,42.001,100c-9.424,0-17.986-5.003-24.319-12.339c-5.52-6.388-9.36-14.575-10.596-22.742  c-0.342-0.032-0.702-0.153-1.088-0.413c-3.141-2.093-5.417-7.67-5.899-12.642c-0.18-1.854-0.119-3.654,0.228-5.191  c0.389-1.735,1.154-3.172,2.349-4.08c1.059-0.801,2.382-1.161,3.982-0.919v-1.356C6.328,40.269,6,40.215,5.673,40.148  C1.842,16.975,19.851-1.045,44.357,0.047c1.429-0.07,2.844,0.045,4.253,0.251c1.607,0.193,3.18,0.492,4.708,0.89l0.043,0.009V1.2  c13.745,3.615,23.79,15.359,23.618,29.966c0.237,1.628,0.363,3.292,0.363,4.985V41.674L77.343,41.674z M6.683,60.687  c-0.011-0.317-0.018-0.632-0.022-0.947v-0.019v-0.025v-0.018v-0.02l-0.002-0.234v-0.02v-0.02v-0.019V45.028l-0.117-0.026  c-0.829-0.201-1.434-0.103-1.845,0.209c-0.533,0.403-0.898,1.177-1.125,2.17c-0.27,1.193-0.311,2.644-0.16,4.174  C3.738,54.961,4.963,58.63,6.683,60.687L6.683,60.687z M48.909,46.015c-0.754,0.519-1.79,0.338-2.313-0.406  c-0.526-0.745-0.345-1.768,0.409-2.288c2.238-1.547,6.121-2.406,10.109-2.503c3.89-0.098,7.976,0.515,10.819,1.896  c0.824,0.398,1.165,1.385,0.762,2.199c-0.398,0.814-1.396,1.152-2.222,0.754c-2.354-1.145-5.869-1.648-9.278-1.564  C53.8,44.189,50.604,44.846,48.909,46.015L48.909,46.015z M51.761,53.213c-0.243,0.517-0.865,0.733-1.383,0.493  c-0.52-0.24-0.741-0.854-0.495-1.367c0.662-1.386,1.82-2.556,3.293-3.371c1.4-0.771,3.086-1.225,4.895-1.225  c1.807,0,3.495,0.454,4.894,1.225c1.475,0.815,2.635,1.985,3.296,3.371c0.246,0.513,0.021,1.127-0.495,1.367  c-0.52,0.24-1.139,0.023-1.386-0.493c-0.472-0.989-1.326-1.842-2.424-2.445c-0.526-0.29-1.103-0.522-1.72-0.684  c0.38,0.468,0.608,1.063,0.608,1.711c0,1.513-1.244,2.74-2.773,2.74s-2.771-1.228-2.771-2.74c0-0.648,0.228-1.243,0.607-1.711  c-0.616,0.161-1.197,0.394-1.719,0.684C53.093,51.371,52.235,52.224,51.761,53.213L51.761,53.213z M36.994,43.322  c0.753,0.52,0.936,1.543,0.411,2.288c-0.525,0.744-1.562,0.924-2.312,0.406c-1.696-1.169-4.893-1.826-8.29-1.911  c-3.408-0.084-6.924,0.419-9.279,1.564c-0.823,0.398-1.818,0.061-2.222-0.754c-0.402-0.814-0.061-1.8,0.764-2.199  c2.842-1.381,6.93-1.995,10.814-1.896C30.875,40.916,34.755,41.774,36.994,43.322L36.994,43.322z M34.121,52.339  c0.242,0.513,0.021,1.127-0.499,1.367c-0.519,0.24-1.138,0.023-1.384-0.493c-0.476-0.989-1.328-1.842-2.423-2.445  c-0.525-0.29-1.101-0.522-1.723-0.684c0.383,0.468,0.609,1.063,0.609,1.711c0,1.513-1.241,2.74-2.77,2.74  c-1.532,0-2.773-1.228-2.773-2.74c0-0.648,0.227-1.243,0.606-1.711c-0.617,0.161-1.195,0.394-1.719,0.684  c-1.096,0.604-1.949,1.456-2.423,2.445c-0.247,0.517-0.865,0.733-1.385,0.493c-0.519-0.24-0.741-0.854-0.497-1.367  c0.662-1.386,1.821-2.556,3.294-3.371c1.403-0.771,3.091-1.225,4.897-1.225c1.806,0,3.492,0.454,4.892,1.225  C32.295,49.783,33.458,50.953,34.121,52.339L34.121,52.339z M30.179,78.389c-0.652-0.642-0.653-1.683-0.007-2.325  c0.648-0.646,1.702-0.648,2.351-0.009c1.127,1.104,2.556,2.009,4.187,2.628c1.589,0.604,3.382,0.943,5.292,0.943  c1.907,0,3.702-0.34,5.288-0.943c1.632-0.619,3.062-1.523,4.188-2.628c0.651-0.64,1.703-0.638,2.352,0.009  c0.646,0.643,0.645,1.684-0.009,2.325c-1.445,1.42-3.27,2.573-5.343,3.361c-1.981,0.755-4.178,1.179-6.476,1.179  c-2.3,0-4.498-0.424-6.476-1.179C33.449,80.962,31.625,79.809,30.179,78.389L30.179,78.389z M48.287,66.619  c-0.031-0.567,0.412-1.057,0.985-1.081c0.571-0.029,1.061,0.407,1.091,0.972l0.007,0.2c0,1.021-0.422,1.956-1.106,2.636L49.26,69.35  c-0.683,0.673-1.626,1.091-2.66,1.091c-0.461,0-0.899-0.083-1.308-0.23c-0.068-0.024-0.14-0.053-0.208-0.088  c-0.272,0.285-0.584,0.524-0.926,0.726c-0.637,0.37-1.377,0.58-2.157,0.58c-0.784,0-1.522-0.21-2.159-0.58  c-0.34-0.201-0.65-0.44-0.924-0.726c-0.068,0.032-0.14,0.063-0.211,0.088c-0.408,0.147-0.848,0.23-1.305,0.23  c-1.035,0-1.978-0.418-2.664-1.091l-0.002-0.004c-0.682-0.68-1.106-1.614-1.106-2.636l0.009-0.2  c0.029-0.564,0.516-1.001,1.089-0.972c0.574,0.024,1.017,0.514,0.987,1.081v0.091c0,0.462,0.187,0.878,0.491,1.18l0.005,0.004  c0.302,0.301,0.724,0.485,1.191,0.485c0.21,0,0.41-0.037,0.59-0.104c0.189-0.069,0.363-0.17,0.511-0.296h0.001  c0.051-0.044,0.108-0.083,0.169-0.118c0.503-0.273,1.136-0.092,1.414,0.4c0.191,0.336,0.469,0.618,0.806,0.816  c0.32,0.184,0.699,0.292,1.109,0.292c0.407,0,0.787-0.108,1.106-0.292c0.333-0.195,0.614-0.48,0.807-0.82l0,0  c0.033-0.058,0.072-0.113,0.117-0.166c0.372-0.43,1.029-0.48,1.467-0.112c0.147,0.128,0.322,0.227,0.509,0.296  c0.18,0.066,0.38,0.104,0.593,0.104c0.467,0,0.886-0.185,1.191-0.485l0.005-0.004c0.3-0.302,0.491-0.718,0.491-1.18V66.619  L48.287,66.619z"/></svg>