<?xml version="1.0" encoding="utf-8"?>
<!-- Generator: Adobe Illustrator 18.1.0, SVG Export Plug-In . SVG Version: 6.00 Build 0)  -->
<svg version="1.1" id="Layer_1" xmlns="http://www.w3.org/2000/svg" xmlns:xlink="http://www.w3.org/1999/xlink" x="0px" y="0px"
	 viewBox="0 0 630 100" enable-background="new 0 0 630 100" xml:space="preserve">
<rect x="106.3" y="24.8" fill="none" width="630" height="100"/>
<text transform="matrix(1 0 0 1 24.3121 76.3596)" fill="none" font-family="'Arial-Black'" font-size="72">R D S . Z O N E</text>
<g enable-background="new    ">
	<path fill="none" stroke="#231F20" stroke-miterlimit="10" d="M29.8,73.2V21.7h26.5c4.9,0,8.7,0.4,11.3,1.3s4.7,2.4,6.3,4.7
		c1.6,2.3,2.4,5.1,2.4,8.3c0,2.9-0.6,5.3-1.8,7.4c-1.2,2.1-2.9,3.8-5,5c-1.4,0.8-3.2,1.5-5.6,2c1.9,0.6,3.3,1.3,4.1,1.9
		c0.6,0.4,1.4,1.3,2.5,2.7c1.1,1.4,1.9,2.5,2.2,3.2l7.7,14.9h-18L54,57.5c-1.1-2-2-3.4-2.9-4c-1.1-0.8-2.4-1.2-3.9-1.2h-1.4v20.9
		H29.8z M45.8,42.6h6.7c0.7,0,2.1-0.2,4.2-0.7c1.1-0.2,1.9-0.8,2.6-1.6s1-1.9,1-3c0-1.7-0.5-2.9-1.6-3.8s-3-1.3-5.9-1.3h-7V42.6z"/>
	<path fill="none" stroke="#231F20" stroke-miterlimit="10" d="M109.8,21.7h23.7c4.7,0,8.4,0.6,11.3,1.9c2.9,1.3,5.2,3.1,7.1,5.4
		c1.9,2.4,3.2,5.1,4.1,8.3s1.3,6.5,1.3,10c0,5.5-0.6,9.8-1.9,12.8c-1.3,3-3,5.6-5.2,7.6c-2.2,2.1-4.6,3.4-7.2,4.1
		c-3.5,0.9-6.7,1.4-9.5,1.4h-23.7V21.7z M125.7,33.4v28.2h3.9c3.3,0,5.7-0.4,7.1-1.1s2.5-2,3.3-3.9c0.8-1.8,1.2-4.8,1.2-8.9
		c0-5.5-0.9-9.2-2.7-11.2c-1.8-2-4.7-3-8.9-3H125.7z"/>
	<path fill="none" stroke="#231F20" stroke-miterlimit="10" d="M186.8,56.2l15.2-0.9c0.3,2.5,1,4.3,2,5.6c1.6,2.1,4,3.1,7,3.1
		c2.3,0,4-0.5,5.3-1.6s1.8-2.3,1.8-3.7c0-1.3-0.6-2.5-1.8-3.6c-1.2-1.1-3.9-2.1-8.2-3c-7-1.6-12-3.7-14.9-6.3
		c-3-2.6-4.5-5.9-4.5-9.9c0-2.6,0.8-5.2,2.3-7.5c1.5-2.4,3.8-4.2,6.9-5.6c3.1-1.3,7.3-2,12.7-2c6.6,0,11.6,1.2,15.1,3.7
		c3.5,2.4,5.5,6.3,6.2,11.7l-15,0.9c-0.4-2.3-1.2-4-2.5-5.1c-1.3-1.1-3-1.6-5.3-1.6c-1.9,0-3.2,0.4-4.2,1.2
		c-0.9,0.8-1.4,1.7-1.4,2.9c0,0.8,0.4,1.6,1.2,2.2c0.8,0.7,2.5,1.3,5.3,1.9c7,1.5,11.9,3,15,4.6c3,1.5,5.2,3.4,6.6,5.7
		c1.4,2.3,2.1,4.8,2.1,7.6c0,3.3-0.9,6.4-2.7,9.1s-4.4,4.9-7.7,6.3c-3.3,1.4-7.4,2.2-12.4,2.2c-8.8,0-14.8-1.7-18.2-5.1
		S187.3,61.4,186.8,56.2z"/>
	<path fill="none" stroke="#231F20" stroke-miterlimit="10" d="M264.7,58.9H280v14.3h-15.3V58.9z"/>
	<path fill="none" stroke="#231F20" stroke-miterlimit="10" d="M312.3,21.7h45.1V32l-28.9,30.2h30v11.1h-48.9V62.6l28.6-29.8h-25.9
		V21.7z"/>
	<path fill="none" stroke="#231F20" stroke-miterlimit="10" d="M387.6,47.5c0-8.4,2.3-15,7-19.7s11.2-7,19.6-7
		c8.6,0,15.2,2.3,19.8,6.9s7,11.1,7,19.4c0,6-1,11-3,14.8s-5,6.9-8.8,9s-8.6,3.2-14.3,3.2c-5.8,0-10.6-0.9-14.4-2.8
		s-6.9-4.8-9.3-8.8S387.6,53.5,387.6,47.5z M403.5,47.6c0,5.2,1,8.9,2.9,11.2s4.6,3.4,7.9,3.4c3.4,0,6.1-1.1,7.9-3.3s2.8-6.2,2.8-12
		c0-4.9-1-8.4-2.9-10.6s-4.6-3.4-8-3.4c-3.2,0-5.8,1.1-7.7,3.4S403.5,42.3,403.5,47.6z"/>
	<path fill="none" stroke="#231F20" stroke-miterlimit="10" d="M473.7,21.7h14.9L508,50.2V21.7h15v51.5h-15l-19.3-28.3v28.3h-15
		V21.7z"/>
	<path fill="none" stroke="#231F20" stroke-miterlimit="10" d="M557.6,21.7h42.7v11h-26.7v8.2h24.8v10.5h-24.8v10.2H601v11.7h-43.5
		V21.7z"/>
</g>
</svg>
