<svg xmlns="http://www.w3.org/2000/svg" xmlns:xlink="http://www.w3.org/1999/xlink" version="1.1" x="0px" y="0px" viewBox="0 0 30 112.5" enable-background="new 0 0 30 90" xml:space="preserve"><g><circle cx="15" cy="67.854" r="0.671"/><circle cx="15" cy="65.519" r="0.671"/><path fill="#ffffff" d="M23.601,4H6.399C5.212,4,4.25,4.962,4.25,6.15v16.223c0,5.74,4.502,10.416,10.166,10.721v28.132   c-1.801,0.282-3.184,1.828-3.184,3.709v17.837c0,2.081,1.688,3.769,3.769,3.769c2.081,0,3.769-1.688,3.769-3.769V64.936   c0-1.881-1.383-3.428-3.185-3.71V33.095c5.663-0.305,10.166-4.981,10.166-10.721V6.15C25.75,4.962,24.788,4,23.601,4z    M17.852,65.022v17.742c0,1.576-1.276,2.853-2.851,2.853c-1.575,0-2.851-1.276-2.851-2.853V65.022c0-1.575,1.276-2.852,2.851-2.852   S17.852,63.447,17.852,65.022z M24.26,21.969c0,5.334-4.147,9.658-9.26,9.658c-5.113,0-9.26-4.324-9.26-9.658V7.393   c0-1.068,0.83-1.932,1.852-1.932h14.816c1.021,0,1.852,0.864,1.852,1.932V21.969z"/><path fill="#ffffff" d="M12.948,82.385c0,1.134,0.918,2.053,2.052,2.053c1.135,0,2.053-0.919,2.053-2.053c0-1.133-0.918-2.052-2.053-2.052   C13.866,80.333,12.948,81.252,12.948,82.385z M16.539,82.385c0,0.851-0.688,1.54-1.539,1.54c-0.851,0-1.539-0.689-1.539-1.54   c0-0.85,0.688-1.539,1.539-1.539C15.852,80.846,16.539,81.535,16.539,82.385z"/><path fill="#ffffff" d="M21.959,6.833c-0.346,0-0.625,0.28-0.625,0.625v14.941c0,0.345,0.279,0.625,0.625,0.625c0.345,0,0.625-0.28,0.625-0.625   V7.458C22.584,7.113,22.304,6.833,21.959,6.833z"/><path fill="#ffffff" d="M18.459,6.833c-0.346,0-0.625,0.28-0.625,0.625v14.941c0,0.345,0.279,0.625,0.625,0.625c0.345,0,0.625-0.28,0.625-0.625   V7.458C19.084,7.113,18.804,6.833,18.459,6.833z"/><path fill="#ffffff" d="M14.75,6.833c-0.346,0-0.625,0.28-0.625,0.625v14.941c0,0.345,0.279,0.625,0.625,0.625c0.345,0,0.625-0.28,0.625-0.625   V7.458C15.375,7.113,15.095,6.833,14.75,6.833z"/><path fill="#ffffff" d="M11.458,6.833c-0.345,0-0.625,0.28-0.625,0.625v14.941c0,0.345,0.28,0.625,0.625,0.625s0.625-0.28,0.625-0.625V7.458   C12.083,7.113,11.804,6.833,11.458,6.833z"/><path fill="#ffffff" d="M7.958,6.833c-0.345,0-0.625,0.28-0.625,0.625v14.941c0,0.345,0.28,0.625,0.625,0.625s0.625-0.28,0.625-0.625V7.458   C8.583,7.113,8.304,6.833,7.958,6.833z"/></g></svg>