<svg xmlns="http://www.w3.org/2000/svg" xmlns:xlink="http://www.w3.org/1999/xlink" version="1.1" x="0px" y="0px" viewBox="0 0 100 125" enable-background="new 0 0 100 100" xml:space="preserve"><g><g><path fill="#ffffff" d="M73,30c-13.255,0-24,10.745-24,24s10.745,24,24,24s24-10.745,24-24S86.255,30,73,30z M73,76c-12.131,0-22-9.869-22-22    s9.869-22,22-22s22,9.869,22,22S85.131,76,73,76z M97,27h-1v-1.332C96,24.746,95.176,24,94.16,24H33v-3h-3v-2h-5v2h-3v3h-2v-3H6v6    H3c-1.65,0-3,1.35-3,3v48c0,1.65,1.35,3,3,3h94c1.65,0,3-1.35,3-3V30C100,28.35,98.65,27,97,27z M30,23h1v1h-1V23z M27,21h1v3h-1    V21z M24,23h1v1h-1V23z M20,26h2h3h2h1h2h3h61v1H20V26z M8,23h10v2H8V23z M98,78c0,0.543-0.458,1-1,1H3c-0.542,0-1-0.457-1-1V30    c0-0.541,0.458-1,1-1h16.84h74.32H97c0.542,0,1,0.459,1,1V78z M73,35.5c-10.218,0-18.5,8.282-18.5,18.5S62.782,72.5,73,72.5    S91.5,64.218,91.5,54S83.218,35.5,73,35.5z M73,70.5c-9.098,0-16.5-7.402-16.5-16.5S63.902,37.5,73,37.5S89.5,44.902,89.5,54    S82.098,70.5,73,70.5z M23,78h2V30h-2V78z M46.16,30H32c-1.016,0-1.84,0.746-1.84,1.668v1.666C30.16,34.254,30.984,35,32,35h14.16    c1.016,0,1.84-0.746,1.84-1.666v-1.666C48,30.746,47.176,30,46.16,30z M46,33H32.16v-1H46V33z M73,45.5    c-4.694,0-8.5,3.805-8.5,8.5s3.806,8.5,8.5,8.5s8.5-3.805,8.5-8.5S77.694,45.5,73,45.5z M73,60.5c-3.584,0-6.5-2.916-6.5-6.5    s2.916-6.5,6.5-6.5s6.5,2.916,6.5,6.5S76.584,60.5,73,60.5z"/></g></g></svg>