<svg xmlns="http://www.w3.org/2000/svg" xmlns:xlink="http://www.w3.org/1999/xlink" version="1.1" x="0px" y="0px" viewBox="0 0 100 125" style="enable-background:new 0 0 100 100;" xml:space="preserve"><g><g><path style="" d="M26.115,81.719c-0.366,0-0.708-0.201-0.884-0.533c-0.203-0.384-0.135-0.854,0.168-1.165    c2.949-3.023,4.882-6.528,5.621-10.18C20.5,65.125,14,56.713,14,47.74c0-14.336,16.149-26,36-26s36,11.664,36,26s-16.149,26-36,26    c-1.694,0-3.398-0.086-5.073-0.256c-4.926,4.102-11.36,6.941-18.638,8.221C26.23,81.714,26.172,81.719,26.115,81.719z M50,23.74    c-18.748,0-34,10.766-34,24c0,8.364,6.336,16.25,16.535,20.581c0.422,0.179,0.668,0.622,0.597,1.075    c-0.537,3.43-2.013,6.749-4.311,9.733c5.855-1.439,11.152-4.033,15.137-7.444c0.21-0.18,0.484-0.265,0.76-0.234    c1.74,0.192,3.517,0.29,5.282,0.29c18.748,0,34-10.766,34-24S68.748,23.74,50,23.74z" fill="#ffffff"/><g><path style="" d="M33.333,54.73c-3.216,0-5.833-2.617-5.833-5.833c0-3.217,2.617-5.833,5.833-5.833     c3.217,0,5.833,2.617,5.833,5.833C39.167,52.113,36.55,54.73,33.333,54.73z M33.333,45.063c-2.114,0-3.833,1.72-3.833,3.833     s1.719,3.833,3.833,3.833s3.833-1.719,3.833-3.833S35.447,45.063,33.333,45.063z" fill="#ffffff"/><path style="" d="M50,54.73c-3.217,0-5.833-2.617-5.833-5.833c0-3.217,2.617-5.833,5.833-5.833     c3.216,0,5.833,2.617,5.833,5.833C55.833,52.113,53.216,54.73,50,54.73z M50,45.063c-2.114,0-3.833,1.72-3.833,3.833     S47.886,52.73,50,52.73s3.833-1.719,3.833-3.833S52.114,45.063,50,45.063z" fill="#ffffff"/><path style="" d="M66.666,54.73c-3.217,0-5.833-2.617-5.833-5.833c0-3.217,2.616-5.833,5.833-5.833     S72.5,45.68,72.5,48.897C72.5,52.113,69.883,54.73,66.666,54.73z M66.666,45.063c-2.113,0-3.833,1.72-3.833,3.833     s1.72,3.833,3.833,3.833c2.114,0,3.834-1.719,3.834-3.833S68.78,45.063,66.666,45.063z" fill="#ffffff"/></g></g></g></svg>