<svg xmlns="http://www.w3.org/2000/svg" xmlns:xlink="http://www.w3.org/1999/xlink" version="1.1" x="0px" y="0px" viewBox="0 0 255.1 318.875" enable-background="new 0 0 255.1 255.1" xml:space="preserve"><g><path fill="#ffffff" d="M185.9,164c2.6,0.6,3.3,1.4,3,3.4c-1.1,8.1,1.5,15.3,5.3,22.1c1.8,3.1,1.3,5.3-2.1,6.6c-2.3,0.8-4.8,1-7.3,1.2   c-0.9,0-2.2-0.8-2.8-1.6c-3.5-4.7-6.9-9.5-10.4-14.2c-0.7-0.9-1.2-1.9-2.1-3.4c-0.2,1.3-0.4,2.1-0.4,2.9c-0.1,4.2-0.2,8.5-0.2,12.7   c0,1.1,0.4,2.3,0.9,3.4c1,2.3,0.8,3.7-1,5.4c-2.4,2.3-5.4,2.3-8.4,1.8c-2.6-0.4-5-1.5-6.6-3.6c-4.4-5.6-8.7-11.3-13-17   c-0.7-1-1.4-1.5-2.6-1.7c-6.2-0.9-12.5-0.5-18.6,0.6c-7.9,1.4-15.7,3.3-23.5,5c-1,0.2-2,0.9-2.8,1.7c-14.6,13.4-24.6,29.7-32,47.9   c-1.5,3.8-2.7,7.8-4,11.7c-0.7,2-1.6,2.6-3.7,2.1c-6.9-1.5-11.7-6.6-13-14.1c-0.5-3.1-0.6-6.3-0.9-9.6c-2,0.9-4.1,1.9-6.3,2.7   c-5.6,2.2-11.3,3.5-17.4,2.3c-3-0.6-5.8-1.9-7.9-4.2c-1.4-1.5-1.2-3.3,0.4-4.1c7-3.4,12.9-8.3,18.7-13.3   c11.2-9.6,22.2-19.7,32-30.7c10.6-11.9,19.1-25.2,24.1-40.5c1.2-3.5,1.7-7.2,2.7-10.8c2-7.5,5.9-14,10.5-20.1   c7.8-10.4,17.2-19.3,27.6-27.1c8.5-6.4,17.3-12.5,26.2-18.2c5.8-3.7,11.7-7.2,16.5-12.2c2.2-2.3,4.2-4.7,6-7.3   c4.2-6.3,0.6-14.4-7-15.2c-5.9-0.6-11.8-0.6-17.8-0.8c-1.4,0-2.7,0-3.4-1.5c-0.7-1.6,0.1-2.9,1.2-3.7c2.6-1.9,5.2-3.8,8-5.2   c4.4-2.2,8.6-4.6,12.4-8c6.3-5.8,13.9-6.4,21.9-4.9c10.6,2,17.9,8.4,22.9,17.5c3.1,5.5,5.3,11.5,7.9,17.3   c3.7,8.4,7.4,16.8,10.9,25.3c3.9,9.5,6.1,19.6,7,29.8c0.5,5.7-1,11.2-2.9,16.6c-4.1,11.6-10.8,21.5-19.1,30.4   c-3.6,3.9-7.3,7.7-11.4,11c-3.3,2.7-7.3,4.7-11,7.1C190.5,161,188.4,162.4,185.9,164z M157.7,64.4c-8.2,5.6-16.3,10.7-24.1,16.4   c-12.3,9-23.8,18.9-33,31.2c-4.7,6.2-8.6,12.9-10,20.7c-1.6,8.6-4.8,16.5-8.9,24.1C74,171,64.1,183.5,52.3,194.7   c-10.2,9.6-20.1,19.4-31.4,27.7c-1.9,1.5-4,2.8-6.1,4.3c3.5,1.5,7,1.3,10.4,0.7c6-1.2,11.3-3.8,16.5-6.9c1.1-0.7,2.3-1,3.2,0   c0.6,0.7,0.9,1.9,0.9,2.9c0,3.3-0.5,6.6-0.4,9.9c0.2,3.5,1.1,6.9,3.6,9.6c1.1,1.2,2.4,2.3,4.2,2.7c2.9-9.6,6.9-18.6,11.6-27.2   c7-12.8,15.7-24.3,26.7-34c0.3-0.3,0.7-0.5,0.8-0.9c1.3-3,2.6-6,4-9.1c-0.2,0-0.6-0.2-1-0.3c-5.3-1.1-10.3-3.2-14.9-6.2   c-1.6-1.1-2.1-2.5-1.3-3.8c0.8-1.2,2.3-1.4,4-0.4c7.3,4.6,15.2,6.8,23.9,6.2c9.2-0.6,17.5-3.8,25.3-8.4c16-9.4,29.1-22.1,40.1-36.9   c7-9.4,6.9-19.5,1.3-29.7c-3.3-6.1-6.6-12.2-9.8-18.3C161.7,72.8,159.9,68.9,157.7,64.4z M165.1,199c-0.3-1.4-0.7-2.7-0.9-4.1   c-1-7-0.2-13.9,1.1-20.8c0.1-0.7,0.7-1.4,1.2-1.8c8.3-6,16.7-12,25.1-18c3.3-2.3,7-4.1,9.9-6.7c4.6-4.1,8.9-8.5,12.9-13.2   c7.2-8.4,13-17.6,16-28.3c0.9-3.1,1.3-6.3,2-9.7c-2.8,0.9-5,1.6-7.3,2.2c-11.8,3-22.7,1.5-32.6-6c-8.5-6.4-13.9-15.2-18.1-24.8   c-1.7-3.9-3-8-4.5-12c-2.5,2.1-5,4.2-7.9,6.6c5.3,10,10.5,20.2,16,30.1c5.7,10.4,6.6,20.9,0.7,31.4c-2.5,4.4-5.8,8.4-9.2,12.3   c-10.1,11.6-21.3,21.9-34.8,29.7c-9.5,5.5-19.7,9.2-30.9,9.2c-0.4,0-0.9,0.1-1.1,0.3c-1.5,2-3,4-4.5,6c8.6-1.5,16.8-3.1,25.1-4.3   c6.1-0.9,12.2-1.1,18.2,0.5c1,0.3,2.1,1.1,2.7,1.9c2.1,2.9,3.9,5.9,6.1,8.7c2.3,3.1,4.8,6.2,7.3,9.1   C159.5,199.5,163,200.1,165.1,199z M155.4,22.7c0.7,0,1.2,0.1,1.8,0.1c3.5,0.3,7,0.6,10.4,1c7.2,0.9,14.5,9.8,11.8,18.1   c-0.9,2.9-3.1,5.4-4.5,8.2c-0.4,0.7-0.7,1.6-0.5,2.3c2.6,10.2,6.7,19.7,13.1,28.1c7.8,10.3,17.9,15.9,31.2,14.2   c4.5-0.6,8.8-1.9,12.9-3.7c-1.4-9.2-3.5-18.1-7.1-26.5c-3.1-7.4-6.3-14.7-9.5-22.1c-2.4-5.5-4.5-11.2-7.3-16.6   c-4.4-8.3-10.7-14.6-20.5-16.3c-6.3-1.1-12.3-0.8-17.4,3.7c-1.3,1.2-2.5,2.5-3.9,3.4C162.5,18.8,159,20.6,155.4,22.7z M172.5,173.9   c0.9,1.2,1.8,2.2,2.6,3.3c3.1,4.6,6.1,9.2,9.3,13.7c1.3,1.9,3.2,2,5.3,0.7c-4.5-8.1-7.1-16.6-5.4-26.4   C179.9,168.4,176.1,171.2,172.5,173.9z"/><path fill="#ffffff" d="M191.8,200.9c2.8,0,5.7,0,8.5,0c1.6,0,4.8,2.1,5,3.7c0.1,0.9-0.2,2.2-0.8,2.7c-0.6,0.5-2.3,0.6-2.8,0.1   c-1.7-1.8-3.7-1.5-5.8-1.5c-4.3,0-8.6,0-12.9,0c-2,0-3.1-0.9-3.1-2.5c0-1.5,1.2-2.5,3.1-2.5C186,200.9,188.9,200.9,191.8,200.9z"/><path fill="#ffffff" d="M180.2,210.7c-0.3,0.4-0.7,1.3-1.4,1.6c-0.7,0.3-2.1,0.3-2.5-0.2c-1.3-1.4-2.9-1.5-4.6-1.4c-4.6,0.1-9.3,0-13.9,0   c-2,0-3.1-0.9-3.1-2.5c-0.1-1.5,1.1-2.5,3.1-2.5c5.8,0,11.5,0,17.3,0C177.1,205.7,180.2,208.4,180.2,210.7z"/><path fill="#ffffff" d="M187,18.2c0,2.1-1.7,3.8-3.7,3.8c-1.9,0-3.6-1.7-3.7-3.7c0-2,1.7-3.7,3.8-3.7C185.5,14.6,187,16.1,187,18.2z"/></g></svg>